{
.appVersion = "1352";
DisplayStrings = (

glyphs = (
{
glyphname = .notdef;
lastChange = "2021-08-03 01:01:16 +0000";
layers = (
{
layerId = "F7E87FDD-B687-450B-8559-2548A76CA810";
paths = (
{
closed = 1;
nodes = (
"479 0 LINE",
"488 8 LINE",
"488 621 LINE",
"479 630 LINE",
"58 630 LINE",
"50 620 LINE",
"50 9 LINE",
"58 0 LINE"
);
},
{
closed = 1;
nodes = (
"154 150 LINE",
"244 316 LINE",
"154 479 LINE",
"173 514 LINE",
"263 350 LINE",
"354 514 LINE",
"373 479 LINE",
"283 314 LINE",
"373 150 LINE",
"354 116 LINE",
"263 279 LINE",
"173 116 LINE"
);
},
{
closed = 1;
nodes = (
"67 613 LINE",
"471 613 LINE",
"471 16 LINE",
"67 16 LINE"
);
},
{
closed = 1;
nodes = (
"437 49 LINE",
"437 577 LINE",
"102 577 LINE",
"102 49 LINE"
);
}
);
width = 538;
}
);
note = .notdef;
},
{
glyphname = A;
lastChange = "2021-08-03 16:22:02 +0000";
layers = (
{
anchors = (
{
name = bottom;
position = "{728, -48}";
},
{
name = ogonek;
position = "{1045, -21}";
},
{
name = top;
position = "{1190, 627}";
}
);
layerId = "F7E87FDD-B687-450B-8559-2548A76CA810";
paths = (
{
closed = 1;
nodes = (
"378 -119 OFFCURVE",
"544 -8 OFFCURVE",
"731 207 CURVE",
"973 224 LINE",
"961 171 OFFCURVE",
"954 126 OFFCURVE",
"951 87 CURVE SMOOTH",
"950 76 OFFCURVE",
"950 65 OFFCURVE",
"950 54 CURVE SMOOTH",
"950 7 OFFCURVE",
"960 -24 OFFCURVE",
"981 -41 CURVE SMOOTH",
"988 -47 OFFCURVE",
"996 -50 OFFCURVE",
"1003 -50 CURVE SMOOTH",
"1026 -50 OFFCURVE",
"1045 -21 OFFCURVE",
"1045 6 CURVE SMOOTH",
"1045 10 OFFCURVE",
"1044 12 OFFCURVE",
"1043 13 CURVE",
"1043 13 OFFCURVE",
"1027 -6 OFFCURVE",
"1015 -6 CURVE SMOOTH",
"1012 -6 OFFCURVE",
"1010 -5 OFFCURVE",
"1007 -4 CURVE",
"994 3 OFFCURVE",
"987 29 OFFCURVE",
"987 73 CURVE SMOOTH",
"987 119 OFFCURVE",
"995 170 OFFCURVE",
"1012 226 CURVE",
"1075 231 OFFCURVE",
"1106 238 OFFCURVE",
"1106 249 CURVE SMOOTH",
"1106 252 OFFCURVE",
"1100 254 OFFCURVE",
"1088 254 CURVE SMOOTH",
"1083 254 OFFCURVE",
"1078 254 OFFCURVE",
"1072 253 CURVE SMOOTH",
"1056 250 OFFCURVE",
"1038 249 OFFCURVE",
"1018 248 CURVE",
"1059 379 OFFCURVE",
"1124 492 OFFCURVE",
"1214 587 CURVE SMOOTH",
"1221 594 OFFCURVE",
"1224 600 OFFCURVE",
"1224 606 CURVE SMOOTH",
"1224 620 OFFCURVE",
"1213 627 OFFCURVE",
"1190 627 CURVE SMOOTH",
"1183 627 OFFCURVE",
"1175 626 OFFCURVE",
"1168 623 CURVE SMOOTH",
"1044 576 OFFCURVE",
"913 466 OFFCURVE",
"726 237 CURVE",
"697 237 OFFCURVE",
"672 238 OFFCURVE",
"649 239 CURVE",
"644 240 OFFCURVE",
"641 245 OFFCURVE",
"640 254 CURVE SMOOTH",
"639 263 OFFCURVE",
"636 268 OFFCURVE",
"629 268 CURVE SMOOTH",
"624 268 OFFCURVE",
"617 266 OFFCURVE",
"606 262 CURVE",
"578 247 OFFCURVE",
"564 233 OFFCURVE",
"564 220 CURVE SMOOTH",
"564 209 OFFCURVE",
"578 203 OFFCURVE",
"607 202 CURVE SMOOTH",
"698 204 LINE",
"519 5 OFFCURVE",
"359 -92 OFFCURVE",
"224 -92 CURVE SMOOTH",
"182 -92 OFFCURVE",
"147 -76 OFFCURVE",
"115 -48 CURVE SMOOTH",
"76 -13 OFFCURVE",
"56 33 OFFCURVE",
"56 91 CURVE SMOOTH",
"56 120 OFFCURVE",
"61 152 OFFCURVE",
"71 184 CURVE SMOOTH",
"93 257 OFFCURVE",
"133 315 OFFCURVE",
"191 361 CURVE SMOOTH",
"245 402 OFFCURVE",
"300 430 OFFCURVE",
"355 430 CURVE SMOOTH",
"415 430 OFFCURVE",
"479 387 OFFCURVE",
"479 325 CURVE SMOOTH",
"479 282 OFFCURVE",
"456 248 OFFCURVE",
"434 216 CURVE",
"432 214 OFFCURVE",
"436 212 OFFCURVE",
"439 212 CURVE",
"480 228 OFFCURVE",
"511 284 OFFCURVE",
"511 336 CURVE SMOOTH",
"511 411 OFFCURVE",
"449 452 OFFCURVE",
"369 452 CURVE SMOOTH",
"305 452 OFFCURVE",
"239 428 OFFCURVE",
"172 380 CURVE SMOOTH",
"105 332 OFFCURVE",
"56 274 OFFCURVE",
"26 205 CURVE SMOOTH",
"11 172 OFFCURVE",
"4 136 OFFCURVE",
"4 98 CURVE SMOOTH",
"4 43 OFFCURVE",
"19 -4 OFFCURVE",
"49 -41 CURVE SMOOTH",
"88 -89 OFFCURVE",
"152 -119 OFFCURVE",
"229 -119 CURVE SMOOTH"
);
},
{
closed = 1;
nodes = (
"820 313 OFFCURVE",
"880 387 OFFCURVE",
"950 450 CURVE SMOOTH",
"985 482 OFFCURVE",
"1060 541 OFFCURVE",
"1111 557 CURVE",
"1098 538 OFFCURVE",
"1085 518 OFFCURVE",
"1074 497 CURVE SMOOTH",
"1041 437 OFFCURVE",
"1009 353 OFFCURVE",
"978 245 CURVE",
"883 241 OFFCURVE",
"809 238 OFFCURVE",
"758 237 CURVE"
);
}
);
width = 1057;
}
);
note = A;
unicode = 0041;
},
{
glyphname = AE;
lastChange = "2021-08-03 00:54:14 +0000";
layers = (
{
anchors = (
{
name = bottom;
position = "{597, 0}";
},
{
name = top;
position = "{1142, 632}";
}
);
layerId = "F7E87FDD-B687-450B-8559-2548A76CA810";
paths = (
{
closed = 1;
nodes = (
"242 -71 OFFCURVE",
"307 -48 OFFCURVE",
"370 -2 CURVE SMOOTH",
"407 25 OFFCURVE",
"458 73 OFFCURVE",
"523 144 CURVE SMOOTH",
"558 183 OFFCURVE",
"609 242 OFFCURVE",
"674 321 CURVE",
"822 332 LINE",
"739 224 OFFCURVE",
"698 135 OFFCURVE",
"698 64 CURVE SMOOTH",
"698 -3 OFFCURVE",
"740 -37 OFFCURVE",
"823 -37 CURVE SMOOTH",
"878 -37 OFFCURVE",
"952 -20 OFFCURVE",
"1045 14 CURVE SMOOTH",
"1146 51 OFFCURVE",
"1210 88 OFFCURVE",
"1237 126 CURVE SMOOTH",
"1241 131 OFFCURVE",
"1243 134 OFFCURVE",
"1243 135 CURVE",
"1206 119 OFFCURVE",
"1170 103 OFFCURVE",
"1137 87 CURVE SMOOTH",
"1018 34 OFFCURVE",
"921 7 OFFCURVE",
"847 7 CURVE SMOOTH",
"773 7 OFFCURVE",
"736 31 OFFCURVE",
"736 79 CURVE SMOOTH",
"736 98 OFFCURVE",
"753 140 OFFCURVE",
"788 204 CURVE SMOOTH",
"823 269 OFFCURVE",
"849 305 OFFCURVE",
"865 312 CURVE SMOOTH",
"903 329 OFFCURVE",
"955 340 OFFCURVE",
"1020 344 CURVE SMOOTH",
"1108 349 OFFCURVE",
"1161 354 OFFCURVE",
"1179 358 CURVE SMOOTH",
"1204 363 OFFCURVE",
"1216 368 OFFCURVE",
"1216 373 CURVE SMOOTH",
"1216 378 OFFCURVE",
"1188 381 OFFCURVE",
"1131 381 CURVE SMOOTH",
"1108 381 OFFCURVE",
"1074 379 OFFCURVE",
"1029 376 CURVE SMOOTH",
"984 373 OFFCURVE",
"951 372 OFFCURVE",
"928 372 CURVE SMOOTH",
"923 372 OFFCURVE",
"920 373 OFFCURVE",
"917 376 CURVE",
"1027 499 OFFCURVE",
"1091 566 OFFCURVE",
"1110 577 CURVE SMOOTH",
"1143 597 OFFCURVE",
"1213 607 OFFCURVE",
"1320 607 CURVE SMOOTH",
"1361 607 OFFCURVE",
"1390 604 OFFCURVE",
"1405 597 CURVE",
"1424 596 OFFCURVE",
"1434 601 OFFCURVE",
"1434 611 CURVE SMOOTH",
"1434 620 OFFCURVE",
"1427 626 OFFCURVE",
"1414 629 CURVE SMOOTH",
"1383 636 OFFCURVE",
"1334 640 OFFCURVE",
"1267 640 CURVE SMOOTH",
"1126 640 OFFCURVE",
"1013 619 OFFCURVE",
"926 577 CURVE SMOOTH",
"843 537 OFFCURVE",
"754 462 OFFCURVE",
"660 353 CURVE",
"515 340 OFFCURVE",
"389 316 OFFCURVE",
"280 280 CURVE SMOOTH",
"108 223 OFFCURVE",
"22 146 OFFCURVE",
"22 51 CURVE SMOOTH",
"22 10 OFFCURVE",
"38 -22 OFFCURVE",
"69 -44 CURVE SMOOTH",
"96 -62 OFFCURVE",
"131 -71 OFFCURVE",
"175 -71 CURVE SMOOTH"
);
},
{
closed = 1;
nodes = (
"128 -32 OFFCURVE",
"103 -25 OFFCURVE",
"83 -12 CURVE SMOOTH",
"58 3 OFFCURVE",
"46 25 OFFCURVE",
"46 54 CURVE SMOOTH",
"46 133 OFFCURVE",
"126 199 OFFCURVE",
"287 250 CURVE SMOOTH",
"384 282 OFFCURVE",
"500 306 OFFCURVE",
"633 321 CURVE",
"501 169 LINE SMOOTH",
"447 106 OFFCURVE",
"393 61 OFFCURVE",
"345 30 CURVE SMOOTH",
"282 -11 OFFCURVE",
"220 -32 OFFCURVE",
"159 -32 CURVE SMOOTH"
);
},
{
closed = 1;
nodes = (
"735 399 OFFCURVE",
"783 445 OFFCURVE",
"843 490 CURVE SMOOTH",
"906 537 OFFCURVE",
"964 569 OFFCURVE",
"1017 586 CURVE",
"1024 581 OFFCURVE",
"1028 577 OFFCURVE",
"1030 573 CURVE",
"970 505 OFFCURVE",
"928 451 OFFCURVE",
"898 418 CURVE SMOOTH",
"848 362 LINE",
"779 359 OFFCURVE",
"729 355 OFFCURVE",
"698 352 CURVE"
);
}
);
width = 1193;
}
);
note = AE;
unicode = 00C6;
},
{
glyphname = B;
lastChange = "2021-08-03 00:54:19 +0000";
layers = (
{
layerId = "F7E87FDD-B687-450B-8559-2548A76CA810";
paths = (
{
closed = 1;
nodes = (
"172 -58 OFFCURVE",
"220 -31 OFFCURVE",
"280 22 CURVE",
"319 -12 OFFCURVE",
"360 -33 OFFCURVE",
"401 -42 CURVE SMOOTH",
"454 -53 OFFCURVE",
"504 -58 OFFCURVE",
"551 -58 CURVE SMOOTH",
"662 -58 OFFCURVE",
"752 -30 OFFCURVE",
"819 25 CURVE SMOOTH",
"876 72 OFFCURVE",
"901 122 OFFCURVE",
"901 176 CURVE SMOOTH",
"901 277 OFFCURVE",
"710 286 OFFCURVE",
"577 294 CURVE",
"704 302 OFFCURVE",
"925 358 OFFCURVE",
"925 494 CURVE SMOOTH",
"925 666 OFFCURVE",
"660 682 OFFCURVE",
"548 682 CURVE SMOOTH",
"425 682 OFFCURVE",
"317 660 OFFCURVE",
"225 617 CURVE SMOOTH",
"138 576 OFFCURVE",
"94 530 OFFCURVE",
"94 480 CURVE SMOOTH",
"94 445 OFFCURVE",
"120 414 OFFCURVE",
"171 389 CURVE",
"184 384 OFFCURVE",
"200 382 OFFCURVE",
"218 382 CURVE SMOOTH",
"229 382 OFFCURVE",
"234 384 OFFCURVE",
"234 387 CURVE SMOOTH",
"234 390 OFFCURVE",
"227 394 OFFCURVE",
"214 399 CURVE",
"181 418 OFFCURVE",
"164 440 OFFCURVE",
"164 466 CURVE SMOOTH",
"164 512 OFFCURVE",
"207 556 OFFCURVE",
"292 597 CURVE SMOOTH",
"378 639 OFFCURVE",
"473 660 OFFCURVE",
"576 660 CURVE SMOOTH",
"596 660 OFFCURVE",
"616 659 OFFCURVE",
"635 657 CURVE SMOOTH",
"712 650 OFFCURVE",
"772 629 OFFCURVE",
"815 595 CURVE SMOOTH",
"853 565 OFFCURVE",
"875 531 OFFCURVE",
"872 492 CURVE SMOOTH",
"862 369 OFFCURVE",
"698 325 OFFCURVE",
"555 316 CURVE",
"594 368 OFFCURVE",
"630 418 OFFCURVE",
"661 467 CURVE SMOOTH",
"680 496 OFFCURVE",
"690 518 OFFCURVE",
"690 531 CURVE SMOOTH",
"690 539 OFFCURVE",
"686 543 OFFCURVE",
"679 543 CURVE SMOOTH",
"666 543 OFFCURVE",
"648 533 OFFCURVE",
"626 513 CURVE SMOOTH",
"602 490 OFFCURVE",
"583 464 OFFCURVE",
"570 434 CURVE SMOOTH",
"557 405 OFFCURVE",
"533 366 OFFCURVE",
"500 317 CURVE",
"470 318 OFFCURVE",
"448 319 OFFCURVE",
"434 322 CURVE SMOOTH",
"419 324 OFFCURVE",
"410 320 OFFCURVE",
"410 308 CURVE SMOOTH",
"410 299 OFFCURVE",
"419 292 OFFCURVE",
"436 288 CURVE",
"478 283 LINE",
"413 189 OFFCURVE",
"351 114 OFFCURVE",
"292 59 CURVE",
"245 104 OFFCURVE",
"211 165 OFFCURVE",
"190 242 CURVE SMOOTH",
"182 277 OFFCURVE",
"174 317 OFFCURVE",
"157 317 CURVE SMOOTH",
"149 317 OFFCURVE",
"139 311 OFFCURVE",
"126 298 CURVE SMOOTH",
"106 278 OFFCURVE",
"88 245 OFFCURVE",
"73 200 CURVE SMOOTH",
"56 152 OFFCURVE",
"48 107 OFFCURVE",
"48 65 CURVE SMOOTH",
"48 -17 OFFCURVE",
"78 -58 OFFCURVE",
"137 -58 CURVE SMOOTH"
);
},
{
closed = 1;
nodes = (
"105 -27 OFFCURVE",
"86 1 OFFCURVE",
"86 58 CURVE SMOOTH",
"86 69 OFFCURVE",
"87 80 OFFCURVE",
"89 91 CURVE SMOOTH",
"94 118 OFFCURVE",
"101 144 OFFCURVE",
"110 167 CURVE SMOOTH",
"121 194 OFFCURVE",
"130 208 OFFCURVE",
"139 208 CURVE SMOOTH",
"144 208 OFFCURVE",
"148 203 OFFCURVE",
"152 193 CURVE SMOOTH",
"173 138 OFFCURVE",
"211 85 OFFCURVE",
"266 36 CURVE",
"217 -6 OFFCURVE",
"176 -27 OFFCURVE",
"143 -27 CURVE SMOOTH"
);
},
{
closed = 1;
nodes = (
"500 -30 OFFCURVE",
"459 -25 OFFCURVE",
"416 -14 CURVE SMOOTH",
"376 -4 OFFCURVE",
"339 16 OFFCURVE",
"306 46 CURVE",
"407 139 OFFCURVE",
"480 217 OFFCURVE",
"527 278 CURVE",
"574 282 OFFCURVE",
"840 274 OFFCURVE",
"840 159 CURVE SMOOTH",
"840 119 OFFCURVE",
"814 79 OFFCURVE",
"762 39 CURVE SMOOTH",
"701 -7 OFFCURVE",
"628 -30 OFFCURVE",
"541 -30 CURVE SMOOTH"
);
}
);
width = 901;
}
);
note = B;
unicode = 0042;
},
{
glyphname = C;
lastChange = "2021-08-03 16:22:02 +0000";
layers = (
{
anchors = (
{
name = bottom;
position = "{233, -86}";
},
{
name = top;
position = "{663, 660}";
}
);
layerId = "F7E87FDD-B687-450B-8559-2548A76CA810";
paths = (
{
closed = 1;
nodes = (
"320 -105 OFFCURVE",
"366 -96 OFFCURVE",
"417 -78 CURVE SMOOTH",
"490 -51 OFFCURVE",
"566 -14 OFFCURVE",
"643 42 CURVE SMOOTH",
"675 65 OFFCURVE",
"724 106 OFFCURVE",
"790 164 CURVE SMOOTH",
"799 172 OFFCURVE",
"803 178 OFFCURVE",
"803 183 CURVE SMOOTH",
"803 184 OFFCURVE",
"802 185 OFFCURVE",
"801 185 CURVE SMOOTH",
"794 185 OFFCURVE",
"779 175 OFFCURVE",
"758 155 CURVE SMOOTH",
"727 126 OFFCURVE",
"677 90 OFFCURVE",
"609 48 CURVE SMOOTH",
"521 -7 OFFCURVE",
"446 -41 OFFCURVE",
"383 -55 CURVE SMOOTH",
"352 -62 OFFCURVE",
"324 -65 OFFCURVE",
"299 -65 CURVE SMOOTH",
"239 -65 OFFCURVE",
"194 -47 OFFCURVE",
"163 -12 CURVE SMOOTH",
"136 19 OFFCURVE",
"123 60 OFFCURVE",
"123 111 CURVE SMOOTH",
"123 156 OFFCURVE",
"133 200 OFFCURVE",
"153 245 CURVE SMOOTH",
"180 306 OFFCURVE",
"221 366 OFFCURVE",
"276 423 CURVE SMOOTH",
"348 498 OFFCURVE",
"435 557 OFFCURVE",
"536 602 CURVE SMOOTH",
"587 625 OFFCURVE",
"635 636 OFFCURVE",
"680 636 CURVE SMOOTH",
"747 636 OFFCURVE",
"781 612 OFFCURVE",
"781 565 CURVE SMOOTH",
"781 536 OFFCURVE",
"765 499 OFFCURVE",
"734 456 CURVE SMOOTH",
"705 417 OFFCURVE",
"670 383 OFFCURVE",
"628 355 CURVE SMOOTH",
"587 327 OFFCURVE",
"551 313 OFFCURVE",
"520 313 CURVE SMOOTH",
"487 313 OFFCURVE",
"469 330 OFFCURVE",
"464 364 CURVE SMOOTH",
"463 373 OFFCURVE",
"458 377 OFFCURVE",
"449 377 CURVE SMOOTH",
"439 377 OFFCURVE",
"434 373 OFFCURVE",
"434 364 CURVE SMOOTH",
"434 360 LINE",
"441 315 OFFCURVE",
"468 292 OFFCURVE",
"516 292 CURVE SMOOTH",
"554 292 OFFCURVE",
"597 300 OFFCURVE",
"648 330 CURVE SMOOTH",
"698 361 OFFCURVE",
"741 401 OFFCURVE",
"777 449 CURVE SMOOTH",
"807 488 OFFCURVE",
"815 523 OFFCURVE",
"815 555 CURVE SMOOTH",
"815 619 OFFCURVE",
"754 660 OFFCURVE",
"663 660 CURVE SMOOTH",
"617 660 OFFCURVE",
"569 650 OFFCURVE",
"519 630 CURVE SMOOTH",
"310 547 OFFCURVE",
"170 410 OFFCURVE",
"95 248 CURVE SMOOTH",
"74 202 OFFCURVE",
"64 158 OFFCURVE",
"64 112 CURVE SMOOTH",
"64 50 OFFCURVE",
"82 0 OFFCURVE",
"118 -40 CURVE SMOOTH",
"157 -83 OFFCURVE",
"209 -105 OFFCURVE",
"277 -105 CURVE SMOOTH"
);
}
);
width = 737;
}
);
note = C;
unicode = 0043;
},
{
glyphname = D;
lastChange = "2021-08-03 16:22:02 +0000";
layers = (
{
anchors = (
{
name = bottom;
position = "{224, -97}";
},
{
name = center;
position = "{221, 260}";
},
{
name = top;
position = "{718, 618}";
}
);
layerId = "F7E87FDD-B687-450B-8559-2548A76CA810";
paths = (
{
closed = 1;
nodes = (
"343 -88 OFFCURVE",
"488 -44 OFFCURVE",
"630 38 CURVE SMOOTH",
"769 119 OFFCURVE",
"862 211 OFFCURVE",
"907 314 CURVE SMOOTH",
"921 346 OFFCURVE",
"928 377 OFFCURVE",
"928 408 CURVE SMOOTH",
"928 476 OFFCURVE",
"895 533 OFFCURVE",
"828 579 CURVE SMOOTH",
"761 626 OFFCURVE",
"671 654 OFFCURVE",
"558 665 CURVE SMOOTH",
"516 669 OFFCURVE",
"475 671 OFFCURVE",
"435 671 CURVE SMOOTH",
"279 671 OFFCURVE",
"149 644 OFFCURVE",
"46 590 CURVE SMOOTH",
"-47 541 OFFCURVE",
"-93 486 OFFCURVE",
"-93 426 CURVE SMOOTH",
"-93 369 OFFCURVE",
"-49 330 OFFCURVE",
"40 308 CURVE SMOOTH",
"46 307 OFFCURVE",
"53 307 OFFCURVE",
"60 307 CURVE SMOOTH",
"68 307 OFFCURVE",
"77 307 OFFCURVE",
"86 309 CURVE SMOOTH",
"103 312 OFFCURVE",
"111 315 OFFCURVE",
"111 319 CURVE SMOOTH",
"111 322 OFFCURVE",
"101 325 OFFCURVE",
"82 328 CURVE",
"11 349 OFFCURVE",
"-24 386 OFFCURVE",
"-24 437 CURVE SMOOTH",
"-24 491 OFFCURVE",
"14 539 OFFCURVE",
"91 580 CURVE SMOOTH",
"179 627 OFFCURVE",
"296 651 OFFCURVE",
"441 651 CURVE SMOOTH",
"477 651 OFFCURVE",
"514 649 OFFCURVE",
"552 646 CURVE SMOOTH",
"651 638 OFFCURVE",
"728 612 OFFCURVE",
"785 569 CURVE SMOOTH",
"842 526 OFFCURVE",
"870 473 OFFCURVE",
"870 412 CURVE SMOOTH",
"870 382 OFFCURVE",
"863 352 OFFCURVE",
"849 322 CURVE SMOOTH",
"800 216 OFFCURVE",
"709 123 OFFCURVE",
"576 44 CURVE SMOOTH",
"439 -37 OFFCURVE",
"306 -74 OFFCURVE",
"175 -69 CURVE",
"154 -62 OFFCURVE",
"143 -47 OFFCURVE",
"143 -24 CURVE SMOOTH",
"143 -10 OFFCURVE",
"147 6 OFFCURVE",
"155 25 CURVE SMOOTH",
"195 123 OFFCURVE",
"243 214 OFFCURVE",
"298 298 CURVE SMOOTH",
"347 373 OFFCURVE",
"387 426 OFFCURVE",
"418 457 CURVE SMOOTH",
"439 479 OFFCURVE",
"461 498 OFFCURVE",
"482 514 CURVE SMOOTH",
"497 525 OFFCURVE",
"506 532 OFFCURVE",
"507 535 CURVE",
"508 544 OFFCURVE",
"502 549 OFFCURVE",
"489 549 CURVE SMOOTH",
"476 549 OFFCURVE",
"457 544 OFFCURVE",
"434 535 CURVE SMOOTH",
"411 526 OFFCURVE",
"395 518 OFFCURVE",
"386 510 CURVE SMOOTH",
"379 505 OFFCURVE",
"374 498 OFFCURVE",
"371 490 CURVE SMOOTH",
"366 477 OFFCURVE",
"358 463 OFFCURVE",
"345 447 CURVE SMOOTH",
"255 328 OFFCURVE",
"182 209 OFFCURVE",
"127 90 CURVE SMOOTH",
"110 52 OFFCURVE",
"101 20 OFFCURVE",
"101 -6 CURVE SMOOTH",
"101 -37 OFFCURVE",
"113 -58 OFFCURVE",
"137 -69 CURVE SMOOTH",
"139 -70 OFFCURVE",
"147 -74 OFFCURVE",
"162 -83 CURVE SMOOTH",
"174 -90 OFFCURVE",
"185 -93 OFFCURVE",
"194 -93 CURVE SMOOTH"
);
}
);
width = 817;
}
);
note = D;
unicode = 0044;
},
{
glyphname = E;
lastChange = "2021-08-03 00:54:19 +0000";
layers = (
{
anchors = (
{
name = bottom;
position = "{287, -113}";
},
{
name = ogonek;
position = "{707, -62}";
},
{
name = top;
position = "{619, 629}";
},
{
name = topleft;
position = "{20, 670}";
}
);
layerId = "F7E87FDD-B687-450B-8559-2548A76CA810";
paths = (
{
closed = 1;
nodes = (
"507 -124 OFFCURVE",
"633 -95 OFFCURVE",
"740 -42 CURVE SMOOTH",
"826 0 OFFCURVE",
"881 43 OFFCURVE",
"905 87 CURVE SMOOTH",
"911 98 OFFCURVE",
"914 107 OFFCURVE",
"914 114 CURVE SMOOTH",
"914 119 OFFCURVE",
"912 121 OFFCURVE",
"909 121 CURVE SMOOTH",
"902 121 OFFCURVE",
"892 112 OFFCURVE",
"879 94 CURVE SMOOTH",
"842 42 OFFCURVE",
"781 -1 OFFCURVE",
"697 -35 CURVE SMOOTH",
"604 -72 OFFCURVE",
"500 -98 OFFCURVE",
"387 -98 CURVE SMOOTH",
"289 -98 OFFCURVE",
"210 -72 OFFCURVE",
"146 -20 CURVE SMOOTH",
"93 25 OFFCURVE",
"71 88 OFFCURVE",
"71 147 CURVE SMOOTH",
"71 177 OFFCURVE",
"77 206 OFFCURVE",
"87 230 CURVE",
"155 233 OFFCURVE",
"205 236 OFFCURVE",
"237 238 CURVE SMOOTH",
"304 241 OFFCURVE",
"394 254 OFFCURVE",
"506 278 CURVE SMOOTH",
"614 301 OFFCURVE",
"681 312 OFFCURVE",
"707 312 CURVE SMOOTH",
"745 312 OFFCURVE",
"763 300 OFFCURVE",
"763 275 CURVE SMOOTH",
"763 260 OFFCURVE",
"766 252 OFFCURVE",
"775 252 CURVE SMOOTH",
"790 252 OFFCURVE",
"797 262 OFFCURVE",
"797 282 CURVE SMOOTH",
"797 314 OFFCURVE",
"766 330 OFFCURVE",
"704 330 CURVE SMOOTH",
"669 330 OFFCURVE",
"600 323 OFFCURVE",
"497 309 CURVE SMOOTH",
"386 293 OFFCURVE",
"301 284 OFFCURVE",
"242 282 CURVE SMOOTH",
"219 281 OFFCURVE",
"196 281 OFFCURVE",
"174 281 CURVE SMOOTH",
"152 281 OFFCURVE",
"131 281 OFFCURVE",
"110 282 CURVE",
"163 382 OFFCURVE",
"266 465 OFFCURVE",
"419 532 CURVE SMOOTH",
"543 586 OFFCURVE",
"649 613 OFFCURVE",
"735 613 CURVE SMOOTH",
"768 613 OFFCURVE",
"794 610 OFFCURVE",
"815 603 CURVE SMOOTH",
"846 593 OFFCURVE",
"861 576 OFFCURVE",
"858 553 CURVE SMOOTH",
"855 530 OFFCURVE",
"862 518 OFFCURVE",
"879 518 CURVE SMOOTH",
"895 518 OFFCURVE",
"902 527 OFFCURVE",
"902 546 CURVE SMOOTH",
"902 613 OFFCURVE",
"848 635 OFFCURVE",
"710 635 CURVE SMOOTH",
"666 635 OFFCURVE",
"604 624 OFFCURVE",
"523 601 CURVE SMOOTH",
"423 573 OFFCURVE",
"334 536 OFFCURVE",
"257 490 CURVE SMOOTH",
"158 431 OFFCURVE",
"87 364 OFFCURVE",
"46 287 CURVE",
"9 292 OFFCURVE",
"-15 298 OFFCURVE",
"-26 306 CURVE SMOOTH",
"-29 308 OFFCURVE",
"-31 309 OFFCURVE",
"-34 309 CURVE SMOOTH",
"-45 309 OFFCURVE",
"-54 295 OFFCURVE",
"-54 282 CURVE SMOOTH",
"-54 256 OFFCURVE",
"-29 240 OFFCURVE",
"22 233 CURVE",
"11 202 OFFCURVE",
"6 170 OFFCURVE",
"6 141 CURVE SMOOTH",
"6 60 OFFCURVE",
"44 -12 OFFCURVE",
"118 -61 CURVE SMOOTH",
"187 -107 OFFCURVE",
"269 -124 OFFCURVE",
"380 -124 CURVE SMOOTH"
);
}
);
width = 836;
}
);
note = E;
unicode = 0045;
},
{
glyphname = F;
lastChange = "2021-08-03 16:22:02 +0000";
layers = (
{
layerId = "F7E87FDD-B687-450B-8559-2548A76CA810";
paths = (
{
closed = 1;
nodes = (
"265 -57 OFFCURVE",
"293 -54 OFFCURVE",
"323 -49 CURVE SMOOTH",
"468 -24 OFFCURVE",
"596 82 OFFCURVE",
"707 269 CURVE",
"724 270 OFFCURVE",
"740 272 OFFCURVE",
"756 275 CURVE SMOOTH",
"763 276 OFFCURVE",
"771 277 OFFCURVE",
"780 277 CURVE SMOOTH",
"795 277 OFFCURVE",
"812 275 OFFCURVE",
"831 272 CURVE SMOOTH",
"868 267 OFFCURVE",
"886 264 OFFCURVE",
"886 264 CURVE",
"889 264 OFFCURVE",
"890 265 OFFCURVE",
"890 266 CURVE SMOOTH",
"890 268 OFFCURVE",
"886 272 OFFCURVE",
"878 277 CURVE SMOOTH",
"858 291 OFFCURVE",
"818 299 OFFCURVE",
"758 299 CURVE SMOOTH",
"747 299 OFFCURVE",
"736 298 OFFCURVE",
"724 298 CURVE",
"759 361 OFFCURVE",
"787 426 OFFCURVE",
"808 491 CURVE",
"877 464 OFFCURVE",
"927 451 OFFCURVE",
"958 451 CURVE SMOOTH",
"999 451 OFFCURVE",
"1031 478 OFFCURVE",
"1031 498 CURVE SMOOTH",
"1031 502 OFFCURVE",
"1029 504 OFFCURVE",
"1026 504 CURVE SMOOTH",
"1025 504 OFFCURVE",
"1016 485 OFFCURVE",
"995 480 CURVE SMOOTH",
"988 478 OFFCURVE",
"979 477 OFFCURVE",
"969 477 CURVE SMOOTH",
"935 477 OFFCURVE",
"884 490 OFFCURVE",
"816 517 CURVE",
"825 550 OFFCURVE",
"829 577 OFFCURVE",
"829 598 CURVE SMOOTH",
"829 628 OFFCURVE",
"815 643 OFFCURVE",
"788 643 CURVE SMOOTH",
"768 643 OFFCURVE",
"758 638 OFFCURVE",
"758 628 CURVE SMOOTH",
"758 627 OFFCURVE",
"759 626 OFFCURVE",
"760 625 CURVE",
"768 622 OFFCURVE",
"772 612 OFFCURVE",
"772 593 CURVE SMOOTH",
"772 578 OFFCURVE",
"769 559 OFFCURVE",
"764 537 CURVE",
"615 598 OFFCURVE",
"524 634 OFFCURVE",
"490 646 CURVE SMOOTH",
"373 686 OFFCURVE",
"273 706 OFFCURVE",
"188 706 CURVE SMOOTH",
"144 706 OFFCURVE",
"105 695 OFFCURVE",
"72 674 CURVE SMOOTH",
"39 653 OFFCURVE",
"22 626 OFFCURVE",
"22 592 CURVE SMOOTH",
"22 572 OFFCURVE",
"31 553 OFFCURVE",
"49 537 CURVE SMOOTH",
"63 524 OFFCURVE",
"80 517 OFFCURVE",
"97 517 CURVE SMOOTH",
"101 517 OFFCURVE",
"104 518 OFFCURVE",
"107 518 CURVE",
"110 519 OFFCURVE",
"112 520 OFFCURVE",
"112 521 CURVE",
"88 540 LINE SMOOTH",
"72 553 OFFCURVE",
"64 565 OFFCURVE",
"64 577 CURVE SMOOTH",
"64 582 OFFCURVE",
"65 586 OFFCURVE",
"67 591 CURVE SMOOTH",
"90 636 OFFCURVE",
"144 659 OFFCURVE",
"230 659 CURVE SMOOTH",
"319 659 OFFCURVE",
"425 637 OFFCURVE",
"548 593 CURVE SMOOTH",
"645 556 OFFCURVE",
"715 528 OFFCURVE",
"758 510 CURVE",
"741 443 OFFCURVE",
"713 371 OFFCURVE",
"674 296 CURVE",
"612 293 OFFCURVE",
"575 292 OFFCURVE",
"562 292 CURVE SMOOTH",
"538 292 OFFCURVE",
"496 291 OFFCURVE",
"435 289 CURVE SMOOTH",
"427 289 OFFCURVE",
"423 291 OFFCURVE",
"423 294 CURVE SMOOTH",
"423 298 LINE SMOOTH",
"423 301 OFFCURVE",
"420 302 OFFCURVE",
"414 302 CURVE SMOOTH",
"409 302 OFFCURVE",
"402 301 OFFCURVE",
"393 300 CURVE SMOOTH",
"355 293 OFFCURVE",
"336 283 OFFCURVE",
"336 269 CURVE SMOOTH",
"336 256 OFFCURVE",
"359 241 OFFCURVE",
"375 242 CURVE SMOOTH",
"657 264 LINE",
"559 91 OFFCURVE",
"449 -5 OFFCURVE",
"327 -25 CURVE SMOOTH",
"304 -29 OFFCURVE",
"283 -31 OFFCURVE",
"263 -31 CURVE SMOOTH",
"202 -31 OFFCURVE",
"154 -14 OFFCURVE",
"121 20 CURVE SMOOTH",
"94 48 OFFCURVE",
"80 80 OFFCURVE",
"80 117 CURVE SMOOTH",
"80 157 OFFCURVE",
"97 188 OFFCURVE",
"132 211 CURVE SMOOTH",
"161 230 OFFCURVE",
"197 240 OFFCURVE",
"240 243 CURVE SMOOTH",
"261 244 OFFCURVE",
"271 248 OFFCURVE",
"271 254 CURVE SMOOTH",
"271 257 OFFCURVE",
"266 260 OFFCURVE",
"256 261 CURVE SMOOTH",
"250 262 OFFCURVE",
"243 263 OFFCURVE",
"236 263 CURVE SMOOTH",
"211 263 OFFCURVE",
"181 257 OFFCURVE",
"146 245 CURVE SMOOTH",
"87 225 OFFCURVE",
"49 194 OFFCURVE",
"32 153 CURVE SMOOTH",
"28 142 OFFCURVE",
"26 130 OFFCURVE",
"26 115 CURVE SMOOTH",
"26 72 OFFCURVE",
"41 35 OFFCURVE",
"70 4 CURVE SMOOTH",
"109 -37 OFFCURVE",
"165 -57 OFFCURVE",
"239 -57 CURVE SMOOTH"
);
}
);
width = 756;
}
);
note = F;
unicode = 0046;
},
{
glyphname = G;
lastChange = "2021-08-03 16:45:04 +0000";
layers = (
{
anchors = (
{
name = bottom;
position = "{346, -411}";
},
{
name = top;
position = "{640, 643}";
}
);
layerId = "F7E87FDD-B687-450B-8559-2548A76CA810";
paths = (
{
closed = 1;
nodes = (
"327 -444 OFFCURVE",
"364 -432 OFFCURVE",
"394 -406 CURVE SMOOTH",
"511 -305 OFFCURVE",
"609 -137 OFFCURVE",
"690 100 CURVE",
"704 105 OFFCURVE",
"716 108 OFFCURVE",
"727 108 CURVE SMOOTH",
"746 108 OFFCURVE",
"759 100 OFFCURVE",
"767 85 CURVE SMOOTH",
"773 75 OFFCURVE",
"777 70 OFFCURVE",
"783 70 CURVE SMOOTH",
"786 70 OFFCURVE",
"787 72 OFFCURVE",
"787 77 CURVE SMOOTH",
"787 82 OFFCURVE",
"785 89 OFFCURVE",
"781 96 CURVE SMOOTH",
"771 114 OFFCURVE",
"755 123 OFFCURVE",
"732 123 CURVE SMOOTH",
"721 123 OFFCURVE",
"709 121 OFFCURVE",
"696 117 CURVE",
"777 412 LINE SMOOTH",
"778 417 OFFCURVE",
"769 421 OFFCURVE",
"767 424 CURVE",
"816 464 OFFCURVE",
"840 505 OFFCURVE",
"840 548 CURVE SMOOTH",
"840 611 OFFCURVE",
"795 643 OFFCURVE",
"706 643 CURVE SMOOTH",
"678 643 OFFCURVE",
"647 639 OFFCURVE",
"612 632 CURVE SMOOTH",
"444 595 OFFCURVE",
"313 527 OFFCURVE",
"220 428 CURVE",
"205 452 OFFCURVE",
"195 480 OFFCURVE",
"191 511 CURVE SMOOTH",
"190 524 OFFCURVE",
"186 531 OFFCURVE",
"179 531 CURVE SMOOTH",
"171 531 OFFCURVE",
"167 524 OFFCURVE",
"167 512 CURVE SMOOTH",
"167 507 LINE",
"172 470 OFFCURVE",
"184 437 OFFCURVE",
"203 408 CURVE",
"138 333 OFFCURVE",
"105 254 OFFCURVE",
"105 169 CURVE SMOOTH",
"105 72 OFFCURVE",
"161 1 OFFCURVE",
"234 -12 CURVE SMOOTH",
"249 -15 OFFCURVE",
"263 -16 OFFCURVE",
"278 -16 CURVE SMOOTH",
"349 -16 OFFCURVE",
"422 15 OFFCURVE",
"495 76 CURVE SMOOTH",
"547 119 OFFCURVE",
"597 176 OFFCURVE",
"646 246 CURVE SMOOTH",
"682 298 OFFCURVE",
"701 328 OFFCURVE",
"703 336 CURVE",
"701 322 OFFCURVE",
"693 286 OFFCURVE",
"679 228 CURVE SMOOTH",
"664 168 OFFCURVE",
"653 126 OFFCURVE",
"646 101 CURVE",
"551 54 OFFCURVE",
"454 -31 OFFCURVE",
"355 -154 CURVE SMOOTH",
"281 -245 OFFCURVE",
"244 -320 OFFCURVE",
"244 -379 CURVE SMOOTH",
"244 -422 OFFCURVE",
"263 -444 OFFCURVE",
"300 -444 CURVE SMOOTH"
);
},
{
closed = 1;
nodes = (
"304 -420 OFFCURVE",
"294 -404 OFFCURVE",
"294 -373 CURVE SMOOTH",
"294 -316 OFFCURVE",
"326 -245 OFFCURVE",
"391 -158 CURVE SMOOTH",
"474 -47 OFFCURVE",
"557 33 OFFCURVE",
"640 81 CURVE",
"579 -113 OFFCURVE",
"490 -270 OFFCURVE",
"374 -391 CURVE SMOOTH",
"355 -410 OFFCURVE",
"339 -420 OFFCURVE",
"324 -420 CURVE SMOOTH"
);
},
{
closed = 1;
nodes = (
"198 5 OFFCURVE",
"160 47 OFFCURVE",
"160 130 CURVE SMOOTH",
"160 181 OFFCURVE",
"175 237 OFFCURVE",
"204 297 CURVE SMOOTH",
"215 320 OFFCURVE",
"229 342 OFFCURVE",
"245 363 CURVE",
"291 326 OFFCURVE",
"353 308 OFFCURVE",
"430 308 CURVE SMOOTH",
"511 308 OFFCURVE",
"590 326 OFFCURVE",
"669 363 CURVE",
"630 290 OFFCURVE",
"580 221 OFFCURVE",
"521 154 CURVE SMOOTH",
"448 72 OFFCURVE",
"384 25 OFFCURVE",
"328 12 CURVE SMOOTH",
"308 7 OFFCURVE",
"290 5 OFFCURVE",
"273 5 CURVE SMOOTH"
);
},
{
closed = 1;
nodes = (
"366 334 OFFCURVE",
"306 351 OFFCURVE",
"261 385 CURVE",
"303 437 OFFCURVE",
"353 482 OFFCURVE",
"411 521 CURVE SMOOTH",
"476 565 OFFCURVE",
"543 595 OFFCURVE",
"612 611 CURVE SMOOTH",
"643 618 OFFCURVE",
"670 622 OFFCURVE",
"695 622 CURVE SMOOTH",
"770 622 OFFCURVE",
"807 594 OFFCURVE",
"807 539 CURVE SMOOTH",
"807 504 OFFCURVE",
"789 471 OFFCURVE",
"753 439 CURVE",
"744 444 OFFCURVE",
"735 446 OFFCURVE",
"724 446 CURVE SMOOTH",
"709 446 OFFCURVE",
"701 441 OFFCURVE",
"699 432 CURVE SMOOTH",
"697 423 OFFCURVE",
"692 410 OFFCURVE",
"684 393 CURVE",
"609 354 OFFCURVE",
"528 334 OFFCURVE",
"441 334 CURVE SMOOTH"
);
}
);
width = 811;
}
);
note = G;
unicode = 0047;
},
{
glyphname = H;
lastChange = "2021-08-03 16:22:02 +0000";
layers = (
{
anchors = (
{
name = bottom;
position = "{523, 0}";
},
{
name = center;
position = "{436, 335}";
},
{
name = top;
position = "{833, 636}";
},
{
name = topleft;
position = "{20, 670}";
}
);
layerId = "F7E87FDD-B687-450B-8559-2548A76CA810";
paths = (
{
closed = 1;
nodes = (
"746 -118 OFFCURVE",
"753 -113 OFFCURVE",
"753 -104 CURVE SMOOTH",
"753 -99 OFFCURVE",
"745 -80 OFFCURVE",
"745 -67 CURVE SMOOTH",
"745 -38 OFFCURVE",
"753 7 OFFCURVE",
"770 68 CURVE SMOOTH",
"786 123 OFFCURVE",
"803 173 OFFCURVE",
"821 216 CURVE",
"848 216 OFFCURVE",
"876 216 OFFCURVE",
"904 217 CURVE SMOOTH",
"927 218 OFFCURVE",
"938 222 OFFCURVE",
"938 229 CURVE SMOOTH",
"938 230 OFFCURVE",
"937 231 OFFCURVE",
"934 232 CURVE SMOOTH",
"921 237 OFFCURVE",
"898 239 OFFCURVE",
"865 239 CURVE SMOOTH",
"854 239 OFFCURVE",
"842 239 OFFCURVE",
"828 238 CURVE",
"833 264 OFFCURVE",
"861 326 OFFCURVE",
"914 425 CURVE SMOOTH",
"982 552 OFFCURVE",
"1063 630 OFFCURVE",
"1120 630 CURVE SMOOTH",
"1135 630 OFFCURVE",
"1148 625 OFFCURVE",
"1159 614 CURVE SMOOTH",
"1162 611 OFFCURVE",
"1163 607 OFFCURVE",
"1163 601 CURVE SMOOTH",
"1163 594 OFFCURVE",
"1158 570 OFFCURVE",
"1158 562 CURVE SMOOTH",
"1158 558 OFFCURVE",
"1159 556 OFFCURVE",
"1162 556 CURVE SMOOTH",
"1171 556 OFFCURVE",
"1187 586 OFFCURVE",
"1183 613 CURVE SMOOTH",
"1182 619 OFFCURVE",
"1176 624 OFFCURVE",
"1167 628 CURVE SMOOTH",
"1161 630 OFFCURVE",
"1155 632 OFFCURVE",
"1149 635 CURVE SMOOTH",
"1138 640 OFFCURVE",
"1125 643 OFFCURVE",
"1112 643 CURVE SMOOTH",
"1069 643 OFFCURVE",
"1022 617 OFFCURVE",
"969 564 CURVE SMOOTH",
"921 516 OFFCURVE",
"883 461 OFFCURVE",
"854 399 CURVE SMOOTH",
"809 303 OFFCURVE",
"785 249 OFFCURVE",
"780 236 CURVE",
"698 238 OFFCURVE",
"629 239 OFFCURVE",
"574 239 CURVE SMOOTH",
"522 239 LINE SMOOTH",
"513 239 OFFCURVE",
"499 237 OFFCURVE",
"478 237 CURVE SMOOTH",
"455 237 LINE",
"572 453 LINE SMOOTH",
"623 547 OFFCURVE",
"645 606 OFFCURVE",
"643 625 CURVE SMOOTH",
"638 666 OFFCURVE",
"604 686 OFFCURVE",
"540 686 CURVE SMOOTH",
"462 686 OFFCURVE",
"377 666 OFFCURVE",
"285 625 CURVE SMOOTH",
"158 569 OFFCURVE",
"67 500 OFFCURVE",
"11 419 CURVE SMOOTH",
"-2 399 OFFCURVE",
"-9 378 OFFCURVE",
"-9 355 CURVE SMOOTH",
"-9 314 OFFCURVE",
"9 283 OFFCURVE",
"46 262 CURVE SMOOTH",
"65 251 OFFCURVE",
"90 246 OFFCURVE",
"121 246 CURVE SMOOTH",
"154 246 OFFCURVE",
"172 250 OFFCURVE",
"176 258 CURVE SMOOTH",
"178 261 OFFCURVE",
"179 264 OFFCURVE",
"179 266 CURVE SMOOTH",
"179 268 OFFCURVE",
"177 269 OFFCURVE",
"174 269 CURVE SMOOTH",
"171 269 OFFCURVE",
"148 265 OFFCURVE",
"133 265 CURVE SMOOTH",
"106 265 OFFCURVE",
"80 274 OFFCURVE",
"56 291 CURVE SMOOTH",
"38 304 OFFCURVE",
"29 321 OFFCURVE",
"29 342 CURVE SMOOTH",
"29 382 OFFCURVE",
"57 429 OFFCURVE",
"112 484 CURVE SMOOTH",
"164 535 OFFCURVE",
"217 572 OFFCURVE",
"272 594 CURVE SMOOTH",
"375 636 OFFCURVE",
"449 657 OFFCURVE",
"492 657 CURVE SMOOTH",
"519 657 OFFCURVE",
"542 650 OFFCURVE",
"562 636 CURVE SMOOTH",
"574 628 OFFCURVE",
"580 614 OFFCURVE",
"580 594 CURVE SMOOTH",
"580 559 OFFCURVE",
"560 503 OFFCURVE",
"520 426 CURVE SMOOTH",
"511 409 OFFCURVE",
"475 347 OFFCURVE",
"413 241 CURVE",
"389 236 OFFCURVE",
"366 233 OFFCURVE",
"344 230 CURVE SMOOTH",
"323 225 OFFCURVE",
"313 219 OFFCURVE",
"313 211 CURVE SMOOTH",
"313 204 OFFCURVE",
"319 196 OFFCURVE",
"331 189 CURVE SMOOTH",
"340 184 OFFCURVE",
"345 182 OFFCURVE",
"348 182 CURVE SMOOTH",
"349 182 OFFCURVE",
"350 183 OFFCURVE",
"350 184 CURVE SMOOTH",
"350 185 OFFCURVE",
"349 186 OFFCURVE",
"348 187 CURVE SMOOTH",
"343 191 OFFCURVE",
"358 196 OFFCURVE",
"391 201 CURVE",
"328 92 OFFCURVE",
"297 23 OFFCURVE",
"297 -4 CURVE SMOOTH",
"297 -13 OFFCURVE",
"304 -17 OFFCURVE",
"317 -17 CURVE SMOOTH",
"338 -17 OFFCURVE",
"350 -8 OFFCURVE",
"353 10 CURVE",
"364 47 OFFCURVE",
"377 78 OFFCURVE",
"391 105 CURVE SMOOTH",
"424 170 LINE SMOOTH",
"435 192 OFFCURVE",
"443 207 OFFCURVE",
"450 212 CURVE SMOOTH",
"457 217 OFFCURVE",
"512 220 OFFCURVE",
"615 221 CURVE SMOOTH",
"682 221 LINE SMOOTH",
"739 221 OFFCURVE",
"769 220 OFFCURVE",
"772 218 CURVE",
"769 215 OFFCURVE",
"760 191 OFFCURVE",
"744 147 CURVE SMOOTH",
"727 99 OFFCURVE",
"715 60 OFFCURVE",
"708 31 CURVE SMOOTH",
"696 -20 OFFCURVE",
"690 -53 OFFCURVE",
"690 -69 CURVE SMOOTH",
"690 -94 OFFCURVE",
"699 -110 OFFCURVE",
"716 -115 CURVE SMOOTH",
"722 -117 OFFCURVE",
"728 -118 OFFCURVE",
"733 -118 CURVE SMOOTH"
);
}
);
width = 871;
}
);
note = H;
unicode = 0048;
},
{
glyphname = I;
lastChange = "2021-08-03 00:54:19 +0000";
layers = (
{
anchors = (
{
name = bottom;
position = "{156, -48}";
},
{
name = ogonek;
position = "{211, -37}";
},
{
name = top;
position = "{607, 646}";
},
{
name = topleft;
position = "{20, 670}";
}
);
layerId = "F7E87FDD-B687-450B-8559-2548A76CA810";
paths = (
{
closed = 1;
nodes = (
"398 -47 OFFCURVE",
"560 184 OFFCURVE",
"629 438 CURVE SMOOTH",
"649 512 OFFCURVE",
"659 565 OFFCURVE",
"659 602 CURVE SMOOTH",
"659 633 OFFCURVE",
"652 642 OFFCURVE",
"616 642 CURVE SMOOTH",
"567 642 OFFCURVE",
"502 607 OFFCURVE",
"423 536 CURVE SMOOTH",
"377 495 OFFCURVE",
"354 457 OFFCURVE",
"354 422 CURVE SMOOTH",
"354 383 OFFCURVE",
"388 363 OFFCURVE",
"428 363 CURVE SMOOTH",
"447 363 OFFCURVE",
"466 365 OFFCURVE",
"485 370 CURVE SMOOTH",
"504 375 OFFCURVE",
"514 380 OFFCURVE",
"514 384 CURVE SMOOTH",
"514 387 OFFCURVE",
"511 388 OFFCURVE",
"505 388 CURVE SMOOTH",
"494 388 OFFCURVE",
"475 379 OFFCURVE",
"463 379 CURVE SMOOTH",
"450 379 OFFCURVE",
"435 384 OFFCURVE",
"419 395 CURVE SMOOTH",
"405 404 OFFCURVE",
"398 416 OFFCURVE",
"398 433 CURVE SMOOTH",
"398 451 OFFCURVE",
"406 473 OFFCURVE",
"423 498 CURVE SMOOTH",
"436 518 OFFCURVE",
"450 535 OFFCURVE",
"465 548 CURVE SMOOTH",
"497 577 OFFCURVE",
"526 599 OFFCURVE",
"551 612 CURVE SMOOTH",
"570 623 OFFCURVE",
"583 627 OFFCURVE",
"589 625 CURVE SMOOTH",
"593 624 OFFCURVE",
"595 613 OFFCURVE",
"595 593 CURVE SMOOTH",
"595 546 OFFCURVE",
"587 486 OFFCURVE",
"572 414 CURVE SMOOTH",
"524 196 OFFCURVE",
"379 -32 OFFCURVE",
"206 -32 CURVE SMOOTH",
"131 -32 OFFCURVE",
"79 20 OFFCURVE",
"79 93 CURVE SMOOTH",
"79 168 OFFCURVE",
"124 220 OFFCURVE",
"210 231 CURVE SMOOTH",
"221 232 OFFCURVE",
"227 235 OFFCURVE",
"227 240 CURVE SMOOTH",
"227 246 OFFCURVE",
"218 248 OFFCURVE",
"201 248 CURVE SMOOTH",
"176 248 OFFCURVE",
"150 242 OFFCURVE",
"124 230 CURVE SMOOTH",
"83 211 OFFCURVE",
"49 180 OFFCURVE",
"35 137 CURVE SMOOTH",
"30 122 OFFCURVE",
"27 106 OFFCURVE",
"27 91 CURVE SMOOTH",
"27 9 OFFCURVE",
"102 -47 OFFCURVE",
"197 -47 CURVE SMOOTH"
);
}
);
width = 522;
}
);
note = I;
unicode = 0049;
},
{
glyphname = J;
lastChange = "2021-08-03 16:22:02 +0000";
layers = (
{
anchors = (
{
name = bottom;
position = "{33, -142}";
},
{
name = top;
position = "{539, 623}";
}
);
layerId = "F7E87FDD-B687-450B-8559-2548A76CA810";
paths = (
{
closed = 1;
nodes = (
"230 -142 OFFCURVE",
"352 34 OFFCURVE",
"446 258 CURVE SMOOTH",
"486 353 OFFCURVE",
"527 489 OFFCURVE",
"556 561 CURVE",
"594 568 OFFCURVE",
"625 572 OFFCURVE",
"640 572 CURVE SMOOTH",
"649 572 OFFCURVE",
"680 574 OFFCURVE",
"692 574 CURVE SMOOTH",
"718 574 OFFCURVE",
"732 568 OFFCURVE",
"734 556 CURVE SMOOTH",
"735 552 OFFCURVE",
"738 552 OFFCURVE",
"743 555 CURVE SMOOTH",
"749 559 OFFCURVE",
"752 564 OFFCURVE",
"752 569 CURVE SMOOTH",
"751 575 OFFCURVE",
"747 580 OFFCURVE",
"738 584 CURVE SMOOTH",
"725 590 OFFCURVE",
"670 593 OFFCURVE",
"573 593 CURVE",
"553 613 OFFCURVE",
"539 623 OFFCURVE",
"531 623 CURVE SMOOTH",
"526 623 OFFCURVE",
"520 617 OFFCURVE",
"514 605 CURVE SMOOTH",
"506 588 LINE",
"503 587 OFFCURVE",
"478 584 OFFCURVE",
"431 578 CURVE SMOOTH",
"394 573 OFFCURVE",
"368 569 OFFCURVE",
"353 564 CURVE SMOOTH",
"346 562 OFFCURVE",
"342 561 OFFCURVE",
"339 561 CURVE SMOOTH",
"337 561 OFFCURVE",
"336 562 OFFCURVE",
"335 563 CURVE",
"335 564 OFFCURVE",
"341 570 OFFCURVE",
"341 573 CURVE",
"340 574 LINE SMOOTH",
"338 575 OFFCURVE",
"336 575 OFFCURVE",
"334 575 CURVE SMOOTH",
"321 575 OFFCURVE",
"306 560 OFFCURVE",
"306 547 CURVE SMOOTH",
"306 540 OFFCURVE",
"310 535 OFFCURVE",
"317 532 CURVE SMOOTH",
"320 530 OFFCURVE",
"347 534 OFFCURVE",
"398 543 CURVE SMOOTH",
"453 554 OFFCURVE",
"484 559 OFFCURVE",
"493 559 CURVE SMOOTH",
"496 559 OFFCURVE",
"488 519 OFFCURVE",
"459 438 CURVE SMOOTH",
"371 194 OFFCURVE",
"252 -119 OFFCURVE",
"54 -119 CURVE SMOOTH",
"-2 -119 OFFCURVE",
"-24 -89 OFFCURVE",
"-24 -50 CURVE SMOOTH",
"-24 2 OFFCURVE",
"15 70 OFFCURVE",
"65 105 CURVE SMOOTH",
"68 107 OFFCURVE",
"70 110 OFFCURVE",
"70 113 CURVE SMOOTH",
"70 116 OFFCURVE",
"68 119 OFFCURVE",
"62 119 CURVE SMOOTH",
"58 119 OFFCURVE",
"52 118 OFFCURVE",
"44 115 CURVE SMOOTH",
"-33 83 OFFCURVE",
"-72 24 OFFCURVE",
"-72 -33 CURVE SMOOTH",
"-72 -92 OFFCURVE",
"-24 -142 OFFCURVE",
"33 -142 CURVE SMOOTH"
);
}
);
width = 483;
}
);
note = J;
unicode = 004A;
},
{
glyphname = K;
lastChange = "2021-08-03 16:22:02 +0000";
layers = (
{
anchors = (
{
name = bottom;
position = "{520, -48}";
},
{
name = top;
position = "{832, 629}";
}
);
layerId = "F7E87FDD-B687-450B-8559-2548A76CA810";
paths = (
{
closed = 1;
nodes = (
"326 -35 OFFCURVE",
"341 -28 OFFCURVE",
"342 -15 CURVE SMOOTH",
"342 -9 OFFCURVE",
"328 4 OFFCURVE",
"328 11 CURVE SMOOTH",
"328 13 LINE",
"369 94 OFFCURVE",
"444 216 OFFCURVE",
"555 380 CURVE SMOOTH",
"641 507 OFFCURVE",
"681 579 OFFCURVE",
"675 594 CURVE SMOOTH",
"661 629 OFFCURVE",
"626 647 OFFCURVE",
"571 647 CURVE SMOOTH",
"524 647 OFFCURVE",
"445 628 OFFCURVE",
"336 591 CURVE SMOOTH",
"279 572 OFFCURVE",
"224 544 OFFCURVE",
"171 507 CURVE SMOOTH",
"124 475 OFFCURVE",
"90 445 OFFCURVE",
"68 417 CURVE SMOOTH",
"40 381 OFFCURVE",
"26 344 OFFCURVE",
"26 305 CURVE SMOOTH",
"26 277 OFFCURVE",
"35 257 OFFCURVE",
"54 244 CURVE SMOOTH",
"77 228 OFFCURVE",
"101 220 OFFCURVE",
"125 220 CURVE SMOOTH",
"152 220 OFFCURVE",
"170 226 OFFCURVE",
"177 239 CURVE SMOOTH",
"180 244 OFFCURVE",
"168 248 OFFCURVE",
"143 251 CURVE SMOOTH",
"82 258 OFFCURVE",
"70 289 OFFCURVE",
"70 322 CURVE SMOOTH",
"70 363 OFFCURVE",
"96 407 OFFCURVE",
"149 456 CURVE SMOOTH",
"197 499 OFFCURVE",
"253 535 OFFCURVE",
"318 563 CURVE SMOOTH",
"423 608 OFFCURVE",
"501 630 OFFCURVE",
"552 630 CURVE SMOOTH",
"575 630 OFFCURVE",
"596 626 OFFCURVE",
"614 618 CURVE SMOOTH",
"620 615 OFFCURVE",
"623 610 OFFCURVE",
"623 601 CURVE SMOOTH",
"623 576 OFFCURVE",
"597 522 OFFCURVE",
"544 441 CURVE SMOOTH",
"533 424 OFFCURVE",
"485 353 OFFCURVE",
"400 229 CURVE SMOOTH",
"371 186 OFFCURVE",
"342 140 OFFCURVE",
"315 91 CURVE SMOOTH",
"284 36 OFFCURVE",
"267 -2 OFFCURVE",
"262 -23 CURVE SMOOTH",
"260 -31 OFFCURVE",
"271 -35 OFFCURVE",
"296 -35 CURVE SMOOTH"
);
},
{
closed = 1;
nodes = (
"924 -137 OFFCURVE",
"943 -123 OFFCURVE",
"960 -112 CURVE SMOOTH",
"980 -101 OFFCURVE",
"990 -90 OFFCURVE",
"990 -80 CURVE SMOOTH",
"990 -76 OFFCURVE",
"987 -74 OFFCURVE",
"981 -74 CURVE SMOOTH",
"977 -74 LINE SMOOTH",
"974 -74 OFFCURVE",
"955 -88 OFFCURVE",
"939 -88 CURVE SMOOTH",
"902 -88 OFFCURVE",
"843 -43 OFFCURVE",
"762 47 CURVE SMOOTH",
"717 98 OFFCURVE",
"676 150 OFFCURVE",
"639 204 CURVE SMOOTH",
"602 258 OFFCURVE",
"584 293 OFFCURVE",
"584 309 CURVE SMOOTH",
"584 312 OFFCURVE",
"585 315 OFFCURVE",
"587 316 CURVE SMOOTH",
"808 475 OFFCURVE",
"982 564 OFFCURVE",
"1107 583 CURVE SMOOTH",
"1118 584 OFFCURVE",
"1123 588 OFFCURVE",
"1123 594 CURVE SMOOTH",
"1123 602 OFFCURVE",
"1115 607 OFFCURVE",
"1100 607 CURVE SMOOTH",
"1096 607 LINE SMOOTH",
"1039 605 OFFCURVE",
"964 579 OFFCURVE",
"873 530 CURVE SMOOTH",
"808 495 OFFCURVE",
"742 457 OFFCURVE",
"677 416 CURVE SMOOTH",
"598 368 OFFCURVE",
"552 335 OFFCURVE",
"537 318 CURVE SMOOTH",
"534 315 OFFCURVE",
"533 310 OFFCURVE",
"533 303 CURVE SMOOTH",
"533 264 OFFCURVE",
"583 186 OFFCURVE",
"683 69 CURVE SMOOTH",
"777 -40 OFFCURVE",
"843 -106 OFFCURVE",
"882 -129 CURVE SMOOTH",
"891 -134 OFFCURVE",
"900 -137 OFFCURVE",
"909 -137 CURVE SMOOTH"
);
}
);
width = 797;
}
);
note = K;
unicode = 004B;
},
{
glyphname = L;
lastChange = "2021-08-03 00:54:19 +0000";
layers = (
{
anchors = (
{
name = bottom;
position = "{347, -127}";
},
{
name = center;
position = "{347, 335}";
},
{
name = top;
position = "{739, 675}";
},
{
name = topright;
position = "{892, 670}";
}
);
layerId = "F7E87FDD-B687-450B-8559-2548A76CA810";
paths = (
{
closed = 1;
nodes = (
"596 -114 OFFCURVE",
"645 -104 OFFCURVE",
"688 -84 CURVE SMOOTH",
"729 -65 OFFCURVE",
"753 -44 OFFCURVE",
"762 -19 CURVE SMOOTH",
"764 -14 OFFCURVE",
"765 -9 OFFCURVE",
"765 -5 CURVE SMOOTH",
"765 6 OFFCURVE",
"760 12 OFFCURVE",
"749 12 CURVE SMOOTH",
"734 12 OFFCURVE",
"722 1 OFFCURVE",
"711 -21 CURVE SMOOTH",
"702 -40 OFFCURVE",
"679 -56 OFFCURVE",
"640 -69 CURVE SMOOTH",
"602 -82 OFFCURVE",
"563 -89 OFFCURVE",
"522 -89 CURVE SMOOTH",
"440 -89 OFFCURVE",
"364 -49 OFFCURVE",
"294 30 CURVE",
"329 65 OFFCURVE",
"372 117 OFFCURVE",
"424 186 CURVE",
"445 171 OFFCURVE",
"469 164 OFFCURVE",
"497 164 CURVE SMOOTH",
"540 164 OFFCURVE",
"584 181 OFFCURVE",
"630 214 CURVE SMOOTH",
"682 251 OFFCURVE",
"731 307 OFFCURVE",
"777 380 CURVE SMOOTH",
"812 435 OFFCURVE",
"829 491 OFFCURVE",
"829 546 CURVE SMOOTH",
"829 622 OFFCURVE",
"792 675 OFFCURVE",
"739 675 CURVE SMOOTH",
"712 675 OFFCURVE",
"684 662 OFFCURVE",
"655 637 CURVE SMOOTH",
"650 633 OFFCURVE",
"648 629 OFFCURVE",
"648 624 CURVE SMOOTH",
"648 618 OFFCURVE",
"651 615 OFFCURVE",
"657 615 CURVE SMOOTH",
"662 615 OFFCURVE",
"666 617 OFFCURVE",
"671 622 CURVE SMOOTH",
"695 644 OFFCURVE",
"716 655 OFFCURVE",
"735 655 CURVE SMOOTH",
"770 655 OFFCURVE",
"788 624 OFFCURVE",
"788 563 CURVE SMOOTH",
"788 503 OFFCURVE",
"770 444 OFFCURVE",
"734 387 CURVE SMOOTH",
"694 324 OFFCURVE",
"651 276 OFFCURVE",
"606 244 CURVE SMOOTH",
"566 215 OFFCURVE",
"527 200 OFFCURVE",
"490 200 CURVE SMOOTH",
"473 200 OFFCURVE",
"457 204 OFFCURVE",
"442 211 CURVE",
"512 310 OFFCURVE",
"569 400 OFFCURVE",
"613 481 CURVE SMOOTH",
"630 512 OFFCURVE",
"638 535 OFFCURVE",
"638 548 CURVE SMOOTH",
"638 557 OFFCURVE",
"635 561 OFFCURVE",
"629 561 CURVE SMOOTH",
"618 561 OFFCURVE",
"604 550 OFFCURVE",
"586 529 CURVE SMOOTH",
"566 505 OFFCURVE",
"551 478 OFFCURVE",
"540 447 CURVE SMOOTH",
"522 394 OFFCURVE",
"482 321 OFFCURVE",
"421 226 CURVE",
"399 246 OFFCURVE",
"388 273 OFFCURVE",
"388 308 CURVE SMOOTH",
"388 329 OFFCURVE",
"392 351 OFFCURVE",
"401 374 CURVE SMOOTH",
"403 381 OFFCURVE",
"405 387 OFFCURVE",
"405 391 CURVE SMOOTH",
"405 396 OFFCURVE",
"402 399 OFFCURVE",
"397 399 CURVE SMOOTH",
"394 399 OFFCURVE",
"390 395 OFFCURVE",
"387 387 CURVE SMOOTH",
"376 358 OFFCURVE",
"370 329 OFFCURVE",
"370 302 CURVE SMOOTH",
"370 261 OFFCURVE",
"382 228 OFFCURVE",
"406 202 CURVE",
"363 139 OFFCURVE",
"321 87 OFFCURVE",
"280 46 CURVE",
"228 107 OFFCURVE",
"187 175 OFFCURVE",
"158 250 CURVE",
"143 302 LINE SMOOTH",
"138 319 OFFCURVE",
"133 327 OFFCURVE",
"126 327 CURVE SMOOTH",
"119 327 OFFCURVE",
"110 320 OFFCURVE",
"98 307 CURVE SMOOTH",
"82 290 OFFCURVE",
"68 261 OFFCURVE",
"57 222 CURVE SMOOTH",
"46 183 OFFCURVE",
"41 143 OFFCURVE",
"41 103 CURVE SMOOTH",
"41 56 OFFCURVE",
"49 18 OFFCURVE",
"65 -11 CURVE SMOOTH",
"84 -44 OFFCURVE",
"111 -60 OFFCURVE",
"148 -60 CURVE SMOOTH",
"181 -60 OFFCURVE",
"222 -37 OFFCURVE",
"271 8 CURVE",
"329 -51 OFFCURVE",
"389 -88 OFFCURVE",
"450 -103 CURVE SMOOTH",
"480 -110 OFFCURVE",
"511 -114 OFFCURVE",
"542 -114 CURVE SMOOTH"
);
},
{
closed = 1;
nodes = (
"125 -28 OFFCURVE",
"106 -14 OFFCURVE",
"93 15 CURVE SMOOTH",
"84 34 OFFCURVE",
"80 54 OFFCURVE",
"80 76 CURVE SMOOTH",
"80 82 OFFCURVE",
"80 88 OFFCURVE",
"81 94 CURVE SMOOTH",
"84 122 OFFCURVE",
"88 148 OFFCURVE",
"95 173 CURVE SMOOTH",
"103 200 OFFCURVE",
"112 214 OFFCURVE",
"121 214 CURVE SMOOTH",
"126 214 OFFCURVE",
"131 209 OFFCURVE",
"136 199 CURVE SMOOTH",
"167 136 OFFCURVE",
"207 77 OFFCURVE",
"256 24 CURVE",
"216 -11 OFFCURVE",
"181 -28 OFFCURVE",
"151 -28 CURVE SMOOTH"
);
}
);
width = 693;
}
);
note = L;
unicode = 004C;
},
{
glyphname = M;
lastChange = "2021-08-03 16:22:02 +0000";
layers = (
{
layerId = "F7E87FDD-B687-450B-8559-2548A76CA810";
paths = (
{
closed = 1;
nodes = (
"1022 -163 OFFCURVE",
"1042 -157 OFFCURVE",
"1063 -145 CURVE SMOOTH",
"1082 -135 OFFCURVE",
"1092 -127 OFFCURVE",
"1092 -120 CURVE SMOOTH",
"1092 -118 OFFCURVE",
"1090 -117 OFFCURVE",
"1087 -117 CURVE SMOOTH",
"1084 -117 OFFCURVE",
"1081 -118 OFFCURVE",
"1076 -119 CURVE SMOOTH",
"1049 -128 OFFCURVE",
"1027 -135 OFFCURVE",
"1009 -135 CURVE SMOOTH",
"982 -135 OFFCURVE",
"968 -116 OFFCURVE",
"968 -47 CURVE SMOOTH",
"968 30 OFFCURVE",
"995 116 OFFCURVE",
"1041 243 CURVE SMOOTH",
"1090 378 OFFCURVE",
"1146 486 OFFCURVE",
"1210 567 CURVE SMOOTH",
"1227 588 OFFCURVE",
"1236 606 OFFCURVE",
"1236 620 CURVE SMOOTH",
"1236 639 OFFCURVE",
"1221 648 OFFCURVE",
"1191 648 CURVE SMOOTH",
"1156 648 OFFCURVE",
"1126 639 OFFCURVE",
"1102 621 CURVE SMOOTH",
"1044 578 OFFCURVE",
"968 499 OFFCURVE",
"875 384 CURVE SMOOTH",
"852 357 OFFCURVE",
"813 299 OFFCURVE",
"758 211 CURVE SMOOTH",
"709 134 OFFCURVE",
"683 96 OFFCURVE",
"680 96 CURVE SMOOTH",
"679 96 OFFCURVE",
"679 96 OFFCURVE",
"679 97 CURVE SMOOTH",
"679 99 OFFCURVE",
"680 102 OFFCURVE",
"681 105 CURVE SMOOTH",
"739 261 OFFCURVE",
"785 379 OFFCURVE",
"818 460 CURVE",
"821 471 OFFCURVE",
"822 481 OFFCURVE",
"822 490 CURVE SMOOTH",
"822 518 OFFCURVE",
"808 532 OFFCURVE",
"781 532 CURVE SMOOTH",
"763 532 OFFCURVE",
"745 527 OFFCURVE",
"727 517 CURVE SMOOTH",
"696 500 OFFCURVE",
"651 463 OFFCURVE",
"591 405 CURVE SMOOTH",
"526 342 OFFCURVE",
"477 284 OFFCURVE",
"443 233 CURVE SMOOTH",
"374 130 OFFCURVE",
"340 79 OFFCURVE",
"339 81 CURVE",
"382 168 OFFCURVE",
"418 251 OFFCURVE",
"460 338 CURVE SMOOTH",
"519 461 OFFCURVE",
"554 549 OFFCURVE",
"554 592 CURVE SMOOTH",
"554 634 OFFCURVE",
"525 656 OFFCURVE",
"468 656 CURVE SMOOTH",
"347 656 OFFCURVE",
"163 582 OFFCURVE",
"69 509 CURVE SMOOTH",
"28 477 OFFCURVE",
"-1 446 OFFCURVE",
"-18 417 CURVE SMOOTH",
"-37 384 OFFCURVE",
"-47 352 OFFCURVE",
"-47 322 CURVE SMOOTH",
"-47 283 OFFCURVE",
"-30 257 OFFCURVE",
"5 244 CURVE SMOOTH",
"34 233 OFFCURVE",
"66 227 OFFCURVE",
"101 227 CURVE SMOOTH",
"154 227 OFFCURVE",
"209 248 OFFCURVE",
"209 264 CURVE SMOOTH",
"209 266 OFFCURVE",
"208 267 OFFCURVE",
"205 267 CURVE SMOOTH",
"203 267 OFFCURVE",
"201 267 OFFCURVE",
"199 266 CURVE",
"168 258 OFFCURVE",
"137 254 OFFCURVE",
"109 254 CURVE SMOOTH",
"71 254 OFFCURVE",
"38 262 OFFCURVE",
"22 275 CURVE SMOOTH",
"2 291 OFFCURVE",
"-3 312 OFFCURVE",
"-3 337 CURVE SMOOTH",
"-3 374 OFFCURVE",
"19 416 OFFCURVE",
"63 462 CURVE SMOOTH",
"104 505 OFFCURVE",
"151 538 OFFCURVE",
"204 563 CURVE SMOOTH",
"292 604 OFFCURVE",
"369 625 OFFCURVE",
"436 625 CURVE SMOOTH",
"479 625 OFFCURVE",
"496 619 OFFCURVE",
"496 580 CURVE SMOOTH",
"496 546 OFFCURVE",
"479 490 OFFCURVE",
"452 425 CURVE SMOOTH",
"443 404 OFFCURVE",
"414 343 OFFCURVE",
"366 244 CURVE SMOOTH",
"301 109 OFFCURVE",
"268 20 OFFCURVE",
"268 -23 CURVE SMOOTH",
"268 -30 OFFCURVE",
"273 -34 OFFCURVE",
"284 -34 CURVE SMOOTH",
"304 -34 OFFCURVE",
"326 -21 OFFCURVE",
"329 -2 CURVE SMOOTH",
"339 59 OFFCURVE",
"400 156 OFFCURVE",
"511 288 CURVE SMOOTH",
"623 421 OFFCURVE",
"703 487 OFFCURVE",
"752 487 CURVE SMOOTH",
"765 487 OFFCURVE",
"772 483 OFFCURVE",
"772 474 CURVE SMOOTH",
"772 462 OFFCURVE",
"747 396 OFFCURVE",
"697 276 CURVE SMOOTH",
"644 151 OFFCURVE",
"615 60 OFFCURVE",
"608 3 CURVE SMOOTH",
"605 -16 OFFCURVE",
"627 -33 OFFCURVE",
"650 -36 CURVE",
"657 -36 OFFCURVE",
"667 -22 OFFCURVE",
"678 5 CURVE SMOOTH",
"695 45 OFFCURVE",
"704 66 OFFCURVE",
"705 67 CURVE",
"750 146 OFFCURVE",
"784 204 OFFCURVE",
"808 240 CURVE SMOOTH",
"827 269 OFFCURVE",
"862 315 OFFCURVE",
"913 380 CURVE SMOOTH",
"950 427 OFFCURVE",
"997 482 OFFCURVE",
"1051 529 CURVE SMOOTH",
"1100 572 OFFCURVE",
"1131 594 OFFCURVE",
"1144 594 CURVE SMOOTH",
"1147 594 OFFCURVE",
"1149 592 OFFCURVE",
"1149 587 CURVE SMOOTH",
"1149 583 OFFCURVE",
"1147 576 OFFCURVE",
"1142 568 CURVE SMOOTH",
"1035 373 OFFCURVE",
"927 151 OFFCURVE",
"927 -19 CURVE SMOOTH",
"927 -38 OFFCURVE",
"928 -58 OFFCURVE",
"930 -77 CURVE SMOOTH",
"936 -134 OFFCURVE",
"960 -163 OFFCURVE",
"1003 -163 CURVE SMOOTH"
);
}
);
width = 1067;
}
);
note = M;
unicode = 004D;
},
{
glyphname = N;
lastChange = "2021-08-03 16:22:02 +0000";
layers = (
{
anchors = (
{
name = bottom;
position = "{558, -48}";
},
{
name = top;
position = "{892, 560}";
}
);
layerId = "F7E87FDD-B687-450B-8559-2548A76CA810";
paths = (
{
closed = 1;
nodes = (
"827 -144 OFFCURVE",
"850 -137 OFFCURVE",
"877 -123 CURVE SMOOTH",
"904 -109 OFFCURVE",
"913 -102 OFFCURVE",
"903 -102 CURVE SMOOTH",
"901 -102 OFFCURVE",
"898 -102 OFFCURVE",
"895 -103 CURVE SMOOTH",
"867 -112 OFFCURVE",
"847 -118 OFFCURVE",
"834 -123 CURVE",
"813 -126 OFFCURVE",
"803 -102 OFFCURVE",
"803 -51 CURVE SMOOTH",
"803 16 OFFCURVE",
"818 101 OFFCURVE",
"849 202 CURVE SMOOTH",
"883 314 OFFCURVE",
"925 408 OFFCURVE",
"975 484 CURVE SMOOTH",
"978 488 OFFCURVE",
"979 492 OFFCURVE",
"979 497 CURVE SMOOTH",
"979 526 OFFCURVE",
"940 560 OFFCURVE",
"892 560 CURVE SMOOTH",
"882 560 OFFCURVE",
"872 559 OFFCURVE",
"862 556 CURVE SMOOTH",
"829 547 OFFCURVE",
"768 505 OFFCURVE",
"679 428 CURVE SMOOTH",
"587 349 OFFCURVE",
"524 283 OFFCURVE",
"490 231 CURVE SMOOTH",
"423 129 OFFCURVE",
"389 79 OFFCURVE",
"388 81 CURVE",
"514 341 LINE SMOOTH",
"575 467 OFFCURVE",
"604 545 OFFCURVE",
"604 576 CURVE SMOOTH",
"604 581 OFFCURVE",
"603 585 OFFCURVE",
"602 588 CURVE",
"578 627 OFFCURVE",
"534 647 OFFCURVE",
"471 647 CURVE SMOOTH",
"408 647 OFFCURVE",
"343 632 OFFCURVE",
"275 601 CURVE SMOOTH",
"221 577 OFFCURVE",
"171 546 OFFCURVE",
"125 508 CURVE SMOOTH",
"82 473 OFFCURVE",
"52 442 OFFCURVE",
"35 413 CURVE SMOOTH",
"16 381 OFFCURVE",
"7 350 OFFCURVE",
"7 320 CURVE SMOOTH",
"7 280 OFFCURVE",
"24 254 OFFCURVE",
"59 241 CURVE SMOOTH",
"78 234 OFFCURVE",
"97 231 OFFCURVE",
"116 231 CURVE SMOOTH",
"133 231 OFFCURVE",
"161 239 OFFCURVE",
"201 254 CURVE",
"187 252 LINE SMOOTH",
"176 250 OFFCURVE",
"165 249 OFFCURVE",
"154 249 CURVE SMOOTH",
"94 249 OFFCURVE",
"50 286 OFFCURVE",
"50 335 CURVE SMOOTH",
"50 373 OFFCURVE",
"71 415 OFFCURVE",
"114 461 CURVE SMOOTH",
"153 504 OFFCURVE",
"199 538 OFFCURVE",
"251 563 CURVE SMOOTH",
"344 607 OFFCURVE",
"416 629 OFFCURVE",
"468 629 CURVE SMOOTH",
"527 629 OFFCURVE",
"556 611 OFFCURVE",
"556 576 CURVE SMOOTH",
"556 544 OFFCURVE",
"540 489 OFFCURVE",
"502 414 CURVE SMOOTH",
"407 224 LINE SMOOTH",
"344 99 OFFCURVE",
"316 16 OFFCURVE",
"316 -22 CURVE SMOOTH",
"316 -29 OFFCURVE",
"328 -33 OFFCURVE",
"353 -33 CURVE SMOOTH",
"381 -33 OFFCURVE",
"395 -29 OFFCURVE",
"395 -20 CURVE",
"401 -15 OFFCURVE",
"380 -9 OFFCURVE",
"378 -2 CURVE",
"449 133 OFFCURVE",
"530 248 OFFCURVE",
"621 344 CURVE SMOOTH",
"695 423 OFFCURVE",
"764 478 OFFCURVE",
"827 509 CURVE SMOOTH",
"856 524 OFFCURVE",
"878 531 OFFCURVE",
"893 531 CURVE SMOOTH",
"907 531 OFFCURVE",
"914 524 OFFCURVE",
"914 510 CURVE SMOOTH",
"914 506 OFFCURVE",
"913 502 OFFCURVE",
"912 497 CURVE",
"877 401 OFFCURVE",
"843 305 OFFCURVE",
"809 210 CURVE SMOOTH",
"768 93 OFFCURVE",
"748 5 OFFCURVE",
"748 -52 CURVE SMOOTH",
"748 -97 OFFCURVE",
"762 -126 OFFCURVE",
"789 -140 CURVE SMOOTH",
"794 -143 OFFCURVE",
"800 -144 OFFCURVE",
"808 -144 CURVE SMOOTH"
);
}
);
width = 857;
}
);
note = N;
unicode = 004E;
},
{
glyphname = Eng;
lastChange = "2021-08-03 00:54:19 +0000";
layers = (
{
layerId = "F7E87FDD-B687-450B-8559-2548A76CA810";
paths = (
{
closed = 1;
nodes = (
"519 -389 OFFCURVE",
"628 -255 OFFCURVE",
"708 -115 CURVE SMOOTH",
"788 24 OFFCURVE",
"895 342 OFFCURVE",
"975 484 CURVE SMOOTH",
"977 488 OFFCURVE",
"979 492 OFFCURVE",
"979 497 CURVE SMOOTH",
"979 526 OFFCURVE",
"940 560 OFFCURVE",
"892 560 CURVE SMOOTH",
"882 560 OFFCURVE",
"872 559 OFFCURVE",
"862 556 CURVE SMOOTH",
"829 547 OFFCURVE",
"768 505 OFFCURVE",
"679 428 CURVE SMOOTH",
"587 349 OFFCURVE",
"524 283 OFFCURVE",
"490 231 CURVE SMOOTH",
"423 129 OFFCURVE",
"389 79 OFFCURVE",
"388 81 CURVE",
"514 341 LINE SMOOTH",
"574 467 OFFCURVE",
"604 545 OFFCURVE",
"604 576 CURVE SMOOTH",
"604 581 OFFCURVE",
"603 585 OFFCURVE",
"602 588 CURVE",
"578 627 OFFCURVE",
"534 647 OFFCURVE",
"471 647 CURVE SMOOTH",
"408 647 OFFCURVE",
"343 632 OFFCURVE",
"275 601 CURVE SMOOTH",
"221 577 OFFCURVE",
"171 546 OFFCURVE",
"125 508 CURVE SMOOTH",
"82 473 OFFCURVE",
"52 442 OFFCURVE",
"35 413 CURVE SMOOTH",
"16 381 OFFCURVE",
"7 350 OFFCURVE",
"7 320 CURVE SMOOTH",
"7 280 OFFCURVE",
"24 254 OFFCURVE",
"59 241 CURVE SMOOTH",
"78 234 OFFCURVE",
"97 231 OFFCURVE",
"116 231 CURVE SMOOTH",
"133 231 OFFCURVE",
"161 239 OFFCURVE",
"201 254 CURVE",
"187 252 LINE SMOOTH",
"176 250 OFFCURVE",
"165 249 OFFCURVE",
"154 249 CURVE SMOOTH",
"94 249 OFFCURVE",
"50 286 OFFCURVE",
"50 335 CURVE SMOOTH",
"50 373 OFFCURVE",
"71 415 OFFCURVE",
"114 461 CURVE SMOOTH",
"153 504 OFFCURVE",
"199 538 OFFCURVE",
"251 563 CURVE SMOOTH",
"344 607 OFFCURVE",
"416 629 OFFCURVE",
"468 629 CURVE SMOOTH",
"527 629 OFFCURVE",
"556 611 OFFCURVE",
"556 576 CURVE SMOOTH",
"556 544 OFFCURVE",
"538 490 OFFCURVE",
"502 414 CURVE SMOOTH",
"407 224 LINE SMOOTH",
"346 98 OFFCURVE",
"316 16 OFFCURVE",
"316 -22 CURVE SMOOTH",
"316 -29 OFFCURVE",
"328 -33 OFFCURVE",
"353 -33 CURVE SMOOTH",
"381 -33 OFFCURVE",
"395 -29 OFFCURVE",
"395 -20 CURVE",
"401 -15 OFFCURVE",
"380 -9 OFFCURVE",
"378 -2 CURVE",
"449 133 OFFCURVE",
"530 248 OFFCURVE",
"621 344 CURVE SMOOTH",
"695 423 OFFCURVE",
"764 478 OFFCURVE",
"827 509 CURVE SMOOTH",
"856 524 OFFCURVE",
"878 531 OFFCURVE",
"893 531 CURVE SMOOTH",
"907 531 OFFCURVE",
"914 524 OFFCURVE",
"914 510 CURVE SMOOTH",
"914 506 OFFCURVE",
"913 502 OFFCURVE",
"912 497 CURVE",
"877 401 OFFCURVE",
"725 23 OFFCURVE",
"659 -91 CURVE SMOOTH",
"606 -186 OFFCURVE",
"550 -272 OFFCURVE",
"515 -307 CURVE SMOOTH",
"471 -351 OFFCURVE",
"427 -374 OFFCURVE",
"383 -377 CURVE SMOOTH",
"356 -379 OFFCURVE",
"338 -354 OFFCURVE",
"338 -318 CURVE SMOOTH",
"338 -266 OFFCURVE",
"366 -221 OFFCURVE",
"417 -170 CURVE SMOOTH",
"424 -163 OFFCURVE",
"428 -158 OFFCURVE",
"428 -153 CURVE SMOOTH",
"428 -150 OFFCURVE",
"427 -149 OFFCURVE",
"425 -149 CURVE SMOOTH",
"420 -149 OFFCURVE",
"413 -153 OFFCURVE",
"402 -160 CURVE SMOOTH",
"344 -197 OFFCURVE",
"316 -244 OFFCURVE",
"316 -296 CURVE SMOOTH",
"316 -323 OFFCURVE",
"324 -347 OFFCURVE",
"340 -366 CURVE SMOOTH",
"356 -385 OFFCURVE",
"374 -396 OFFCURVE",
"394 -395 CURVE SMOOTH"
);
}
);
width = 857;
}
);
unicode = 014A;
},
{
glyphname = O;
lastChange = "2021-08-03 00:54:19 +0000";
layers = (
{
anchors = (
{
name = bottom;
position = "{200, -53}";
},
{
name = center;
position = "{467, 335}";
},
{
name = ogonek;
position = "{284, -48}";
},
{
name = top;
position = "{705, 697}";
},
{
name = topleft;
position = "{20, 670}";
},
{
name = topright;
position = "{884, 576}";
}
);
layerId = "F7E87FDD-B687-450B-8559-2548A76CA810";
paths = (
{
closed = 1;
nodes = (
"427 -70 OFFCURVE",
"529 -50 OFFCURVE",
"634 -10 CURVE SMOOTH",
"751 35 OFFCURVE",
"838 93 OFFCURVE",
"895 165 CURVE SMOOTH",
"938 220 OFFCURVE",
"960 284 OFFCURVE",
"960 356 CURVE SMOOTH",
"960 418 OFFCURVE",
"942 474 OFFCURVE",
"905 525 CURVE SMOOTH",
"863 583 OFFCURVE",
"800 628 OFFCURVE",
"717 659 CURVE",
"754 662 OFFCURVE",
"782 658 OFFCURVE",
"801 645 CURVE SMOOTH",
"810 639 OFFCURVE",
"818 636 OFFCURVE",
"823 636 CURVE SMOOTH",
"826 636 OFFCURVE",
"827 637 OFFCURVE",
"827 640 CURVE SMOOTH",
"827 646 OFFCURVE",
"820 656 OFFCURVE",
"806 671 CURVE SMOOTH",
"789 688 OFFCURVE",
"756 697 OFFCURVE",
"705 697 CURVE SMOOTH",
"678 697 OFFCURVE",
"646 694 OFFCURVE",
"609 689 CURVE",
"543 702 OFFCURVE",
"474 709 OFFCURVE",
"402 709 CURVE SMOOTH",
"315 709 OFFCURVE",
"245 692 OFFCURVE",
"192 657 CURVE SMOOTH",
"143 624 OFFCURVE",
"119 585 OFFCURVE",
"119 540 CURVE SMOOTH",
"119 509 OFFCURVE",
"131 483 OFFCURVE",
"155 461 CURVE",
"78 376 OFFCURVE",
"34 278 OFFCURVE",
"34 186 CURVE SMOOTH",
"34 124 OFFCURVE",
"53 70 OFFCURVE",
"90 25 CURVE SMOOTH",
"127 -20 OFFCURVE",
"176 -48 OFFCURVE",
"235 -61 CURVE SMOOTH",
"262 -67 OFFCURVE",
"293 -70 OFFCURVE",
"328 -70 CURVE SMOOTH"
);
},
{
closed = 1;
nodes = (
"246 -40 OFFCURVE",
"190 -23 OFFCURVE",
"147 12 CURVE SMOOTH",
"100 50 OFFCURVE",
"77 104 OFFCURVE",
"77 174 CURVE SMOOTH",
"77 264 OFFCURVE",
"112 353 OFFCURVE",
"183 441 CURVE",
"196 434 OFFCURVE",
"210 428 OFFCURVE",
"226 424 CURVE",
"227 425 OFFCURVE",
"227 426 OFFCURVE",
"227 427 CURVE",
"226 428 OFFCURVE",
"209 450 OFFCURVE",
"200 463 CURVE",
"255 526 OFFCURVE",
"323 576 OFFCURVE",
"403 611 CURVE SMOOTH",
"473 642 OFFCURVE",
"545 660 OFFCURVE",
"619 663 CURVE",
"710 643 OFFCURVE",
"782 608 OFFCURVE",
"833 558 CURVE SMOOTH",
"882 509 OFFCURVE",
"907 451 OFFCURVE",
"907 385 CURVE SMOOTH",
"907 316 OFFCURVE",
"880 247 OFFCURVE",
"827 176 CURVE SMOOTH",
"784 119 OFFCURVE",
"711 69 OFFCURVE",
"606 25 CURVE SMOOTH",
"502 -18 OFFCURVE",
"406 -40 OFFCURVE",
"317 -40 CURVE SMOOTH"
);
},
{
closed = 1;
nodes = (
"175 510 OFFCURVE",
"171 528 OFFCURVE",
"171 546 CURVE SMOOTH",
"171 629 OFFCURVE",
"251 674 OFFCURVE",
"405 680 CURVE SMOOTH",
"419 681 OFFCURVE",
"432 681 OFFCURVE",
"446 681 CURVE SMOOTH",
"476 681 OFFCURVE",
"506 679 OFFCURVE",
"537 676 CURVE",
"397 643 OFFCURVE",
"279 582 OFFCURVE",
"184 491 CURVE"
);
}
);
width = 933;
}
);
note = O;
unicode = 004F;
},
{
glyphname = OE;
lastChange = "2021-08-03 16:22:02 +0000";
layers = (
{
layerId = "F7E87FDD-B687-450B-8559-2548A76CA810";
paths = (
{
closed = 1;
nodes = (
"816 -37 OFFCURVE",
"890 -20 OFFCURVE",
"984 14 CURVE SMOOTH",
"1085 51 OFFCURVE",
"1149 88 OFFCURVE",
"1176 126 CURVE SMOOTH",
"1182 135 LINE",
"1144 119 OFFCURVE",
"1109 103 OFFCURVE",
"1076 87 CURVE SMOOTH",
"957 34 OFFCURVE",
"860 7 OFFCURVE",
"785 7 CURVE SMOOTH",
"711 7 OFFCURVE",
"674 31 OFFCURVE",
"674 79 CURVE SMOOTH",
"674 98 OFFCURVE",
"692 140 OFFCURVE",
"727 204 CURVE SMOOTH",
"762 269 OFFCURVE",
"788 305 OFFCURVE",
"803 312 CURVE SMOOTH",
"841 329 OFFCURVE",
"893 340 OFFCURVE",
"959 344 CURVE SMOOTH",
"1048 350 OFFCURVE",
"1101 355 OFFCURVE",
"1118 358 CURVE SMOOTH",
"1142 363 OFFCURVE",
"1154 368 OFFCURVE",
"1154 373 CURVE SMOOTH",
"1154 378 OFFCURVE",
"1126 381 OFFCURVE",
"1070 381 CURVE SMOOTH",
"1047 381 OFFCURVE",
"1012 379 OFFCURVE",
"967 376 CURVE SMOOTH",
"922 373 OFFCURVE",
"889 372 OFFCURVE",
"866 372 CURVE SMOOTH",
"861 372 OFFCURVE",
"858 373 OFFCURVE",
"856 376 CURVE",
"966 499 OFFCURVE",
"1030 566 OFFCURVE",
"1049 577 CURVE SMOOTH",
"1082 597 OFFCURVE",
"1151 607 OFFCURVE",
"1258 607 CURVE SMOOTH",
"1301 607 OFFCURVE",
"1329 604 OFFCURVE",
"1344 597 CURVE",
"1363 596 OFFCURVE",
"1373 601 OFFCURVE",
"1373 611 CURVE SMOOTH",
"1373 618 OFFCURVE",
"1368 624 OFFCURVE",
"1358 627 CURVE SMOOTH",
"1335 636 OFFCURVE",
"1293 641 OFFCURVE",
"1232 641 CURVE SMOOTH",
"1121 641 OFFCURVE",
"1047 630 OFFCURVE",
"1010 608 CURVE SMOOTH",
"988 595 OFFCURVE",
"941 548 OFFCURVE",
"870 467 CURVE",
"864 534 OFFCURVE",
"828 585 OFFCURVE",
"762 618 CURVE SMOOTH",
"709 645 OFFCURVE",
"645 658 OFFCURVE",
"570 658 CURVE SMOOTH",
"483 658 OFFCURVE",
"396 642 OFFCURVE",
"309 611 CURVE SMOOTH",
"230 582 OFFCURVE",
"164 544 OFFCURVE",
"109 497 CURVE SMOOTH",
"39 437 OFFCURVE",
"4 372 OFFCURVE",
"4 302 CURVE SMOOTH",
"4 247 OFFCURVE",
"32 207 OFFCURVE",
"88 182 CURVE",
"75 150 OFFCURVE",
"68 120 OFFCURVE",
"68 92 CURVE SMOOTH",
"68 8 OFFCURVE",
"121 -34 OFFCURVE",
"227 -34 CURVE SMOOTH",
"294 -34 OFFCURVE",
"366 -21 OFFCURVE",
"443 6 CURVE SMOOTH",
"516 31 OFFCURVE",
"581 64 OFFCURVE",
"640 104 CURVE",
"637 91 OFFCURVE",
"636 77 OFFCURVE",
"636 64 CURVE SMOOTH",
"636 -3 OFFCURVE",
"678 -37 OFFCURVE",
"761 -37 CURVE SMOOTH"
);
},
{
closed = 1;
nodes = (
"202 -17 OFFCURVE",
"172 -8 OFFCURVE",
"148 10 CURVE SMOOTH",
"122 30 OFFCURVE",
"109 58 OFFCURVE",
"109 93 CURVE SMOOTH",
"109 118 OFFCURVE",
"117 146 OFFCURVE",
"132 175 CURVE",
"147 170 OFFCURVE",
"163 168 OFFCURVE",
"182 168 CURVE SMOOTH",
"235 168 OFFCURVE",
"288 183 OFFCURVE",
"340 214 CURVE SMOOTH",
"389 243 OFFCURVE",
"430 280 OFFCURVE",
"462 326 CURVE",
"461 329 OFFCURVE",
"460 331 OFFCURVE",
"459 331 CURVE SMOOTH",
"457 331 OFFCURVE",
"449 324 OFFCURVE",
"435 310 CURVE SMOOTH",
"409 283 LINE",
"335 218 OFFCURVE",
"262 185 OFFCURVE",
"190 185 CURVE SMOOTH",
"173 185 OFFCURVE",
"156 187 OFFCURVE",
"139 190 CURVE",
"146 224 OFFCURVE",
"181 273 OFFCURVE",
"243 338 CURVE SMOOTH",
"290 386 OFFCURVE",
"336 428 OFFCURVE",
"381 463 CURVE SMOOTH",
"420 494 OFFCURVE",
"455 518 OFFCURVE",
"488 535 CURVE SMOOTH",
"516 550 OFFCURVE",
"545 560 OFFCURVE",
"576 565 CURVE SMOOTH",
"585 566 OFFCURVE",
"589 570 OFFCURVE",
"589 576 CURVE SMOOTH",
"589 580 OFFCURVE",
"587 583 OFFCURVE",
"582 583 CURVE SMOOTH",
"579 583 LINE",
"576 583 LINE SMOOTH",
"552 582 OFFCURVE",
"522 574 OFFCURVE",
"486 559 CURVE SMOOTH",
"417 530 OFFCURVE",
"344 480 OFFCURVE",
"267 409 CURVE SMOOTH",
"190 338 OFFCURVE",
"133 268 OFFCURVE",
"96 201 CURVE",
"48 216 OFFCURVE",
"24 250 OFFCURVE",
"24 302 CURVE SMOOTH",
"24 361 OFFCURVE",
"61 419 OFFCURVE",
"136 476 CURVE SMOOTH",
"191 518 OFFCURVE",
"254 553 OFFCURVE",
"326 582 CURVE SMOOTH",
"422 619 OFFCURVE",
"512 638 OFFCURVE",
"595 638 CURVE SMOOTH",
"660 638 OFFCURVE",
"714 626 OFFCURVE",
"758 602 CURVE SMOOTH",
"813 572 OFFCURVE",
"840 527 OFFCURVE",
"840 468 CURVE SMOOTH",
"840 455 OFFCURVE",
"838 441 OFFCURVE",
"835 427 CURVE",
"746 320 OFFCURVE",
"686 231 OFFCURVE",
"657 158 CURVE",
"600 107 OFFCURVE",
"535 66 OFFCURVE",
"462 34 CURVE SMOOTH",
"383 0 OFFCURVE",
"309 -17 OFFCURVE",
"238 -17 CURVE SMOOTH"
);
}
);
width = 1193;
}
);
note = OE;
unicode = 0152;
},
{
glyphname = P;
lastChange = "2021-08-03 00:54:14 +0000";
layers = (
{
layerId = "F7E87FDD-B687-450B-8559-2548A76CA810";
paths = (
{
closed = 1;
nodes = (
"213 -100 OFFCURVE",
"316 14 OFFCURVE",
"447 251 CURVE",
"557 254 OFFCURVE",
"655 273 OFFCURVE",
"740 310 CURVE SMOOTH",
"818 343 OFFCURVE",
"866 381 OFFCURVE",
"883 423 CURVE SMOOTH",
"892 444 OFFCURVE",
"896 465 OFFCURVE",
"896 484 CURVE SMOOTH",
"896 538 OFFCURVE",
"864 583 OFFCURVE",
"799 619 CURVE SMOOTH",
"748 647 OFFCURVE",
"696 663 OFFCURVE",
"641 667 CURVE SMOOTH",
"605 670 OFFCURVE",
"570 671 OFFCURVE",
"536 671 CURVE SMOOTH",
"381 671 OFFCURVE",
"256 646 OFFCURVE",
"161 596 CURVE SMOOTH",
"80 553 OFFCURVE",
"40 507 OFFCURVE",
"40 457 CURVE SMOOTH",
"40 437 OFFCURVE",
"49 421 OFFCURVE",
"66 408 CURVE SMOOTH",
"73 403 OFFCURVE",
"78 400 OFFCURVE",
"81 400 CURVE SMOOTH",
"83 400 OFFCURVE",
"84 401 OFFCURVE",
"84 404 CURVE SMOOTH",
"84 411 OFFCURVE",
"76 429 OFFCURVE",
"76 440 CURVE SMOOTH",
"76 486 OFFCURVE",
"119 532 OFFCURVE",
"205 577 CURVE SMOOTH",
"300 628 OFFCURVE",
"411 653 OFFCURVE",
"536 653 CURVE SMOOTH",
"571 653 OFFCURVE",
"605 651 OFFCURVE",
"640 647 CURVE SMOOTH",
"691 641 OFFCURVE",
"735 627 OFFCURVE",
"770 605 CURVE SMOOTH",
"815 578 OFFCURVE",
"838 542 OFFCURVE",
"838 499 CURVE SMOOTH",
"838 478 OFFCURVE",
"832 454 OFFCURVE",
"820 429 CURVE SMOOTH",
"800 386 OFFCURVE",
"757 349 OFFCURVE",
"692 318 CURVE SMOOTH",
"620 282 OFFCURVE",
"542 266 OFFCURVE",
"458 270 CURVE",
"529 407 OFFCURVE",
"575 501 OFFCURVE",
"597 550 CURVE SMOOTH",
"598 553 OFFCURVE",
"599 555 OFFCURVE",
"599 557 CURVE SMOOTH",
"599 570 OFFCURVE",
"580 583 OFFCURVE",
"564 583 CURVE SMOOTH",
"555 583 OFFCURVE",
"548 580 OFFCURVE",
"545 573 CURVE",
"545 573 OFFCURVE",
"530 537 OFFCURVE",
"499 465 CURVE SMOOTH",
"469 393 OFFCURVE",
"441 329 OFFCURVE",
"414 274 CURVE",
"385 276 OFFCURVE",
"370 273 OFFCURVE",
"370 265 CURVE SMOOTH",
"370 256 OFFCURVE",
"377 252 OFFCURVE",
"390 251 CURVE SMOOTH",
"397 251 OFFCURVE",
"401 250 OFFCURVE",
"404 249 CURVE",
"302 42 OFFCURVE",
"214 -61 OFFCURVE",
"139 -62 CURVE SMOOTH",
"99 -62 OFFCURVE",
"77 -25 OFFCURVE",
"77 28 CURVE SMOOTH",
"77 75 OFFCURVE",
"91 118 OFFCURVE",
"119 157 CURVE SMOOTH",
"124 164 OFFCURVE",
"127 170 OFFCURVE",
"127 175 CURVE SMOOTH",
"127 178 OFFCURVE",
"126 180 OFFCURVE",
"123 180 CURVE SMOOTH",
"118 180 OFFCURVE",
"113 176 OFFCURVE",
"107 168 CURVE SMOOTH",
"70 119 OFFCURVE",
"51 70 OFFCURVE",
"51 22 CURVE SMOOTH",
"51 -39 OFFCURVE",
"86 -84 OFFCURVE",
"138 -91 CURVE SMOOTH"
);
}
);
width = 715;
}
);
note = P;
unicode = 0050;
},
{
glyphname = Thorn;
lastChange = "2021-08-03 16:22:02 +0000";
layers = (
{
layerId = "F7E87FDD-B687-450B-8559-2548A76CA810";
paths = (
{
closed = 1;
nodes = (
"124 -292 OFFCURVE",
"128 -288 OFFCURVE",
"128 -284 CURVE SMOOTH",
"128 -278 OFFCURVE",
"122 -272 OFFCURVE",
"119 -269 CURVE SMOOTH",
"107 -257 OFFCURVE",
"103 -240 OFFCURVE",
"103 -219 CURVE SMOOTH",
"103 -186 OFFCURVE",
"114 -144 OFFCURVE",
"129 -102 CURVE SMOOTH",
"135 -86 OFFCURVE",
"142 -70 OFFCURVE",
"147 -56 CURVE SMOOTH",
"160 -22 OFFCURVE",
"182 25 OFFCURVE",
"207 77 CURVE",
"234 70 OFFCURVE",
"263 67 OFFCURVE",
"292 67 CURVE SMOOTH",
"489 67 OFFCURVE",
"697 214 OFFCURVE",
"751 361 CURVE SMOOTH",
"757 377 OFFCURVE",
"760 392 OFFCURVE",
"760 405 CURVE SMOOTH",
"760 501 OFFCURVE",
"618 524 OFFCURVE",
"505 524 CURVE SMOOTH",
"479 524 OFFCURVE",
"454 523 OFFCURVE",
"434 521 CURVE",
"478 601 OFFCURVE",
"509 660 OFFCURVE",
"518 674 CURVE",
"517 702 OFFCURVE",
"504 711 OFFCURVE",
"489 711 CURVE SMOOTH",
"484 711 OFFCURVE",
"479 711 OFFCURVE",
"475 707 CURVE",
"451 672 OFFCURVE",
"408 598 OFFCURVE",
"361 506 CURVE",
"311 494 OFFCURVE",
"270 477 OFFCURVE",
"249 458 CURVE SMOOTH",
"238 448 OFFCURVE",
"229 433 OFFCURVE",
"224 417 CURVE SMOOTH",
"217 398 OFFCURVE",
"213 377 OFFCURVE",
"213 363 CURVE SMOOTH",
"213 358 OFFCURVE",
"214 354 OFFCURVE",
"215 351 CURVE SMOOTH",
"219 341 OFFCURVE",
"222 338 OFFCURVE",
"225 338 CURVE SMOOTH",
"228 338 OFFCURVE",
"233 341 OFFCURVE",
"233 345 CURVE",
"234 347 OFFCURVE",
"234 350 OFFCURVE",
"235 353 CURVE SMOOTH",
"236 359 OFFCURVE",
"235 365 OFFCURVE",
"236 370 CURVE",
"246 396 OFFCURVE",
"296 438 OFFCURVE",
"340 454 CURVE",
"261 296 OFFCURVE",
"158 84 OFFCURVE",
"106 -56 CURVE SMOOTH",
"78 -135 OFFCURVE",
"57 -198 OFFCURVE",
"57 -232 CURVE SMOOTH",
"57 -273 OFFCURVE",
"83 -292 OFFCURVE",
"111 -292 CURVE SMOOTH"
);
},
{
closed = 1;
nodes = (
"245 100 OFFCURVE",
"230 101 OFFCURVE",
"217 103 CURVE",
"270 212 OFFCURVE",
"351 361 OFFCURVE",
"408 468 CURVE",
"445 475 OFFCURVE",
"507 477 OFFCURVE",
"571 477 CURVE SMOOTH",
"649 477 OFFCURVE",
"720 462 OFFCURVE",
"720 406 CURVE SMOOTH",
"720 396 OFFCURVE",
"718 386 OFFCURVE",
"714 374 CURVE SMOOTH",
"659 224 OFFCURVE",
"417 100 OFFCURVE",
"260 100 CURVE SMOOTH"
);
}
);
width = 600;
}
);
unicode = 00DE;
},
{
glyphname = Q;
lastChange = "2021-08-03 00:54:19 +0000";
layers = (
{
layerId = "F7E87FDD-B687-450B-8559-2548A76CA810";
paths = (
{
closed = 1;
nodes = (
"555 -63 OFFCURVE",
"698 -9 OFFCURVE",
"827 98 CURVE SMOOTH",
"922 177 OFFCURVE",
"970 264 OFFCURVE",
"970 358 CURVE SMOOTH",
"970 446 OFFCURVE",
"924 515 OFFCURVE",
"832 564 CURVE SMOOTH",
"791 586 OFFCURVE",
"748 600 OFFCURVE",
"701 607 CURVE",
"712 608 OFFCURVE",
"724 609 OFFCURVE",
"737 609 CURVE SMOOTH",
"763 609 OFFCURVE",
"789 606 OFFCURVE",
"817 600 CURVE SMOOTH",
"840 595 OFFCURVE",
"851 593 OFFCURVE",
"852 593 CURVE SMOOTH",
"854 593 OFFCURVE",
"855 594 OFFCURVE",
"855 595 CURVE SMOOTH",
"855 596 OFFCURVE",
"855 598 OFFCURVE",
"854 599 CURVE",
"842 621 OFFCURVE",
"811 632 OFFCURVE",
"762 632 CURVE SMOOTH",
"719 632 OFFCURVE",
"674 626 OFFCURVE",
"630 614 CURVE",
"602 615 OFFCURVE",
"553 616 OFFCURVE",
"482 616 CURVE SMOOTH",
"354 616 OFFCURVE",
"244 588 OFFCURVE",
"152 530 CURVE SMOOTH",
"68 478 OFFCURVE",
"26 423 OFFCURVE",
"26 366 CURVE SMOOTH",
"26 337 OFFCURVE",
"40 314 OFFCURVE",
"67 297 CURVE SMOOTH",
"81 288 OFFCURVE",
"95 284 OFFCURVE",
"108 284 CURVE SMOOTH",
"119 284 OFFCURVE",
"124 287 OFFCURVE",
"124 292 CURVE SMOOTH",
"124 295 OFFCURVE",
"122 297 OFFCURVE",
"119 300 CURVE SMOOTH",
"96 318 OFFCURVE",
"84 340 OFFCURVE",
"84 365 CURVE SMOOTH",
"84 418 OFFCURVE",
"127 470 OFFCURVE",
"213 522 CURVE SMOOTH",
"299 574 OFFCURVE",
"388 600 OFFCURVE",
"479 600 CURVE SMOOTH",
"495 600 OFFCURVE",
"515 600 OFFCURVE",
"538 601 CURVE SMOOTH",
"586 601 LINE",
"499 572 OFFCURVE",
"418 526 OFFCURVE",
"343 464 CURVE SMOOTH",
"276 409 OFFCURVE",
"229 355 OFFCURVE",
"204 302 CURVE SMOOTH",
"176 245 OFFCURVE",
"162 190 OFFCURVE",
"162 138 CURVE SMOOTH",
"162 27 OFFCURVE",
"228 -49 OFFCURVE",
"336 -60 CURVE SMOOTH",
"357 -62 OFFCURVE",
"378 -63 OFFCURVE",
"399 -63 CURVE SMOOTH"
);
},
{
closed = 1;
nodes = (
"828 -236 OFFCURVE",
"859 -229 OFFCURVE",
"881 -216 CURVE SMOOTH",
"898 -204 OFFCURVE",
"909 -187 OFFCURVE",
"914 -166 CURVE",
"918 -130 LINE",
"919 -127 OFFCURVE",
"919 -125 OFFCURVE",
"919 -124 CURVE",
"918 -126 OFFCURVE",
"912 -131 OFFCURVE",
"903 -142 CURVE SMOOTH",
"890 -157 OFFCURVE",
"873 -168 OFFCURVE",
"854 -177 CURVE SMOOTH",
"827 -190 OFFCURVE",
"795 -196 OFFCURVE",
"760 -196 CURVE SMOOTH",
"741 -196 OFFCURVE",
"722 -194 OFFCURVE",
"702 -191 CURVE SMOOTH",
"657 -184 OFFCURVE",
"560 -155 OFFCURVE",
"413 -105 CURVE SMOOTH",
"306 -68 OFFCURVE",
"223 -50 OFFCURVE",
"164 -50 CURVE SMOOTH",
"157 -50 OFFCURVE",
"150 -50 OFFCURVE",
"144 -51 CURVE SMOOTH",
"115 -53 OFFCURVE",
"101 -68 OFFCURVE",
"101 -96 CURVE SMOOTH",
"101 -114 OFFCURVE",
"108 -126 OFFCURVE",
"123 -132 CURVE SMOOTH",
"126 -133 OFFCURVE",
"129 -134 OFFCURVE",
"131 -134 CURVE SMOOTH",
"136 -134 OFFCURVE",
"142 -126 OFFCURVE",
"150 -111 CURVE SMOOTH",
"159 -96 OFFCURVE",
"172 -89 OFFCURVE",
"191 -89 CURVE SMOOTH",
"252 -90 OFFCURVE",
"349 -113 OFFCURVE",
"483 -160 CURVE SMOOTH",
"634 -213 OFFCURVE",
"735 -236 OFFCURVE",
"787 -236 CURVE SMOOTH"
);
},
{
closed = 1;
nodes = (
"369 -46 OFFCURVE",
"358 -46 OFFCURVE",
"347 -45 CURVE SMOOTH",
"267 -40 OFFCURVE",
"219 31 OFFCURVE",
"219 127 CURVE SMOOTH",
"219 184 OFFCURVE",
"234 240 OFFCURVE",
"265 295 CURVE SMOOTH",
"297 353 OFFCURVE",
"341 408 OFFCURVE",
"397 460 CURVE SMOOTH",
"474 532 OFFCURVE",
"557 578 OFFCURVE",
"644 598 CURVE",
"688 593 OFFCURVE",
"741 576 OFFCURVE",
"802 547 CURVE SMOOTH",
"829 534 OFFCURVE",
"853 510 OFFCURVE",
"875 475 CURVE SMOOTH",
"900 434 OFFCURVE",
"912 391 OFFCURVE",
"912 345 CURVE SMOOTH",
"912 258 OFFCURVE",
"868 179 OFFCURVE",
"781 107 CURVE SMOOTH",
"729 64 OFFCURVE",
"670 28 OFFCURVE",
"604 1 CURVE SMOOTH",
"527 -30 OFFCURVE",
"453 -46 OFFCURVE",
"380 -46 CURVE SMOOTH"
);
}
);
width = 944;
}
);
note = Q;
unicode = 0051;
},
{
glyphname = R;
lastChange = "2021-08-03 16:22:02 +0000";
layers = (
{
anchors = (
{
name = bottom;
position = "{335, -48}";
},
{
name = top;
position = "{675, 616}";
}
);
layerId = "F7E87FDD-B687-450B-8559-2548A76CA810";
paths = (
{
closed = 1;
nodes = (
"653 -98 OFFCURVE",
"667 -95 OFFCURVE",
"681 -90 CURVE SMOOTH",
"690 -87 OFFCURVE",
"699 -83 OFFCURVE",
"708 -79 CURVE SMOOTH",
"737 -68 OFFCURVE",
"752 -59 OFFCURVE",
"752 -51 CURVE SMOOTH",
"752 -42 OFFCURVE",
"748 -37 OFFCURVE",
"740 -37 CURVE SMOOTH",
"735 -37 OFFCURVE",
"713 -63 OFFCURVE",
"693 -68 CURVE SMOOTH",
"677 -72 OFFCURVE",
"664 -74 OFFCURVE",
"654 -74 CURVE SMOOTH",
"605 -74 OFFCURVE",
"531 -28 OFFCURVE",
"433 63 CURVE SMOOTH",
"403 90 OFFCURVE",
"369 133 OFFCURVE",
"330 190 CURVE",
"335 197 OFFCURVE",
"341 207 OFFCURVE",
"349 222 CURVE",
"395 205 OFFCURVE",
"442 197 OFFCURVE",
"491 197 CURVE SMOOTH",
"567 197 OFFCURVE",
"638 212 OFFCURVE",
"703 242 CURVE SMOOTH",
"771 273 OFFCURVE",
"819 315 OFFCURVE",
"846 367 CURVE SMOOTH",
"857 389 OFFCURVE",
"863 411 OFFCURVE",
"863 434 CURVE SMOOTH",
"863 488 OFFCURVE",
"832 534 OFFCURVE",
"771 573 CURVE SMOOTH",
"710 612 OFFCURVE",
"632 632 OFFCURVE",
"538 634 CURVE SMOOTH",
"496 634 LINE SMOOTH",
"332 634 OFFCURVE",
"202 612 OFFCURVE",
"106 569 CURVE SMOOTH",
"25 532 OFFCURVE",
"-16 492 OFFCURVE",
"-16 447 CURVE SMOOTH",
"-16 436 OFFCURVE",
"-13 428 OFFCURVE",
"-7 421 CURVE SMOOTH",
"6 405 OFFCURVE",
"45 397 OFFCURVE",
"109 397 CURVE SMOOTH",
"122 397 OFFCURVE",
"129 400 OFFCURVE",
"129 407 CURVE SMOOTH",
"129 411 OFFCURVE",
"125 411 OFFCURVE",
"118 411 CURVE SMOOTH",
"108 411 LINE SMOOTH",
"101 411 OFFCURVE",
"91 411 OFFCURVE",
"82 414 CURVE SMOOTH",
"67 417 OFFCURVE",
"59 423 OFFCURVE",
"56 430 CURVE",
"51 437 OFFCURVE",
"49 445 OFFCURVE",
"49 454 CURVE SMOOTH",
"49 493 OFFCURVE",
"82 528 OFFCURVE",
"148 561 CURVE SMOOTH",
"227 600 OFFCURVE",
"333 619 OFFCURVE",
"466 619 CURVE SMOOTH",
"488 619 OFFCURVE",
"511 618 OFFCURVE",
"534 617 CURVE SMOOTH",
"617 613 OFFCURVE",
"684 593 OFFCURVE",
"734 556 CURVE SMOOTH",
"781 522 OFFCURVE",
"805 481 OFFCURVE",
"805 432 CURVE SMOOTH",
"805 411 OFFCURVE",
"800 391 OFFCURVE",
"791 371 CURVE SMOOTH",
"772 330 OFFCURVE",
"734 295 OFFCURVE",
"675 264 CURVE SMOOTH",
"614 231 OFFCURVE",
"548 215 OFFCURVE",
"476 215 CURVE SMOOTH",
"467 215 OFFCURVE",
"457 215 OFFCURVE",
"447 216 CURVE SMOOTH",
"423 217 OFFCURVE",
"394 226 OFFCURVE",
"361 242 CURVE",
"427 355 OFFCURVE",
"470 437 OFFCURVE",
"491 490 CURVE SMOOTH",
"500 513 OFFCURVE",
"505 532 OFFCURVE",
"505 545 CURVE SMOOTH",
"505 558 OFFCURVE",
"500 565 OFFCURVE",
"491 565 CURVE SMOOTH",
"488 565 OFFCURVE",
"485 564 OFFCURVE",
"482 563 CURVE SMOOTH",
"468 559 OFFCURVE",
"458 550 OFFCURVE",
"448 539 CURVE SMOOTH",
"423 510 LINE SMOOTH",
"410 495 OFFCURVE",
"400 481 OFFCURVE",
"393 468 CURVE",
"393 465 OFFCURVE",
"394 464 OFFCURVE",
"397 464 CURVE SMOOTH",
"400 464 OFFCURVE",
"405 466 OFFCURVE",
"412 470 CURVE SMOOTH",
"426 478 LINE",
"427 478 OFFCURVE",
"428 478 OFFCURVE",
"429 477 CURVE",
"416 420 OFFCURVE",
"384 347 OFFCURVE",
"334 258 CURVE",
"305 276 OFFCURVE",
"286 295 OFFCURVE",
"277 315 CURVE",
"276 316 OFFCURVE",
"275 317 OFFCURVE",
"273 317 CURVE SMOOTH",
"260 317 OFFCURVE",
"234 296 OFFCURVE",
"234 284 CURVE SMOOTH",
"234 277 OFFCURVE",
"240 261 OFFCURVE",
"252 237 CURVE SMOOTH",
"261 217 OFFCURVE",
"273 196 OFFCURVE",
"287 175 CURVE",
"228 74 OFFCURVE",
"196 13 OFFCURVE",
"193 -7 CURVE SMOOTH",
"190 -22 OFFCURVE",
"196 -29 OFFCURVE",
"210 -29 CURVE SMOOTH",
"222 -29 OFFCURVE",
"230 -22 OFFCURVE",
"234 -9 CURVE SMOOTH",
"242 19 OFFCURVE",
"266 71 OFFCURVE",
"306 146 CURVE",
"333 108 OFFCURVE",
"358 78 OFFCURVE",
"380 57 CURVE SMOOTH",
"455 -17 OFFCURVE",
"525 -66 OFFCURVE",
"591 -89 CURVE SMOOTH",
"608 -95 OFFCURVE",
"624 -98 OFFCURVE",
"639 -98 CURVE SMOOTH"
);
},
{
closed = 1;
nodes = (
"306 230 OFFCURVE",
"302 239 OFFCURVE",
"300 246 CURVE",
"322 235 LINE",
"319 229 OFFCURVE",
"315 224 OFFCURVE",
"312 219 CURVE"
);
}
);
width = 722;
}
);
note = R;
unicode = 0052;
},
{
glyphname = S;
lastChange = "2021-08-03 00:54:14 +0000";
layers = (
{
anchors = (
{
name = bottom;
position = "{215, -76}";
},
{
name = top;
position = "{569, 633}";
}
);
layerId = "F7E87FDD-B687-450B-8559-2548A76CA810";
paths = (
{
closed = 1;
nodes = (
"272 -80 OFFCURVE",
"338 -68 OFFCURVE",
"407 -44 CURVE SMOOTH",
"485 -17 OFFCURVE",
"556 29 OFFCURVE",
"621 93 CURVE SMOOTH",
"686 158 OFFCURVE",
"718 215 OFFCURVE",
"718 266 CURVE SMOOTH",
"718 326 OFFCURVE",
"668 356 OFFCURVE",
"568 356 CURVE SMOOTH",
"402 356 OFFCURVE",
"319 386 OFFCURVE",
"319 445 CURVE SMOOTH",
"319 458 OFFCURVE",
"322 474 OFFCURVE",
"329 492 CURVE SMOOTH",
"342 527 OFFCURVE",
"378 556 OFFCURVE",
"436 581 CURVE SMOOTH",
"491 604 OFFCURVE",
"545 616 OFFCURVE",
"600 616 CURVE SMOOTH",
"648 616 OFFCURVE",
"681 606 OFFCURVE",
"699 587 CURVE SMOOTH",
"705 581 OFFCURVE",
"708 574 OFFCURVE",
"708 566 CURVE SMOOTH",
"708 558 OFFCURVE",
"704 548 OFFCURVE",
"695 537 CURVE SMOOTH",
"689 528 OFFCURVE",
"687 524 OFFCURVE",
"688 524 CURVE SMOOTH",
"695 523 OFFCURVE",
"707 529 OFFCURVE",
"722 542 CURVE SMOOTH",
"738 555 OFFCURVE",
"746 568 OFFCURVE",
"746 581 CURVE SMOOTH",
"746 589 OFFCURVE",
"742 596 OFFCURVE",
"734 601 CURVE SMOOTH",
"703 623 OFFCURVE",
"661 634 OFFCURVE",
"608 634 CURVE SMOOTH",
"543 634 OFFCURVE",
"475 618 OFFCURVE",
"402 585 CURVE SMOOTH",
"313 546 OFFCURVE",
"269 497 OFFCURVE",
"269 439 CURVE SMOOTH",
"269 405 OFFCURVE",
"289 378 OFFCURVE",
"330 357 CURVE SMOOTH",
"379 332 OFFCURVE",
"454 319 OFFCURVE",
"556 319 CURVE SMOOTH",
"620 319 OFFCURVE",
"652 293 OFFCURVE",
"652 240 CURVE SMOOTH",
"652 197 OFFCURVE",
"629 152 OFFCURVE",
"582 104 CURVE SMOOTH",
"529 49 OFFCURVE",
"458 4 OFFCURVE",
"368 -31 CURVE SMOOTH",
"327 -47 OFFCURVE",
"280 -55 OFFCURVE",
"228 -55 CURVE SMOOTH",
"143 -55 OFFCURVE",
"100 -28 OFFCURVE",
"100 26 CURVE SMOOTH",
"100 56 OFFCURVE",
"111 87 OFFCURVE",
"132 119 CURVE SMOOTH",
"153 151 OFFCURVE",
"178 173 OFFCURVE",
"206 185 CURVE SMOOTH",
"223 192 OFFCURVE",
"231 197 OFFCURVE",
"231 202 CURVE SMOOTH",
"231 204 OFFCURVE",
"228 205 OFFCURVE",
"223 205 CURVE SMOOTH",
"202 205 OFFCURVE",
"180 196 OFFCURVE",
"156 177 CURVE SMOOTH",
"84 120 OFFCURVE",
"48 67 OFFCURVE",
"48 20 CURVE SMOOTH",
"48 0 OFFCURVE",
"55 -18 OFFCURVE",
"69 -34 CURVE SMOOTH",
"95 -65 OFFCURVE",
"142 -80 OFFCURVE",
"209 -80 CURVE SMOOTH"
);
}
);
width = 665;
}
);
note = S;
unicode = 0053;
},
{
glyphname = Schwa;
lastChange = "2021-08-03 16:22:07 +0000";
layers = (
{
layerId = "F7E87FDD-B687-450B-8559-2548A76CA810";
paths = (
{
closed = 1;
nodes = (
"393 -42 OFFCURVE",
"579 130 OFFCURVE",
"658 259 CURVE SMOOTH",
"706 341 OFFCURVE",
"743 416 OFFCURVE",
"743 475 CURVE SMOOTH",
"743 530 OFFCURVE",
"722 570 OFFCURVE",
"681 598 CURVE SMOOTH",
"646 621 OFFCURVE",
"599 625 OFFCURVE",
"542 625 CURVE SMOOTH",
"403 625 OFFCURVE",
"217 494 OFFCURVE",
"79 287 CURVE SMOOTH",
"69 272 OFFCURVE",
"65 262 OFFCURVE",
"65 255 CURVE SMOOTH",
"65 249 OFFCURVE",
"67 247 OFFCURVE",
"71 247 CURVE SMOOTH",
"81 247 OFFCURVE",
"98 275 OFFCURVE",
"109 292 CURVE SMOOTH",
"180 396 OFFCURVE",
"261 472 OFFCURVE",
"360 529 CURVE SMOOTH",
"443 578 OFFCURVE",
"489 584 OFFCURVE",
"593 584 CURVE SMOOTH",
"655 584 OFFCURVE",
"683 537 OFFCURVE",
"683 476 CURVE SMOOTH",
"683 435 OFFCURVE",
"670 389 OFFCURVE",
"647 347 CURVE",
"553 338 OFFCURVE",
"444 312 OFFCURVE",
"339 239 CURVE SMOOTH",
"244 169 OFFCURVE",
"172 101 OFFCURVE",
"172 40 CURVE SMOOTH",
"172 -25 OFFCURVE",
"216 -42 OFFCURVE",
"280 -42 CURVE SMOOTH"
);
},
{
closed = 1;
nodes = (
"236 -8 OFFCURVE",
"223 0 OFFCURVE",
"223 14 CURVE SMOOTH",
"223 89 OFFCURVE",
"333 204 OFFCURVE",
"422 253 CURVE SMOOTH",
"458 274 OFFCURVE",
"587 314 OFFCURVE",
"621 314 CURVE SMOOTH",
"626 314 OFFCURVE",
"629 313 OFFCURVE",
"629 311 CURVE",
"629 311 OFFCURVE",
"628 310 OFFCURVE",
"628 309 CURVE",
"553 187 OFFCURVE",
"470 121 OFFCURVE",
"388 51 CURVE SMOOTH",
"337 9 OFFCURVE",
"289 -8 OFFCURVE",
"257 -8 CURVE SMOOTH"
);
}
);
width = 698;
}
);
unicode = 018F;
},
{
glyphname = T;
lastChange = "2021-08-03 01:17:21 +0000";
layers = (
{
anchors = (
{
name = bottom;
position = "{335, -72}";
},
{
name = center;
position = "{641, 335}";
},
{
name = top;
position = "{801, 616}";
}
);
layerId = "F7E87FDD-B687-450B-8559-2548A76CA810";
paths = (
{
closed = 1;
nodes = (
"316 228 OFFCURVE",
"324 230 OFFCURVE",
"324 236 CURVE SMOOTH",
"324 239 OFFCURVE",
"320 241 OFFCURVE",
"311 242 CURVE SMOOTH",
"192 255 OFFCURVE",
"133 289 OFFCURVE",
"133 343 CURVE SMOOTH",
"133 395 OFFCURVE",
"182 446 OFFCURVE",
"280 495 CURVE SMOOTH",
"383 547 OFFCURVE",
"502 575 OFFCURVE",
"637 580 CURVE SMOOTH",
"666 581 OFFCURVE",
"699 582 OFFCURVE",
"734 582 CURVE SMOOTH",
"855 582 OFFCURVE",
"956 577 OFFCURVE",
"1038 566 CURVE SMOOTH",
"1147 551 OFFCURVE",
"1202 529 OFFCURVE",
"1202 499 CURVE SMOOTH",
"1202 495 OFFCURVE",
"1201 491 OFFCURVE",
"1198 486 CURVE SMOOTH",
"1193 475 OFFCURVE",
"1190 468 OFFCURVE",
"1190 464 CURVE SMOOTH",
"1190 462 OFFCURVE",
"1191 461 OFFCURVE",
"1193 461 CURVE SMOOTH",
"1200 461 OFFCURVE",
"1208 469 OFFCURVE",
"1218 484 CURVE SMOOTH",
"1224 494 OFFCURVE",
"1227 503 OFFCURVE",
"1227 512 CURVE SMOOTH",
"1227 546 OFFCURVE",
"1183 573 OFFCURVE",
"1096 592 CURVE SMOOTH",
"1015 609 OFFCURVE",
"912 618 OFFCURVE",
"785 618 CURVE SMOOTH",
"736 618 OFFCURVE",
"686 617 OFFCURVE",
"635 614 CURVE SMOOTH",
"474 605 OFFCURVE",
"339 572 OFFCURVE",
"230 517 CURVE SMOOTH",
"130 466 OFFCURVE",
"80 413 OFFCURVE",
"80 356 CURVE SMOOTH",
"80 325 OFFCURVE",
"98 299 OFFCURVE",
"133 277 CURVE SMOOTH",
"172 254 OFFCURVE",
"228 238 OFFCURVE",
"301 230 CURVE SMOOTH"
);
},
{
closed = 1;
nodes = (
"363 -76 OFFCURVE",
"391 -67 OFFCURVE",
"421 -49 CURVE SMOOTH",
"451 -31 OFFCURVE",
"475 -10 OFFCURVE",
"492 14 CURVE SMOOTH",
"532 69 OFFCURVE",
"576 142 OFFCURVE",
"623 233 CURVE SMOOTH",
"700 381 OFFCURVE",
"745 454 OFFCURVE",
"759 452 CURVE SMOOTH",
"766 451 OFFCURVE",
"778 459 OFFCURVE",
"778 467 CURVE SMOOTH",
"778 470 OFFCURVE",
"776 472 OFFCURVE",
"773 474 CURVE SMOOTH",
"754 483 OFFCURVE",
"740 488 OFFCURVE",
"731 488 CURVE SMOOTH",
"721 488 OFFCURVE",
"712 483 OFFCURVE",
"703 473 CURVE SMOOTH",
"692 460 OFFCURVE",
"652 387 OFFCURVE",
"585 254 CURVE SMOOTH",
"525 136 OFFCURVE",
"479 55 OFFCURVE",
"446 10 CURVE SMOOTH",
"411 -37 OFFCURVE",
"380 -61 OFFCURVE",
"351 -61 CURVE SMOOTH",
"335 -61 OFFCURVE",
"319 -53 OFFCURVE",
"303 -37 CURVE SMOOTH",
"288 -22 OFFCURVE",
"278 -14 OFFCURVE",
"274 -14 CURVE SMOOTH",
"269 -14 OFFCURVE",
"267 -17 OFFCURVE",
"267 -22 CURVE SMOOTH",
"267 -28 OFFCURVE",
"270 -35 OFFCURVE",
"275 -43 CURVE SMOOTH",
"289 -65 OFFCURVE",
"310 -76 OFFCURVE",
"337 -76 CURVE SMOOTH"
);
}
);
width = 756;
}
);
note = T;
unicode = 0054;
},
{
glyphname = U;
lastChange = "2021-08-03 00:54:19 +0000";
layers = (
{
anchors = (
{
name = bottom;
position = "{599, 0}";
},
{
name = ogonek;
position = "{864, -29}";
},
{
name = top;
position = "{829, 513}";
},
{
name = topright;
position = "{995, 421}";
}
);
layerId = "F7E87FDD-B687-450B-8559-2548A76CA810";
paths = (
{
closed = 1;
nodes = (
"848 -84 OFFCURVE",
"849 -83 OFFCURVE",
"849 -80 CURVE SMOOTH",
"849 -75 OFFCURVE",
"845 -65 OFFCURVE",
"836 -52 CURVE SMOOTH",
"831 -45 OFFCURVE",
"829 -35 OFFCURVE",
"829 -20 CURVE SMOOTH",
"829 22 OFFCURVE",
"844 81 OFFCURVE",
"873 157 CURVE SMOOTH",
"905 242 OFFCURVE",
"948 328 OFFCURVE",
"1002 413 CURVE",
"1003 416 OFFCURVE",
"1004 418 OFFCURVE",
"1004 420 CURVE SMOOTH",
"1004 435 OFFCURVE",
"978 444 OFFCURVE",
"954 444 CURVE SMOOTH",
"936 444 OFFCURVE",
"927 440 OFFCURVE",
"926 431 CURVE SMOOTH",
"915 369 OFFCURVE",
"882 297 OFFCURVE",
"827 215 CURVE SMOOTH",
"751 102 OFFCURVE",
"662 35 OFFCURVE",
"561 12 CURVE SMOOTH",
"546 9 OFFCURVE",
"533 7 OFFCURVE",
"522 7 CURVE SMOOTH",
"477 7 OFFCURVE",
"454 31 OFFCURVE",
"454 79 CURVE SMOOTH",
"454 107 OFFCURVE",
"462 142 OFFCURVE",
"477 183 CURVE SMOOTH",
"494 228 OFFCURVE",
"491 219 OFFCURVE",
"611 432 CURVE SMOOTH",
"656 513 OFFCURVE",
"677 563 OFFCURVE",
"673 580 CURVE SMOOTH",
"664 620 OFFCURVE",
"620 640 OFFCURVE",
"542 640 CURVE SMOOTH",
"451 640 OFFCURVE",
"365 620 OFFCURVE",
"284 581 CURVE SMOOTH",
"177 529 OFFCURVE",
"104 475 OFFCURVE",
"65 419 CURVE SMOOTH",
"46 392 OFFCURVE",
"37 363 OFFCURVE",
"37 334 CURVE SMOOTH",
"37 297 OFFCURVE",
"53 273 OFFCURVE",
"86 262 CURVE SMOOTH",
"105 256 OFFCURVE",
"126 253 OFFCURVE",
"149 253 CURVE SMOOTH",
"179 253 OFFCURVE",
"221 260 OFFCURVE",
"276 276 CURVE SMOOTH",
"311 286 LINE",
"246 277 OFFCURVE",
"206 273 OFFCURVE",
"191 273 CURVE SMOOTH",
"153 273 OFFCURVE",
"126 279 OFFCURVE",
"110 291 CURVE SMOOTH",
"90 306 OFFCURVE",
"80 324 OFFCURVE",
"80 346 CURVE SMOOTH",
"80 383 OFFCURVE",
"104 425 OFFCURVE",
"151 471 CURVE SMOOTH",
"196 514 OFFCURVE",
"246 547 OFFCURVE",
"300 569 CURVE SMOOTH",
"382 602 OFFCURVE",
"451 619 OFFCURVE",
"508 619 CURVE SMOOTH",
"538 619 OFFCURVE",
"569 614 OFFCURVE",
"601 604 CURVE SMOOTH",
"617 599 OFFCURVE",
"625 588 OFFCURVE",
"625 569 CURVE SMOOTH",
"625 540 OFFCURVE",
"606 490 OFFCURVE",
"563 421 CURVE SMOOTH",
"456 248 LINE SMOOTH",
"422 193 OFFCURVE",
"407 137 OFFCURVE",
"407 81 CURVE SMOOTH",
"407 27 OFFCURVE",
"428 -4 OFFCURVE",
"469 -12 CURVE SMOOTH",
"484 -15 OFFCURVE",
"500 -16 OFFCURVE",
"515 -16 CURVE SMOOTH",
"590 -16 OFFCURVE",
"664 18 OFFCURVE",
"737 86 CURVE SMOOTH",
"794 139 OFFCURVE",
"844 206 OFFCURVE",
"888 287 CURVE",
"823 150 OFFCURVE",
"791 50 OFFCURVE",
"791 -12 CURVE SMOOTH",
"791 -31 OFFCURVE",
"795 -46 OFFCURVE",
"802 -55 CURVE SMOOTH",
"818 -74 OFFCURVE",
"832 -84 OFFCURVE",
"845 -84 CURVE SMOOTH"
);
}
);
width = 897;
}
);
note = U;
unicode = 0055;
},
{
glyphname = V;
lastChange = "2021-08-03 21:46:04 +0000";
layers = (
{
layerId = "F7E87FDD-B687-450B-8559-2548A76CA810";
paths = (
{
closed = 1;
nodes = (
"379 -97 OFFCURVE",
"385 -95 OFFCURVE",
"388 -92 CURVE SMOOTH",
"425 -57 OFFCURVE",
"528 57 OFFCURVE",
"699 250 CURVE SMOOTH",
"832 401 OFFCURVE",
"925 492 OFFCURVE",
"978 521 CURVE SMOOTH",
"1011 540 OFFCURVE",
"1036 549 OFFCURVE",
"1054 549 CURVE SMOOTH",
"1068 549 OFFCURVE",
"1076 544 OFFCURVE",
"1079 534 CURVE",
"1079 537 LINE SMOOTH",
"1075 566 OFFCURVE",
"1065 581 OFFCURVE",
"1048 581 CURVE SMOOTH",
"1022 581 OFFCURVE",
"975 555 OFFCURVE",
"908 502 CURVE SMOOTH",
"855 461 OFFCURVE",
"777 381 OFFCURVE",
"672 264 CURVE SMOOTH",
"536 111 OFFCURVE",
"448 14 OFFCURVE",
"409 -25 CURVE SMOOTH",
"383 -50 LINE",
"396 21 OFFCURVE",
"417 113 OFFCURVE",
"446 226 CURVE SMOOTH",
"498 425 LINE SMOOTH",
"503 445 OFFCURVE",
"505 465 OFFCURVE",
"505 485 CURVE SMOOTH",
"505 530 OFFCURVE",
"493 567 OFFCURVE",
"468 595 CURVE SMOOTH",
"439 628 OFFCURVE",
"397 644 OFFCURVE",
"340 644 CURVE SMOOTH",
"331 644 OFFCURVE",
"323 644 OFFCURVE",
"314 643 CURVE SMOOTH",
"216 635 OFFCURVE",
"135 598 OFFCURVE",
"72 533 CURVE SMOOTH",
"16 475 OFFCURVE",
"-12 409 OFFCURVE",
"-12 337 CURVE SMOOTH",
"-12 287 OFFCURVE",
"-1 248 OFFCURVE",
"21 219 CURVE SMOOTH",
"42 192 OFFCURVE",
"70 179 OFFCURVE",
"105 179 CURVE SMOOTH",
"160 179 OFFCURVE",
"226 212 OFFCURVE",
"303 279 CURVE SMOOTH",
"308 283 OFFCURVE",
"310 287 OFFCURVE",
"310 291 CURVE SMOOTH",
"310 295 OFFCURVE",
"307 298 OFFCURVE",
"303 298 CURVE SMOOTH",
"301 298 OFFCURVE",
"297 296 OFFCURVE",
"294 294 CURVE SMOOTH",
"228 237 OFFCURVE",
"173 209 OFFCURVE",
"130 209 CURVE SMOOTH",
"75 209 OFFCURVE",
"47 251 OFFCURVE",
"47 335 CURVE SMOOTH",
"47 402 OFFCURVE",
"66 460 OFFCURVE",
"105 510 CURVE SMOOTH",
"150 569 OFFCURVE",
"214 604 OFFCURVE",
"296 616 CURVE SMOOTH",
"311 618 OFFCURVE",
"326 619 OFFCURVE",
"339 619 CURVE SMOOTH",
"419 619 OFFCURVE",
"459 581 OFFCURVE",
"459 506 CURVE SMOOTH",
"459 485 OFFCURVE",
"456 462 OFFCURVE",
"449 436 CURVE SMOOTH",
"386 183 LINE SMOOTH",
"348 31 OFFCURVE",
"329 -54 OFFCURVE",
"329 -71 CURVE SMOOTH",
"329 -84 OFFCURVE",
"352 -97 OFFCURVE",
"372 -97 CURVE SMOOTH"
);
}
);
width = 759;
}
);
note = V;
unicode = 0056;
},
{
glyphname = W;
lastChange = "2021-08-03 00:54:19 +0000";
layers = (
{
anchors = (
{
name = bottom;
position = "{538, 0}";
},
{
name = top;
position = "{788, 573}";
}
);
layerId = "F7E87FDD-B687-450B-8559-2548A76CA810";
paths = (
{
closed = 1;
nodes = (
"248 -93 OFFCURVE",
"253 -91 OFFCURVE",
"256 -88 CURVE SMOOTH",
"291 -52 OFFCURVE",
"372 44 OFFCURVE",
"499 200 CURVE SMOOTH",
"594 317 OFFCURVE",
"665 388 OFFCURVE",
"710 413 CURVE SMOOTH",
"713 415 OFFCURVE",
"716 416 OFFCURVE",
"718 416 CURVE SMOOTH",
"721 416 OFFCURVE",
"723 413 OFFCURVE",
"723 408 CURVE SMOOTH",
"723 404 OFFCURVE",
"721 399 OFFCURVE",
"718 392 CURVE SMOOTH",
"667 283 OFFCURVE",
"642 193 OFFCURVE",
"642 122 CURVE SMOOTH",
"642 46 OFFCURVE",
"671 0 OFFCURVE",
"728 -15 CURVE SMOOTH",
"749 -20 OFFCURVE",
"770 -23 OFFCURVE",
"791 -23 CURVE SMOOTH",
"858 -23 OFFCURVE",
"925 3 OFFCURVE",
"991 55 CURVE SMOOTH",
"1050 102 OFFCURVE",
"1100 162 OFFCURVE",
"1139 235 CURVE SMOOTH",
"1179 307 OFFCURVE",
"1197 375 OFFCURVE",
"1197 439 CURVE SMOOTH",
"1197 515 OFFCURVE",
"1165 563 OFFCURVE",
"1102 584 CURVE SMOOTH",
"1095 587 OFFCURVE",
"1087 588 OFFCURVE",
"1079 588 CURVE SMOOTH",
"1048 588 OFFCURVE",
"1022 565 OFFCURVE",
"1022 550 CURVE SMOOTH",
"1022 546 OFFCURVE",
"1025 545 OFFCURVE",
"1030 546 CURVE SMOOTH",
"1034 547 OFFCURVE",
"1038 547 OFFCURVE",
"1043 547 CURVE SMOOTH",
"1053 547 OFFCURVE",
"1065 545 OFFCURVE",
"1077 539 CURVE SMOOTH",
"1126 518 OFFCURVE",
"1150 475 OFFCURVE",
"1150 410 CURVE SMOOTH",
"1150 323 OFFCURVE",
"1113 233 OFFCURVE",
"1040 142 CURVE SMOOTH",
"963 45 OFFCURVE",
"881 -3 OFFCURVE",
"796 -3 CURVE SMOOTH",
"778 -3 OFFCURVE",
"761 -1 OFFCURVE",
"744 4 CURVE SMOOTH",
"710 14 OFFCURVE",
"693 48 OFFCURVE",
"693 105 CURVE SMOOTH",
"693 154 OFFCURVE",
"705 213 OFFCURVE",
"728 283 CURVE SMOOTH",
"749 346 OFFCURVE",
"773 399 OFFCURVE",
"800 442 CURVE SMOOTH",
"807 453 OFFCURVE",
"796 459 OFFCURVE",
"767 459 CURVE SMOOTH",
"742 459 OFFCURVE",
"723 455 OFFCURVE",
"712 447 CURVE SMOOTH",
"663 412 OFFCURVE",
"596 347 OFFCURVE",
"512 252 CURVE SMOOTH",
"375 96 OFFCURVE",
"297 9 OFFCURVE",
"280 -9 CURVE SMOOTH",
"251 -40 LINE",
"271 16 OFFCURVE",
"307 90 OFFCURVE",
"360 181 CURVE SMOOTH",
"427 296 OFFCURVE",
"467 367 OFFCURVE",
"480 393 CURVE SMOOTH",
"514 462 OFFCURVE",
"531 520 OFFCURVE",
"531 565 CURVE SMOOTH",
"531 647 OFFCURVE",
"489 688 OFFCURVE",
"406 688 CURVE SMOOTH",
"331 688 OFFCURVE",
"239 658 OFFCURVE",
"131 597 CURVE SMOOTH",
"28 539 OFFCURVE",
"-38 485 OFFCURVE",
"-67 435 CURVE SMOOTH",
"-87 401 OFFCURVE",
"-97 371 OFFCURVE",
"-97 344 CURVE SMOOTH",
"-97 303 OFFCURVE",
"-75 275 OFFCURVE",
"-32 260 CURVE SMOOTH",
"-7 252 OFFCURVE",
"20 248 OFFCURVE",
"49 248 CURVE SMOOTH",
"99 248 OFFCURVE",
"135 256 OFFCURVE",
"156 273 CURVE SMOOTH",
"164 279 OFFCURVE",
"168 283 OFFCURVE",
"168 285 CURVE SMOOTH",
"168 286 OFFCURVE",
"167 286 OFFCURVE",
"165 286 CURVE SMOOTH",
"164 286 OFFCURVE",
"149 283 OFFCURVE",
"120 276 CURVE SMOOTH",
"91 270 OFFCURVE",
"67 267 OFFCURVE",
"46 267 CURVE SMOOTH",
"21 267 OFFCURVE",
"1 271 OFFCURVE",
"-15 280 CURVE SMOOTH",
"-46 297 OFFCURVE",
"-62 320 OFFCURVE",
"-62 348 CURVE SMOOTH",
"-62 408 OFFCURVE",
"-3 476 OFFCURVE",
"114 551 CURVE SMOOTH",
"227 624 OFFCURVE",
"324 661 OFFCURVE",
"403 661 CURVE SMOOTH",
"457 661 OFFCURVE",
"484 639 OFFCURVE",
"484 595 CURVE SMOOTH",
"484 552 OFFCURVE",
"438 442 OFFCURVE",
"345 264 CURVE SMOOTH",
"252 83 OFFCURVE",
"204 -28 OFFCURVE",
"202 -70 CURVE",
"203 -82 OFFCURVE",
"224 -93 OFFCURVE",
"241 -93 CURVE SMOOTH"
);
}
);
width = 1076;
}
);
note = W;
unicode = 0057;
},
{
glyphname = X;
lastChange = "2021-08-03 00:54:14 +0000";
layers = (
{
layerId = "F7E87FDD-B687-450B-8559-2548A76CA810";
paths = (
{
closed = 1;
nodes = (
"-62 -173 OFFCURVE",
"-45 -159 OFFCURVE",
"-27 -130 CURVE SMOOTH",
"56 1 OFFCURVE",
"204 138 OFFCURVE",
"418 283 CURVE",
"422 228 OFFCURVE",
"426 173 OFFCURVE",
"429 118 CURVE SMOOTH",
"433 63 OFFCURVE",
"438 28 OFFCURVE",
"443 13 CURVE SMOOTH",
"457 -28 OFFCURVE",
"485 -48 OFFCURVE",
"528 -48 CURVE SMOOTH",
"567 -48 OFFCURVE",
"609 -32 OFFCURVE",
"653 -1 CURVE SMOOTH",
"697 30 OFFCURVE",
"727 64 OFFCURVE",
"742 101 CURVE SMOOTH",
"752 126 OFFCURVE",
"757 142 OFFCURVE",
"757 149 CURVE SMOOTH",
"757 151 OFFCURVE",
"757 152 OFFCURVE",
"756 153 CURVE",
"750 153 OFFCURVE",
"739 139 OFFCURVE",
"724 111 CURVE SMOOTH",
"704 76 OFFCURVE",
"680 46 OFFCURVE",
"653 21 CURVE SMOOTH",
"622 -6 OFFCURVE",
"594 -20 OFFCURVE",
"568 -20 CURVE SMOOTH",
"537 -20 OFFCURVE",
"512 1 OFFCURVE",
"495 43 CURVE SMOOTH",
"487 63 OFFCURVE",
"480 100 OFFCURVE",
"474 154 CURVE",
"473 155 OFFCURVE",
"468 208 OFFCURVE",
"459 311 CURVE",
"505 342 OFFCURVE",
"594 397 OFFCURVE",
"725 478 CURVE SMOOTH",
"814 532 OFFCURVE",
"870 570 OFFCURVE",
"892 591 CURVE SMOOTH",
"913 610 OFFCURVE",
"923 624 OFFCURVE",
"923 633 CURVE SMOOTH",
"923 637 OFFCURVE",
"921 639 OFFCURVE",
"916 639 CURVE SMOOTH",
"899 639 OFFCURVE",
"874 624 OFFCURVE",
"842 594 CURVE SMOOTH",
"811 565 OFFCURVE",
"757 525 OFFCURVE",
"682 476 CURVE SMOOTH",
"458 330 LINE",
"445 463 OFFCURVE",
"427 539 OFFCURVE",
"402 558 CURVE SMOOTH",
"377 577 OFFCURVE",
"347 586 OFFCURVE",
"312 586 CURVE SMOOTH",
"261 586 OFFCURVE",
"204 567 OFFCURVE",
"139 530 CURVE SMOOTH",
"86 501 OFFCURVE",
"56 479 OFFCURVE",
"48 465 CURVE SMOOTH",
"45 461 OFFCURVE",
"43 458 OFFCURVE",
"43 455 CURVE SMOOTH",
"43 452 OFFCURVE",
"45 451 OFFCURVE",
"49 451 CURVE SMOOTH",
"57 451 OFFCURVE",
"63 453 OFFCURVE",
"68 457 CURVE SMOOTH",
"139 525 OFFCURVE",
"214 559 OFFCURVE",
"293 559 CURVE SMOOTH",
"304 559 OFFCURVE",
"314 558 OFFCURVE",
"325 556 CURVE SMOOTH",
"372 548 OFFCURVE",
"402 464 OFFCURVE",
"416 303 CURVE",
"185 148 OFFCURVE",
"21 3 OFFCURVE",
"-77 -130 CURVE SMOOTH",
"-86 -142 OFFCURVE",
"-90 -152 OFFCURVE",
"-90 -161 CURVE SMOOTH",
"-90 -169 OFFCURVE",
"-86 -173 OFFCURVE",
"-78 -173 CURVE SMOOTH"
);
}
);
width = 777;
}
);
note = X;
unicode = 0058;
},
{
glyphname = Y;
lastChange = "2021-08-03 01:18:11 +0000";
layers = (
{
anchors = (
{
name = bottom;
position = "{639, -19}";
},
{
name = top;
position = "{622, 597}";
},
{
name = topleft;
position = "{20, 670}";
}
);
layerId = "F7E87FDD-B687-450B-8559-2548A76CA810";
paths = (
{
closed = 1;
nodes = (
"146 -388 OFFCURVE",
"227 -354 OFFCURVE",
"308 -287 CURVE SMOOTH",
"401 -210 OFFCURVE",
"505 -80 OFFCURVE",
"622 103 CURVE SMOOTH",
"833 432 OFFCURVE",
"978 615 OFFCURVE",
"1078 656 CURVE SMOOTH",
"1099 665 OFFCURVE",
"1108 676 OFFCURVE",
"1108 685 CURVE SMOOTH",
"1108 694 OFFCURVE",
"1098 701 OFFCURVE",
"1084 701 CURVE SMOOTH",
"1081 701 OFFCURVE",
"1077 701 OFFCURVE",
"1074 700 CURVE SMOOTH",
"1016 687 OFFCURVE",
"935 625 OFFCURVE",
"865 542 CURVE SMOOTH",
"789 452 OFFCURVE",
"699 320 OFFCURVE",
"595 144 CURVE SMOOTH",
"493 -29 OFFCURVE",
"394 -158 OFFCURVE",
"297 -244 CURVE SMOOTH",
"210 -321 OFFCURVE",
"131 -360 OFFCURVE",
"59 -360 CURVE SMOOTH",
"-15 -360 OFFCURVE",
"-73 -314 OFFCURVE",
"-73 -244 CURVE SMOOTH",
"-73 -212 OFFCURVE",
"-60 -185 OFFCURVE",
"-35 -163 CURVE SMOOTH",
"-28 -157 OFFCURVE",
"-24 -150 OFFCURVE",
"-24 -143 CURVE SMOOTH",
"-24 -139 OFFCURVE",
"-26 -137 OFFCURVE",
"-30 -137 CURVE SMOOTH",
"-33 -137 OFFCURVE",
"-36 -139 OFFCURVE",
"-41 -143 CURVE SMOOTH",
"-79 -176 OFFCURVE",
"-98 -215 OFFCURVE",
"-98 -260 CURVE SMOOTH",
"-98 -345 OFFCURVE",
"-34 -388 OFFCURVE",
"65 -388 CURVE SMOOTH"
);
},
{
closed = 1;
nodes = (
"436 -30 OFFCURVE",
"457 -19 OFFCURVE",
"460 -6 CURVE SMOOTH",
"473 55 OFFCURVE",
"480 118 OFFCURVE",
"480 182 CURVE SMOOTH",
"480 282 OFFCURVE",
"462 374 OFFCURVE",
"425 457 CURVE SMOOTH",
"377 566 OFFCURVE",
"308 621 OFFCURVE",
"219 621 CURVE SMOOTH",
"97 621 OFFCURVE",
"27 497 OFFCURVE",
"27 402 CURVE SMOOTH",
"27 341 OFFCURVE",
"49 291 OFFCURVE",
"91 251 CURVE SMOOTH",
"130 214 OFFCURVE",
"174 195 OFFCURVE",
"225 195 CURVE SMOOTH",
"244 195 OFFCURVE",
"263 198 OFFCURVE",
"280 204 CURVE SMOOTH",
"291 208 OFFCURVE",
"297 214 OFFCURVE",
"297 221 CURVE SMOOTH",
"297 226 OFFCURVE",
"294 228 OFFCURVE",
"289 228 CURVE SMOOTH",
"281 228 OFFCURVE",
"257 220 OFFCURVE",
"245 220 CURVE SMOOTH",
"202 220 OFFCURVE",
"163 240 OFFCURVE",
"126 281 CURVE SMOOTH",
"90 322 OFFCURVE",
"70 368 OFFCURVE",
"70 419 CURVE SMOOTH",
"70 509 OFFCURVE",
"140 595 OFFCURVE",
"222 595 CURVE SMOOTH",
"298 595 OFFCURVE",
"355 547 OFFCURVE",
"393 450 CURVE SMOOTH",
"420 381 OFFCURVE",
"433 301 OFFCURVE",
"433 212 CURVE SMOOTH",
"433 135 OFFCURVE",
"417 58 OFFCURVE",
"400 -19 CURVE SMOOTH",
"398 -26 OFFCURVE",
"410 -30 OFFCURVE",
"420 -30 CURVE SMOOTH"
);
}
);
width = 728;
}
);
note = Y;
unicode = 0059;
},
{
glyphname = Z;
lastChange = "2021-08-03 16:22:07 +0000";
layers = (
{
anchors = (
{
name = bottom;
position = "{340, -84}";
},
{
name = center;
position = "{443, 262}";
},
{
name = top;
position = "{566, 575}";
}
);
layerId = "F7E87FDD-B687-450B-8559-2548A76CA810";
paths = (
{
closed = 1;
nodes = (
"720 -123 OFFCURVE",
"775 -107 OFFCURVE",
"808 -78 CURVE SMOOTH",
"833 -57 OFFCURVE",
"842 -31 OFFCURVE",
"842 -2 CURVE SMOOTH",
"842 12 OFFCURVE",
"840 19 OFFCURVE",
"837 19 CURVE SMOOTH",
"834 19 OFFCURVE",
"827 9 OFFCURVE",
"814 -12 CURVE SMOOTH",
"801 -35 OFFCURVE",
"789 -49 OFFCURVE",
"780 -54 CURVE SMOOTH",
"739 -78 OFFCURVE",
"692 -90 OFFCURVE",
"640 -90 CURVE SMOOTH",
"611 -90 OFFCURVE",
"579 -86 OFFCURVE",
"544 -79 CURVE SMOOTH",
"504 -70 OFFCURVE",
"440 -49 OFFCURVE",
"353 -14 CURVE SMOOTH",
"316 0 OFFCURVE",
"285 13 OFFCURVE",
"242 32 CURVE",
"327 98 OFFCURVE",
"417 189 OFFCURVE",
"514 306 CURVE SMOOTH",
"595 403 OFFCURVE",
"647 472 OFFCURVE",
"686 506 CURVE",
"724 498 OFFCURVE",
"754 494 OFFCURVE",
"777 494 CURVE SMOOTH",
"825 494 OFFCURVE",
"845 513 OFFCURVE",
"845 541 CURVE SMOOTH",
"845 568 OFFCURVE",
"817 581 OFFCURVE",
"790 581 CURVE SMOOTH",
"761 581 OFFCURVE",
"721 562 OFFCURVE",
"670 525 CURVE",
"569 552 OFFCURVE",
"518 565 OFFCURVE",
"517 565 CURVE SMOOTH",
"454 580 OFFCURVE",
"400 587 OFFCURVE",
"356 587 CURVE SMOOTH",
"280 587 OFFCURVE",
"156 552 OFFCURVE",
"156 459 CURVE SMOOTH",
"156 443 OFFCURVE",
"162 428 OFFCURVE",
"173 413 CURVE SMOOTH",
"188 394 OFFCURVE",
"216 377 OFFCURVE",
"247 377 CURVE SMOOTH",
"250 377 OFFCURVE",
"247 385 OFFCURVE",
"248 386 CURVE",
"209 395 OFFCURVE",
"194 419 OFFCURVE",
"194 446 CURVE SMOOTH",
"194 480 OFFCURVE",
"219 518 OFFCURVE",
"254 535 CURVE SMOOTH",
"298 556 OFFCURVE",
"347 564 OFFCURVE",
"396 564 CURVE SMOOTH",
"442 564 OFFCURVE",
"487 557 OFFCURVE",
"528 546 CURVE SMOOTH",
"654 514 LINE",
"590 465 OFFCURVE",
"534 410 OFFCURVE",
"483 352 CURVE SMOOTH",
"216 45 LINE",
"141 85 OFFCURVE",
"88 105 OFFCURVE",
"56 105 CURVE SMOOTH",
"49 105 OFFCURVE",
"39 103 OFFCURVE",
"27 100 CURVE SMOOTH",
"3 95 OFFCURVE",
"-17 63 OFFCURVE",
"-17 32 CURVE SMOOTH",
"-17 11 OFFCURVE",
"-8 -6 OFFCURVE",
"10 -18 CURVE SMOOTH",
"25 -27 OFFCURVE",
"44 -32 OFFCURVE",
"67 -32 CURVE SMOOTH",
"109 -32 OFFCURVE",
"166 -16 OFFCURVE",
"221 21 CURVE",
"427 -77 OFFCURVE",
"563 -123 OFFCURVE",
"644 -123 CURVE SMOOTH"
);
},
{
closed = 1;
nodes = (
"86 -6 OFFCURVE",
"80 -5 OFFCURVE",
"75 -5 CURVE SMOOTH",
"48 -2 OFFCURVE",
"23 13 OFFCURVE",
"23 36 CURVE SMOOTH",
"23 63 OFFCURVE",
"40 77 OFFCURVE",
"73 77 CURVE SMOOTH",
"100 77 OFFCURVE",
"133 70 OFFCURVE",
"171 48 CURVE SMOOTH",
"197 33 LINE",
"164 7 OFFCURVE",
"129 -6 OFFCURVE",
"91 -6 CURVE SMOOTH"
);
},
{
closed = 1;
nodes = (
"751 508 OFFCURVE",
"728 511 OFFCURVE",
"700 518 CURVE",
"728 542 OFFCURVE",
"755 554 OFFCURVE",
"780 554 CURVE SMOOTH",
"799 554 OFFCURVE",
"809 546 OFFCURVE",
"809 531 CURVE SMOOTH",
"809 516 OFFCURVE",
"795 508 OFFCURVE",
"767 508 CURVE SMOOTH"
);
}
);
width = 597;
}
);
note = Z;
unicode = 005A;
},
{
glyphname = a;
lastChange = "2021-08-03 21:39:34 +0000";
layers = (
{
anchors = (
{
name = bottom;
position = "{180, 0}";
},
{
name = ogonek;
position = "{324, 10}";
},
{
name = top;
position = "{305, 301}";
}
);
layerId = "F7E87FDD-B687-450B-8559-2548A76CA810";
paths = (
{
closed = 1;
nodes = (
"286 -11 OFFCURVE",
"292 -10 OFFCURVE",
"297 -8 CURVE SMOOTH",
"315 -2 OFFCURVE",
"339 13 OFFCURVE",
"369 38 CURVE SMOOTH",
"410 71 OFFCURVE",
"444 110 OFFCURVE",
"472 154 CURVE SMOOTH",
"478 163 OFFCURVE",
"481 170 OFFCURVE",
"481 173 CURVE SMOOTH",
"481 174 OFFCURVE",
"480 175 OFFCURVE",
"478 175 CURVE SMOOTH",
"472 175 OFFCURVE",
"465 170 OFFCURVE",
"458 160 CURVE SMOOTH",
"423 111 OFFCURVE",
"386 72 OFFCURVE",
"347 43 CURVE SMOOTH",
"314 18 OFFCURVE",
"290 8 OFFCURVE",
"277 12 CURVE SMOOTH",
"272 13 OFFCURVE",
"270 18 OFFCURVE",
"270 25 CURVE SMOOTH",
"270 58 OFFCURVE",
"299 120 OFFCURVE",
"357 212 CURVE",
"358 213 OFFCURVE",
"358 215 OFFCURVE",
"358 216 CURVE SMOOTH",
"358 228 OFFCURVE",
"348 234 OFFCURVE",
"328 234 CURVE SMOOTH",
"317 234 OFFCURVE",
"310 230 OFFCURVE",
"306 223 CURVE SMOOTH",
"289 193 OFFCURVE",
"260 152 OFFCURVE",
"218 100 CURVE SMOOTH",
"166 34 OFFCURVE",
"132 4 OFFCURVE",
"116 11 CURVE SMOOTH",
"103 16 OFFCURVE",
"97 28 OFFCURVE",
"97 45 CURVE SMOOTH",
"97 76 OFFCURVE",
"115 117 OFFCURVE",
"151 167 CURVE SMOOTH",
"202 236 OFFCURVE",
"271 281 OFFCURVE",
"326 281 CURVE SMOOTH",
"349 281 OFFCURVE",
"368 273 OFFCURVE",
"382 258 CURVE SMOOTH",
"383 257 OFFCURVE",
"383 257 OFFCURVE",
"384 257 CURVE SMOOTH",
"387 257 OFFCURVE",
"388 259 OFFCURVE",
"388 264 CURVE SMOOTH",
"388 271 OFFCURVE",
"384 276 OFFCURVE",
"377 281 CURVE SMOOTH",
"355 294 OFFCURVE",
"331 301 OFFCURVE",
"305 301 CURVE SMOOTH",
"264 301 OFFCURVE",
"221 285 OFFCURVE",
"176 252 CURVE SMOOTH",
"141 226 OFFCURVE",
"114 200 OFFCURVE",
"97 173 CURVE SMOOTH",
"70 129 OFFCURVE",
"56 92 OFFCURVE",
"56 63 CURVE SMOOTH",
"56 27 OFFCURVE",
"76 4 OFFCURVE",
"116 -5 CURVE SMOOTH",
"133 -9 OFFCURVE",
"155 1 OFFCURVE",
"180 25 CURVE SMOOTH",
"197 42 OFFCURVE",
"218 65 OFFCURVE",
"238 94 CURVE SMOOTH",
"261 127 LINE",
"234 69 OFFCURVE",
"222 36 OFFCURVE",
"224 27 CURVE SMOOTH",
"228 11 OFFCURVE",
"253 -11 OFFCURVE",
"280 -11 CURVE SMOOTH"
);
}
);
width = 360;
}
);
note = a;
rightKerningGroup = n;
unicode = 0061;
},
{
glyphname = ae;
lastChange = "2021-08-03 16:22:07 +0000";
layers = (
{
anchors = (
{
name = bottom;
position = "{231, 0}";
},
{
name = top;
position = "{387, 300}";
}
);
layerId = "F7E87FDD-B687-450B-8559-2548A76CA810";
paths = (
{
closed = 1;
nodes = (
"326 -8 OFFCURVE",
"331 -8 OFFCURVE",
"336 -7 CURVE SMOOTH",
"417 2 OFFCURVE",
"490 55 OFFCURVE",
"555 153 CURVE SMOOTH",
"560 160 OFFCURVE",
"562 165 OFFCURVE",
"562 168 CURVE SMOOTH",
"562 171 OFFCURVE",
"561 172 OFFCURVE",
"559 172 CURVE SMOOTH",
"554 172 OFFCURVE",
"549 168 OFFCURVE",
"544 160 CURVE SMOOTH",
"510 111 OFFCURVE",
"469 73 OFFCURVE",
"422 46 CURVE SMOOTH",
"386 25 OFFCURVE",
"356 15 OFFCURVE",
"332 15 CURVE SMOOTH",
"301 15 OFFCURVE",
"285 28 OFFCURVE",
"285 55 CURVE SMOOTH",
"285 74 OFFCURVE",
"293 98 OFFCURVE",
"309 127 CURVE",
"352 136 LINE SMOOTH",
"386 143 OFFCURVE",
"416 159 OFFCURVE",
"443 178 CURVE SMOOTH",
"488 211 OFFCURVE",
"511 241 OFFCURVE",
"511 270 CURVE SMOOTH",
"511 279 OFFCURVE",
"508 288 OFFCURVE",
"503 295 CURVE SMOOTH",
"494 308 OFFCURVE",
"479 314 OFFCURVE",
"460 314 CURVE SMOOTH",
"442 314 OFFCURVE",
"416 302 OFFCURVE",
"382 277 CURVE",
"365 293 OFFCURVE",
"340 301 OFFCURVE",
"305 301 CURVE SMOOTH",
"264 301 OFFCURVE",
"221 285 OFFCURVE",
"176 252 CURVE SMOOTH",
"141 226 OFFCURVE",
"114 200 OFFCURVE",
"97 173 CURVE SMOOTH",
"70 129 OFFCURVE",
"56 92 OFFCURVE",
"56 63 CURVE SMOOTH",
"56 27 OFFCURVE",
"76 4 OFFCURVE",
"116 -5 CURVE SMOOTH",
"148 -12 OFFCURVE",
"193 27 OFFCURVE",
"251 113 CURVE",
"244 95 OFFCURVE",
"241 79 OFFCURVE",
"241 64 CURVE SMOOTH",
"241 38 OFFCURVE",
"251 19 OFFCURVE",
"270 6 CURVE SMOOTH",
"284 -3 OFFCURVE",
"301 -8 OFFCURVE",
"321 -8 CURVE SMOOTH"
);
},
{
closed = 1;
nodes = (
"103 16 OFFCURVE",
"97 28 OFFCURVE",
"97 45 CURVE SMOOTH",
"97 76 OFFCURVE",
"115 117 OFFCURVE",
"151 167 CURVE SMOOTH",
"202 236 OFFCURVE",
"271 281 OFFCURVE",
"326 281 CURVE SMOOTH",
"343 281 OFFCURVE",
"358 277 OFFCURVE",
"370 268 CURVE",
"356 257 OFFCURVE",
"343 246 OFFCURVE",
"331 234 CURVE",
"319 235 OFFCURVE",
"311 231 OFFCURVE",
"306 223 CURVE SMOOTH",
"289 193 OFFCURVE",
"260 152 OFFCURVE",
"218 100 CURVE SMOOTH",
"166 34 OFFCURVE",
"132 4 OFFCURVE",
"116 11 CURVE SMOOTH"
);
},
{
closed = 1;
nodes = (
"318 144 OFFCURVE",
"317 144 OFFCURVE",
"318 145 CURVE SMOOTH",
"351 188 OFFCURVE",
"388 226 OFFCURVE",
"427 259 CURVE SMOOTH",
"453 280 OFFCURVE",
"471 291 OFFCURVE",
"480 291 CURVE SMOOTH",
"485 291 OFFCURVE",
"487 288 OFFCURVE",
"487 282 CURVE SMOOTH",
"487 277 OFFCURVE",
"485 269 OFFCURVE",
"480 259 CURVE SMOOTH",
"464 222 OFFCURVE",
"435 192 OFFCURVE",
"393 169 CURVE SMOOTH",
"363 152 OFFCURVE",
"339 144 OFFCURVE",
"321 144 CURVE SMOOTH"
);
}
);
width = 462;
}
);
note = ae;
unicode = 00E6;
},
{
glyphname = b;
lastChange = "2021-08-03 00:54:19 +0000";
layers = (
{
layerId = "F7E87FDD-B687-450B-8559-2548A76CA810";
paths = (
{
closed = 1;
nodes = (
"129 -16 OFFCURVE",
"164 -3 OFFCURVE",
"204 24 CURVE SMOOTH",
"239 47 OFFCURVE",
"269 74 OFFCURVE",
"295 105 CURVE SMOOTH",
"347 166 OFFCURVE",
"373 219 OFFCURVE",
"373 264 CURVE SMOOTH",
"373 280 OFFCURVE",
"367 288 OFFCURVE",
"355 288 CURVE SMOOTH",
"333 290 OFFCURVE",
"317 292 OFFCURVE",
"308 295 CURVE",
"285 295 OFFCURVE",
"247 270 OFFCURVE",
"195 220 CURVE SMOOTH",
"154 180 OFFCURVE",
"131 158 OFFCURVE",
"125 151 CURVE",
"216 330 OFFCURVE",
"289 441 OFFCURVE",
"344 483 CURVE SMOOTH",
"349 486 OFFCURVE",
"351 491 OFFCURVE",
"351 498 CURVE SMOOTH",
"351 503 OFFCURVE",
"348 506 OFFCURVE",
"341 507 CURVE SMOOTH",
"311 510 OFFCURVE",
"291 505 OFFCURVE",
"280 491 CURVE SMOOTH",
"235 432 OFFCURVE",
"184 350 OFFCURVE",
"128 246 CURVE SMOOTH",
"108 209 OFFCURVE",
"89 168 OFFCURVE",
"70 123 CURVE SMOOTH",
"49 72 OFFCURVE",
"39 39 OFFCURVE",
"39 24 CURVE SMOOTH",
"39 21 OFFCURVE",
"39 18 OFFCURVE",
"40 17 CURVE SMOOTH",
"54 -5 OFFCURVE",
"74 -16 OFFCURVE",
"100 -16 CURVE SMOOTH"
);
},
{
closed = 1;
nodes = (
"77 16 OFFCURVE",
"71 21 OFFCURVE",
"71 31 CURVE SMOOTH",
"71 57 OFFCURVE",
"104 103 OFFCURVE",
"169 169 CURVE SMOOTH",
"238 237 OFFCURVE",
"285 272 OFFCURVE",
"311 272 CURVE SMOOTH",
"320 272 OFFCURVE",
"324 267 OFFCURVE",
"324 257 CURVE SMOOTH",
"324 230 OFFCURVE",
"302 188 OFFCURVE",
"258 129 CURVE SMOOTH",
"236 100 OFFCURVE",
"207 73 OFFCURVE",
"171 50 CURVE SMOOTH",
"136 27 OFFCURVE",
"108 16 OFFCURVE",
"88 16 CURVE SMOOTH"
);
}
);
width = 322;
}
);
note = b;
unicode = 0062;
},
{
glyphname = c;
lastChange = "2021-08-03 21:40:11 +0000";
layers = (
{
anchors = (
{
name = bottom;
position = "{141, 0}";
},
{
name = top;
position = "{237, 300}";
}
);
background = {
paths = (
{
closed = 1;
nodes = (
"395 163 OFFCURVE",
"398 170 OFFCURVE",
"398 173 CURVE SMOOTH",
"398 174 OFFCURVE",
"397 175 OFFCURVE",
"395 175 CURVE SMOOTH",
"389 175 OFFCURVE",
"382 170 OFFCURVE",
"375 160 CURVE SMOOTH",
"343 115 OFFCURVE",
"305 78 OFFCURVE",
"260 49 CURVE SMOOTH",
"219 22 OFFCURVE",
"182 9 OFFCURVE",
"151 9 CURVE SMOOTH",
"142 9 OFFCURVE",
"135 10 OFFCURVE",
"128 13 CURVE SMOOTH",
"111 20 OFFCURVE",
"102 38 OFFCURVE",
"102 67 CURVE SMOOTH",
"102 97 OFFCURVE",
"114 131 OFFCURVE",
"137 169 CURVE SMOOTH",
"158 204 OFFCURVE",
"182 233 OFFCURVE",
"208 254 CURVE SMOOTH",
"232 275 OFFCURVE",
"253 285 OFFCURVE",
"271 285 CURVE SMOOTH",
"286 285 OFFCURVE",
"296 278 OFFCURVE",
"301 264 CURVE SMOOTH",
"305 254 OFFCURVE",
"311 249 OFFCURVE",
"319 249 CURVE SMOOTH",
"330 249 OFFCURVE",
"336 255 OFFCURVE",
"336 267 CURVE SMOOTH",
"336 274 OFFCURVE",
"333 281 OFFCURVE",
"326 288 CURVE SMOOTH",
"313 303 OFFCURVE",
"295 310 OFFCURVE",
"273 310 CURVE SMOOTH",
"256 310 OFFCURVE",
"237 306 OFFCURVE",
"216 297 CURVE SMOOTH",
"202 291 OFFCURVE",
"185 280 OFFCURVE",
"164 263 CURVE SMOOTH",
"99 211 OFFCURVE",
"55 135 OFFCURVE",
"55 82 CURVE SMOOTH",
"55 33 OFFCURVE",
"85 3 OFFCURVE",
"144 -8 CURVE SMOOTH",
"171 -13 OFFCURVE",
"209 1 OFFCURVE",
"260 32 CURVE SMOOTH",
"316 66 OFFCURVE",
"359 107 OFFCURVE",
"389 154 CURVE SMOOTH"
);
}
);
};
guideLines = (
{
position = "{398, 300}";
}
);
layerId = "F7E87FDD-B687-450B-8559-2548A76CA810";
paths = (
{
closed = 1;
nodes = (
"186 -8 OFFCURVE",
"209 1 OFFCURVE",
"260 32 CURVE SMOOTH",
"316 66 OFFCURVE",
"359 107 OFFCURVE",
"389 154 CURVE SMOOTH",
"395 163 OFFCURVE",
"398 170 OFFCURVE",
"398 173 CURVE SMOOTH",
"398 174 OFFCURVE",
"397 175 OFFCURVE",
"395 175 CURVE SMOOTH",
"389 175 OFFCURVE",
"382 170 OFFCURVE",
"375 160 CURVE SMOOTH",
"343 115 OFFCURVE",
"305 78 OFFCURVE",
"260 49 CURVE SMOOTH",
"219 22 OFFCURVE",
"182 9 OFFCURVE",
"151 9 CURVE SMOOTH",
"142 9 OFFCURVE",
"135 10 OFFCURVE",
"128 13 CURVE SMOOTH",
"111 20 OFFCURVE",
"102 38 OFFCURVE",
"102 67 CURVE SMOOTH",
"102 97 OFFCURVE",
"114 131 OFFCURVE",
"137 169 CURVE SMOOTH",
"158 204 OFFCURVE",
"182 233 OFFCURVE",
"208 254 CURVE SMOOTH",
"232 275 OFFCURVE",
"253 285 OFFCURVE",
"271 285 CURVE SMOOTH",
"286 285 OFFCURVE",
"296 278 OFFCURVE",
"301 264 CURVE SMOOTH",
"305 254 OFFCURVE",
"311 249 OFFCURVE",
"319 249 CURVE SMOOTH",
"330 249 OFFCURVE",
"336 255 OFFCURVE",
"336 267 CURVE SMOOTH",
"336 274 OFFCURVE",
"333 281 OFFCURVE",
"326 288 CURVE SMOOTH",
"313 303 OFFCURVE",
"295 310 OFFCURVE",
"273 310 CURVE SMOOTH",
"256 310 OFFCURVE",
"237 306 OFFCURVE",
"216 297 CURVE SMOOTH",
"202 291 OFFCURVE",
"185 280 OFFCURVE",
"164 263 CURVE SMOOTH",
"99 211 OFFCURVE",
"55 135 OFFCURVE",
"55 82 CURVE SMOOTH",
"55 23 OFFCURVE",
"107 -8 OFFCURVE",
"149 -8 CURVE SMOOTH"
);
}
);
width = 282;
}
);
note = c;
rightKerningGroup = n;
unicode = 0063;
},
{
glyphname = d;
lastChange = "2021-08-03 00:54:19 +0000";
layers = (
{
anchors = (
{
name = bottom;
position = "{122, 0}";
},
{
name = center;
position = "{350, 361}";
},
{
name = top;
position = "{462, 500}";
},
{
name = topright;
position = "{520, 544}";
}
);
guideLines = (
{
position = "{446, 500}";
}
);
layerId = "F7E87FDD-B687-450B-8559-2548A76CA810";
paths = (
{
closed = 1;
nodes = (
"294 -11 OFFCURVE",
"301 -10 OFFCURVE",
"308 -8 CURVE SMOOTH",
"325 -3 OFFCURVE",
"349 13 OFFCURVE",
"378 38 CURVE SMOOTH",
"416 71 OFFCURVE",
"449 109 OFFCURVE",
"478 154 CURVE SMOOTH",
"484 163 OFFCURVE",
"487 170 OFFCURVE",
"487 173 CURVE SMOOTH",
"487 174 OFFCURVE",
"486 175 OFFCURVE",
"484 175 CURVE SMOOTH",
"478 175 OFFCURVE",
"471 170 OFFCURVE",
"464 160 CURVE SMOOTH",
"429 111 OFFCURVE",
"392 72 OFFCURVE",
"353 43 CURVE SMOOTH",
"325 22 OFFCURVE",
"303 11 OFFCURVE",
"289 11 CURVE SMOOTH",
"276 11 OFFCURVE",
"270 21 OFFCURVE",
"270 39 CURVE SMOOTH",
"270 88 OFFCURVE",
"296 155 OFFCURVE",
"346 240 CURVE SMOOTH",
"359 262 LINE",
"363 258 LINE SMOOTH",
"366 255 OFFCURVE",
"367 256 OFFCURVE",
"368 260 CURVE SMOOTH",
"369 265 OFFCURVE",
"369 269 OFFCURVE",
"366 274 CURVE",
"498 493 LINE SMOOTH",
"500 496 OFFCURVE",
"494 498 OFFCURVE",
"479 498 CURVE SMOOTH",
"446 498 OFFCURVE",
"428 492 OFFCURVE",
"423 480 CURVE SMOOTH",
"410 448 OFFCURVE",
"389 403 OFFCURVE",
"359 349 CURVE SMOOTH",
"329 295 LINE",
"315 300 OFFCURVE",
"301 302 OFFCURVE",
"286 302 CURVE SMOOTH",
"245 302 OFFCURVE",
"202 285 OFFCURVE",
"157 252 CURVE SMOOTH",
"122 227 OFFCURVE",
"95 200 OFFCURVE",
"78 173 CURVE SMOOTH",
"51 129 OFFCURVE",
"37 92 OFFCURVE",
"37 63 CURVE SMOOTH",
"37 27 OFFCURVE",
"57 4 OFFCURVE",
"97 -5 CURVE SMOOTH",
"100 -6 OFFCURVE",
"102 -6 OFFCURVE",
"105 -6 CURVE SMOOTH",
"128 -6 OFFCURVE",
"157 15 OFFCURVE",
"193 58 CURVE SMOOTH",
"217 88 OFFCURVE",
"234 111 OFFCURVE",
"243 128 CURVE",
"232 93 OFFCURVE",
"227 63 OFFCURVE",
"227 40 CURVE SMOOTH",
"227 31 OFFCURVE",
"228 24 OFFCURVE",
"230 19 CURVE SMOOTH",
"237 4 OFFCURVE",
"262 -11 OFFCURVE",
"287 -11 CURVE SMOOTH"
);
},
{
closed = 1;
nodes = (
"84 16 OFFCURVE",
"78 28 OFFCURVE",
"78 45 CURVE SMOOTH",
"78 76 OFFCURVE",
"93 117 OFFCURVE",
"132 167 CURVE SMOOTH",
"187 237 OFFCURVE",
"253 281 OFFCURVE",
"308 281 CURVE SMOOTH",
"312 281 OFFCURVE",
"317 281 OFFCURVE",
"321 280 CURVE",
"303 253 OFFCURVE",
"292 234 OFFCURVE",
"287 223 CURVE",
"268 191 OFFCURVE",
"239 150 OFFCURVE",
"199 100 CURVE SMOOTH",
"147 34 OFFCURVE",
"113 4 OFFCURVE",
"97 11 CURVE SMOOTH"
);
}
);
width = 378;
}
);
note = d;
unicode = 0064;
},
{
glyphname = eth;
lastChange = "2021-08-03 16:22:02 +0000";
layers = (
{
layerId = "F7E87FDD-B687-450B-8559-2548A76CA810";
paths = (
{
closed = 1;
nodes = (
"223 -1 OFFCURVE",
"349 222 OFFCURVE",
"383 312 CURVE SMOOTH",
"386 319 LINE SMOOTH",
"400 356 OFFCURVE",
"407 391 OFFCURVE",
"407 420 CURVE SMOOTH",
"407 441 OFFCURVE",
"404 459 OFFCURVE",
"397 474 CURVE",
"449 506 LINE",
"453 510 OFFCURVE",
"456 514 OFFCURVE",
"457 519 CURVE SMOOTH",
"458 522 OFFCURVE",
"458 525 OFFCURVE",
"459 526 CURVE",
"459 532 OFFCURVE",
"457 538 OFFCURVE",
"451 538 CURVE SMOOTH",
"449 538 OFFCURVE",
"446 538 OFFCURVE",
"444 535 CURVE",
"381 495 LINE",
"365 510 OFFCURVE",
"342 519 OFFCURVE",
"310 519 CURVE SMOOTH",
"292 519 OFFCURVE",
"273 516 OFFCURVE",
"249 511 CURVE SMOOTH",
"232 507 OFFCURVE",
"226 499 OFFCURVE",
"226 496 CURVE SMOOTH",
"226 493 OFFCURVE",
"229 492 OFFCURVE",
"231 492 CURVE SMOOTH",
"233 492 OFFCURVE",
"235 492 OFFCURVE",
"236 493 CURVE",
"252 498 OFFCURVE",
"267 503 OFFCURVE",
"279 503 CURVE SMOOTH",
"312 503 OFFCURVE",
"334 493 OFFCURVE",
"347 474 CURVE",
"278 430 LINE SMOOTH",
"273 427 OFFCURVE",
"270 422 OFFCURVE",
"269 419 CURVE",
"267 416 OFFCURVE",
"267 412 OFFCURVE",
"267 409 CURVE SMOOTH",
"267 405 OFFCURVE",
"269 399 OFFCURVE",
"274 399 CURVE SMOOTH",
"276 399 OFFCURVE",
"278 400 OFFCURVE",
"281 402 CURVE SMOOTH",
"357 448 LINE",
"359 440 OFFCURVE",
"360 431 OFFCURVE",
"360 422 CURVE SMOOTH",
"360 391 OFFCURVE",
"350 351 OFFCURVE",
"334 310 CURVE SMOOTH",
"322 277 OFFCURVE",
"305 241 OFFCURVE",
"287 207 CURVE SMOOTH",
"267 169 OFFCURVE",
"190 32 OFFCURVE",
"141 32 CURVE SMOOTH",
"129 32 OFFCURVE",
"124 42 OFFCURVE",
"124 58 CURVE SMOOTH",
"124 82 OFFCURVE",
"135 119 OFFCURVE",
"147 151 CURVE SMOOTH",
"157 175 OFFCURVE",
"166 196 OFFCURVE",
"170 203 CURVE SMOOTH",
"197 258 OFFCURVE",
"237 314 OFFCURVE",
"260 314 CURVE SMOOTH",
"281 314 OFFCURVE",
"289 291 OFFCURVE",
"292 279 CURVE",
"292 274 OFFCURVE",
"295 272 OFFCURVE",
"298 272 CURVE SMOOTH",
"305 272 OFFCURVE",
"315 281 OFFCURVE",
"318 291 CURVE SMOOTH",
"319 293 OFFCURVE",
"319 296 OFFCURVE",
"319 299 CURVE SMOOTH",
"319 314 OFFCURVE",
"298 331 OFFCURVE",
"268 331 CURVE SMOOTH",
"194 331 OFFCURVE",
"127 243 OFFCURVE",
"95 158 CURVE SMOOTH",
"82 125 OFFCURVE",
"75 92 OFFCURVE",
"75 65 CURVE SMOOTH",
"75 26 OFFCURVE",
"90 -1 OFFCURVE",
"124 -1 CURVE SMOOTH"
);
}
);
width = 360;
}
);
unicode = 00F0;
},
{
glyphname = e;
lastChange = "2021-08-03 21:40:00 +0000";
layers = (
{
anchors = (
{
name = bottom;
position = "{126, 0}";
},
{
name = ogonek;
position = "{195, 15}";
},
{
name = top;
position = "{236, 300}";
}
);
layerId = "F7E87FDD-B687-450B-8559-2548A76CA810";
paths = (
{
closed = 1;
nodes = (
"117 -8 OFFCURVE",
"122 -8 OFFCURVE",
"127 -7 CURVE SMOOTH",
"208 2 OFFCURVE",
"281 55 OFFCURVE",
"346 153 CURVE SMOOTH",
"351 160 OFFCURVE",
"353 165 OFFCURVE",
"353 168 CURVE SMOOTH",
"353 171 OFFCURVE",
"352 172 OFFCURVE",
"350 172 CURVE SMOOTH",
"345 172 OFFCURVE",
"340 168 OFFCURVE",
"335 160 CURVE SMOOTH",
"301 111 OFFCURVE",
"260 73 OFFCURVE",
"213 46 CURVE SMOOTH",
"177 25 OFFCURVE",
"147 15 OFFCURVE",
"123 15 CURVE SMOOTH",
"92 15 OFFCURVE",
"76 28 OFFCURVE",
"76 55 CURVE SMOOTH",
"76 74 OFFCURVE",
"84 98 OFFCURVE",
"100 127 CURVE",
"143 136 LINE SMOOTH",
"177 143 OFFCURVE",
"207 159 OFFCURVE",
"234 178 CURVE SMOOTH",
"279 211 OFFCURVE",
"302 241 OFFCURVE",
"302 270 CURVE SMOOTH",
"302 279 OFFCURVE",
"299 288 OFFCURVE",
"294 295 CURVE SMOOTH",
"285 308 OFFCURVE",
"270 314 OFFCURVE",
"251 314 CURVE SMOOTH",
"236 314 OFFCURVE",
"220 309 OFFCURVE",
"205 299 CURVE SMOOTH",
"144 260 OFFCURVE",
"98 215 OFFCURVE",
"67 164 CURVE SMOOTH",
"44 125 OFFCURVE",
"32 92 OFFCURVE",
"32 64 CURVE SMOOTH",
"32 38 OFFCURVE",
"42 19 OFFCURVE",
"61 6 CURVE SMOOTH",
"75 -3 OFFCURVE",
"92 -8 OFFCURVE",
"112 -8 CURVE SMOOTH"
);
},
{
closed = 1;
nodes = (
"109 144 OFFCURVE",
"108 144 OFFCURVE",
"109 145 CURVE SMOOTH",
"142 188 OFFCURVE",
"179 226 OFFCURVE",
"218 259 CURVE SMOOTH",
"244 280 OFFCURVE",
"262 291 OFFCURVE",
"271 291 CURVE SMOOTH",
"276 291 OFFCURVE",
"278 288 OFFCURVE",
"278 282 CURVE SMOOTH",
"278 277 OFFCURVE",
"276 269 OFFCURVE",
"271 259 CURVE SMOOTH",
"254 222 OFFCURVE",
"225 192 OFFCURVE",
"184 169 CURVE SMOOTH",
"154 152 OFFCURVE",
"130 144 OFFCURVE",
"112 144 CURVE SMOOTH"
);
}
);
width = 252;
}
);
note = e;
rightKerningGroup = n;
unicode = 0065;
},
{
glyphname = schwa;
lastChange = "2021-08-03 16:22:07 +0000";
layers = (
{
layerId = "F7E87FDD-B687-450B-8559-2548A76CA810";
paths = (
{
closed = 1;
nodes = (
"134 -4 OFFCURVE",
"150 1 OFFCURVE",
"165 11 CURVE SMOOTH",
"226 50 OFFCURVE",
"272 95 OFFCURVE",
"303 146 CURVE SMOOTH",
"326 185 OFFCURVE",
"338 218 OFFCURVE",
"338 246 CURVE SMOOTH",
"338 272 OFFCURVE",
"328 291 OFFCURVE",
"309 304 CURVE SMOOTH",
"295 313 OFFCURVE",
"278 318 OFFCURVE",
"258 318 CURVE SMOOTH",
"253 318 OFFCURVE",
"248 318 OFFCURVE",
"243 317 CURVE SMOOTH",
"162 308 OFFCURVE",
"89 255 OFFCURVE",
"24 157 CURVE SMOOTH",
"19 150 OFFCURVE",
"17 145 OFFCURVE",
"17 142 CURVE SMOOTH",
"17 139 OFFCURVE",
"18 138 OFFCURVE",
"20 138 CURVE SMOOTH",
"25 138 OFFCURVE",
"30 142 OFFCURVE",
"35 150 CURVE SMOOTH",
"69 199 OFFCURVE",
"110 237 OFFCURVE",
"157 264 CURVE SMOOTH",
"193 285 OFFCURVE",
"223 295 OFFCURVE",
"247 295 CURVE SMOOTH",
"278 295 OFFCURVE",
"294 282 OFFCURVE",
"294 255 CURVE SMOOTH",
"294 236 OFFCURVE",
"286 212 OFFCURVE",
"270 183 CURVE",
"227 174 LINE SMOOTH",
"193 165 OFFCURVE",
"163 151 OFFCURVE",
"136 132 CURVE SMOOTH",
"91 99 OFFCURVE",
"68 69 OFFCURVE",
"68 40 CURVE SMOOTH",
"68 31 OFFCURVE",
"71 22 OFFCURVE",
"76 15 CURVE SMOOTH",
"85 2 OFFCURVE",
"100 -4 OFFCURVE",
"119 -4 CURVE SMOOTH"
);
},
{
closed = 1;
nodes = (
"94 19 OFFCURVE",
"92 22 OFFCURVE",
"92 28 CURVE SMOOTH",
"92 33 OFFCURVE",
"94 41 OFFCURVE",
"99 51 CURVE SMOOTH",
"116 88 OFFCURVE",
"145 118 OFFCURVE",
"186 141 CURVE SMOOTH",
"216 158 OFFCURVE",
"240 166 OFFCURVE",
"258 166 CURVE SMOOTH",
"261 166 OFFCURVE",
"262 166 OFFCURVE",
"261 165 CURVE SMOOTH",
"228 122 OFFCURVE",
"191 84 OFFCURVE",
"152 51 CURVE SMOOTH",
"126 30 OFFCURVE",
"108 19 OFFCURVE",
"99 19 CURVE SMOOTH"
);
}
);
width = 313;
}
);
unicode = 0259;
},
{
glyphname = f;
lastChange = "2021-08-03 16:22:02 +0000";
layers = (
{
layerId = "F7E87FDD-B687-450B-8559-2548A76CA810";
paths = (
{
closed = 1;
nodes = (
"126 -49 OFFCURVE",
"130 -47 OFFCURVE",
"130 -42 CURVE SMOOTH",
"130 -41 OFFCURVE",
"109 -36 OFFCURVE",
"109 -11 CURVE SMOOTH",
"109 20 OFFCURVE",
"125 75 OFFCURVE",
"157 152 CURVE SMOOTH",
"183 216 OFFCURVE",
"206 265 OFFCURVE",
"226 300 CURVE",
"311 315 OFFCURVE",
"357 326 OFFCURVE",
"363 331 CURVE",
"365 335 OFFCURVE",
"351 335 OFFCURVE",
"323 335 CURVE SMOOTH",
"310 335 OFFCURVE",
"295 334 OFFCURVE",
"279 333 CURVE SMOOTH",
"257 332 OFFCURVE",
"244 330 OFFCURVE",
"240 329 CURVE",
"249 347 OFFCURVE",
"264 373 OFFCURVE",
"287 407 CURVE SMOOTH",
"308 437 OFFCURVE",
"322 457 OFFCURVE",
"331 467 CURVE SMOOTH",
"346 484 OFFCURVE",
"362 492 OFFCURVE",
"381 492 CURVE SMOOTH",
"394 492 OFFCURVE",
"402 486 OFFCURVE",
"406 475 CURVE SMOOTH",
"413 456 OFFCURVE",
"422 446 OFFCURVE",
"434 446 CURVE SMOOTH",
"444 446 OFFCURVE",
"449 453 OFFCURVE",
"449 466 CURVE SMOOTH",
"449 472 OFFCURVE",
"448 478 OFFCURVE",
"445 485 CURVE SMOOTH",
"437 504 OFFCURVE",
"420 515 OFFCURVE",
"394 515 CURVE SMOOTH",
"360 515 OFFCURVE",
"336 508 OFFCURVE",
"319 500 CURVE SMOOTH",
"302 490 OFFCURVE",
"282 471 OFFCURVE",
"261 443 CURVE SMOOTH",
"229 394 OFFCURVE",
"205 354 OFFCURVE",
"188 325 CURVE",
"104 313 LINE SMOOTH",
"100 312 OFFCURVE",
"95 303 OFFCURVE",
"95 289 CURVE SMOOTH",
"95 286 OFFCURVE",
"96 284 OFFCURVE",
"98 283 CURVE",
"103 282 OFFCURVE",
"114 284 OFFCURVE",
"131 287 CURVE SMOOTH",
"174 294 LINE",
"134 201 OFFCURVE",
"110 144 OFFCURVE",
"103 123 CURVE SMOOTH",
"85 73 OFFCURVE",
"76 33 OFFCURVE",
"76 4 CURVE SMOOTH",
"76 -32 OFFCURVE",
"90 -49 OFFCURVE",
"119 -49 CURVE SMOOTH"
);
}
);
width = 230;
}
);
note = f;
unicode = 0066;
},
{
glyphname = g;
lastChange = "2021-08-03 01:20:11 +0000";
layers = (
{
anchors = (
{
name = bottom;
position = "{-3, -300}";
},
{
name = top;
position = "{272, 300}";
}
);
layerId = "F7E87FDD-B687-450B-8559-2548A76CA810";
paths = (
{
closed = 1;
nodes = (
"32 -308 OFFCURVE",
"70 -285 OFFCURVE",
"110 -240 CURVE SMOOTH",
"177 -164 OFFCURVE",
"233 -68 OFFCURVE",
"279 47 CURVE",
"296 56 OFFCURVE",
"312 63 OFFCURVE",
"325 68 CURVE SMOOTH",
"342 74 OFFCURVE",
"350 80 OFFCURVE",
"350 87 CURVE SMOOTH",
"350 90 OFFCURVE",
"347 91 OFFCURVE",
"342 91 CURVE SMOOTH",
"330 91 OFFCURVE",
"313 85 OFFCURVE",
"291 72 CURVE",
"314 135 OFFCURVE",
"330 179 OFFCURVE",
"339 206 CURVE",
"341 209 OFFCURVE",
"342 212 OFFCURVE",
"342 215 CURVE SMOOTH",
"342 227 OFFCURVE",
"334 233 OFFCURVE",
"318 233 CURVE SMOOTH",
"309 233 OFFCURVE",
"303 230 OFFCURVE",
"298 223 CURVE SMOOTH",
"278 193 OFFCURVE",
"244 152 OFFCURVE",
"197 100 CURVE SMOOTH",
"138 35 OFFCURVE",
"101 5 OFFCURVE",
"86 11 CURVE SMOOTH",
"75 16 OFFCURVE",
"70 25 OFFCURVE",
"70 39 CURVE SMOOTH",
"70 70 OFFCURVE",
"92 112 OFFCURVE",
"137 167 CURVE SMOOTH",
"194 236 OFFCURVE",
"268 281 OFFCURVE",
"323 281 CURVE SMOOTH",
"347 281 OFFCURVE",
"365 273 OFFCURVE",
"378 258 CURVE SMOOTH",
"379 257 OFFCURVE",
"379 257 OFFCURVE",
"380 257 CURVE SMOOTH",
"383 257 OFFCURVE",
"384 260 OFFCURVE",
"384 266 CURVE SMOOTH",
"384 272 OFFCURVE",
"381 277 OFFCURVE",
"375 281 CURVE SMOOTH",
"354 294 OFFCURVE",
"330 301 OFFCURVE",
"304 301 CURVE SMOOTH",
"263 301 OFFCURVE",
"218 285 OFFCURVE",
"170 252 CURVE SMOOTH",
"132 227 OFFCURVE",
"103 200 OFFCURVE",
"83 173 CURVE SMOOTH",
"48 125 OFFCURVE",
"30 86 OFFCURVE",
"30 55 CURVE SMOOTH",
"30 24 OFFCURVE",
"48 4 OFFCURVE",
"84 -5 CURVE SMOOTH",
"107 -11 OFFCURVE",
"147 17 OFFCURVE",
"203 79 CURVE SMOOTH",
"250 129 OFFCURVE",
"274 158 OFFCURVE",
"278 167 CURVE",
"259 108 OFFCURVE",
"245 66 OFFCURVE",
"233 37 CURVE",
"185 6 OFFCURVE",
"138 -31 OFFCURVE",
"93 -74 CURVE SMOOTH",
"44 -119 OFFCURVE",
"9 -160 OFFCURVE",
"-14 -196 CURVE SMOOTH",
"-32 -225 OFFCURVE",
"-41 -250 OFFCURVE",
"-41 -270 CURVE SMOOTH",
"-41 -295 OFFCURVE",
"-28 -308 OFFCURVE",
"-3 -308 CURVE SMOOTH"
);
},
{
closed = 1;
nodes = (
"6 -287 OFFCURVE",
"0 -279 OFFCURVE",
"0 -262 CURVE SMOOTH",
"0 -245 OFFCURVE",
"7 -224 OFFCURVE",
"22 -200 CURVE SMOOTH",
"65 -129 OFFCURVE",
"131 -60 OFFCURVE",
"220 6 CURVE",
"176 -101 OFFCURVE",
"124 -189 OFFCURVE",
"64 -256 CURVE SMOOTH",
"46 -277 OFFCURVE",
"31 -287 OFFCURVE",
"18 -287 CURVE SMOOTH"
);
}
);
width = 341;
}
);
note = g;
unicode = 0067;
},
{
glyphname = h;
lastChange = "2021-08-03 21:39:30 +0000";
layers = (
{
anchors = (
{
name = bottom;
position = "{139, 0}";
},
{
name = center;
position = "{205, 365}";
},
{
name = top;
position = "{310, 500}";
}
);
guideLines = (
{
position = "{231, 500}";
}
);
layerId = "F7E87FDD-B687-450B-8559-2548A76CA810";
paths = (
{
closed = 1;
nodes = (
"287 -13 OFFCURVE",
"318 1 OFFCURVE",
"365 32 CURVE SMOOTH",
"417 67 OFFCURVE",
"458 108 OFFCURVE",
"487 154 CURVE SMOOTH",
"493 163 OFFCURVE",
"496 170 OFFCURVE",
"496 173 CURVE SMOOTH",
"496 174 OFFCURVE",
"495 175 OFFCURVE",
"493 175 CURVE SMOOTH",
"487 175 OFFCURVE",
"480 170 OFFCURVE",
"473 160 CURVE SMOOTH",
"439 113 OFFCURVE",
"397 73 OFFCURVE",
"347 41 CURVE SMOOTH",
"305 14 OFFCURVE",
"279 3 OFFCURVE",
"268 8 CURVE SMOOTH",
"263 10 OFFCURVE",
"261 15 OFFCURVE",
"261 22 CURVE SMOOTH",
"261 57 OFFCURVE",
"297 124 OFFCURVE",
"369 225 CURVE SMOOTH",
"382 243 OFFCURVE",
"388 258 OFFCURVE",
"388 270 CURVE SMOOTH",
"388 290 OFFCURVE",
"374 300 OFFCURVE",
"347 300 CURVE SMOOTH",
"335 300 OFFCURVE",
"324 298 OFFCURVE",
"315 294 CURVE SMOOTH",
"276 276 OFFCURVE",
"240 249 OFFCURVE",
"207 212 CURVE SMOOTH",
"194 197 OFFCURVE",
"176 178 OFFCURVE",
"151 155 CURVE SMOOTH",
"127 132 OFFCURVE",
"114 121 OFFCURVE",
"113 120 CURVE",
"180 298 OFFCURVE",
"257 420 OFFCURVE",
"345 485 CURVE SMOOTH",
"349 488 OFFCURVE",
"351 490 OFFCURVE",
"351 493 CURVE SMOOTH",
"351 502 OFFCURVE",
"339 507 OFFCURVE",
"316 507 CURVE SMOOTH",
"302 507 OFFCURVE",
"291 504 OFFCURVE",
"283 498 CURVE SMOOTH",
"254 476 OFFCURVE",
"200 388 OFFCURVE",
"121 235 CURVE SMOOTH",
"73 142 OFFCURVE",
"38 66 OFFCURVE",
"16 5 CURVE SMOOTH",
"13 -4 OFFCURVE",
"28 -7 OFFCURVE",
"56 -7 CURVE SMOOTH",
"62 -7 OFFCURVE",
"66 -6 OFFCURVE",
"67 -5 CURVE",
"112 70 OFFCURVE",
"163 137 OFFCURVE",
"222 196 CURVE SMOOTH",
"272 248 OFFCURVE",
"306 273 OFFCURVE",
"322 273 CURVE SMOOTH",
"329 273 OFFCURVE",
"332 269 OFFCURVE",
"332 264 CURVE SMOOTH",
"332 253 OFFCURVE",
"310 216 OFFCURVE",
"267 151 CURVE SMOOTH",
"228 93 OFFCURVE",
"208 53 OFFCURVE",
"208 32 CURVE SMOOTH",
"208 9 OFFCURVE",
"241 -13 OFFCURVE",
"270 -10 CURVE"
);
}
);
width = 386;
}
);
note = h;
rightKerningGroup = n;
unicode = 0068;
},
{
glyphname = i;
lastChange = "2021-08-03 21:39:38 +0000";
layers = (
{
layerId = "F7E87FDD-B687-450B-8559-2548A76CA810";
paths = (
{
closed = 1;
nodes = (
"120 -14 OFFCURVE",
"151 0 OFFCURVE",
"198 32 CURVE SMOOTH",
"250 67 OFFCURVE",
"291 108 OFFCURVE",
"320 154 CURVE SMOOTH",
"326 163 OFFCURVE",
"329 170 OFFCURVE",
"329 173 CURVE SMOOTH",
"329 175 OFFCURVE",
"328 176 OFFCURVE",
"326 176 CURVE SMOOTH",
"320 176 OFFCURVE",
"313 171 OFFCURVE",
"306 160 CURVE SMOOTH",
"275 116 OFFCURVE",
"236 78 OFFCURVE",
"190 47 CURVE SMOOTH",
"152 22 OFFCURVE",
"124 9 OFFCURVE",
"105 9 CURVE SMOOTH",
"96 9 OFFCURVE",
"91 16 OFFCURVE",
"91 30 CURVE SMOOTH",
"91 77 OFFCURVE",
"135 164 OFFCURVE",
"223 289 CURVE SMOOTH",
"227 294 OFFCURVE",
"202 302 OFFCURVE",
"182 302 CURVE SMOOTH",
"170 302 OFFCURVE",
"163 299 OFFCURVE",
"160 294 CURVE SMOOTH",
"123 223 OFFCURVE",
"98 174 OFFCURVE",
"84 149 CURVE",
"58 84 OFFCURVE",
"45 47 OFFCURVE",
"45 36 CURVE SMOOTH",
"45 14 OFFCURVE",
"64 -1 OFFCURVE",
"103 -10 CURVE SMOOTH"
);
},
{
closed = 1;
nodes = (
"258 352 OFFCURVE",
"264 360 OFFCURVE",
"273 376 CURVE SMOOTH",
"280 388 OFFCURVE",
"283 397 OFFCURVE",
"283 402 CURVE SMOOTH",
"283 404 OFFCURVE",
"283 405 OFFCURVE",
"282 406 CURVE",
"273 421 OFFCURVE",
"261 428 OFFCURVE",
"246 428 CURVE SMOOTH",
"235 428 OFFCURVE",
"238 424 OFFCURVE",
"215 396 CURVE SMOOTH",
"207 386 OFFCURVE",
"201 378 OFFCURVE",
"201 370 CURVE SMOOTH",
"201 358 OFFCURVE",
"232 348 OFFCURVE",
"254 351 CURVE SMOOTH"
);
}
);
width = 228;
}
);
note = i;
rightKerningGroup = n;
unicode = 0069;
},
{
glyphname = idotless;
lastChange = "2021-08-03 19:48:33 +0000";
layers = (
{
anchors = (
{
name = bottom;
position = "{100, 0}";
},
{
name = ogonek;
position = "{155, 10}";
},
{
name = top;
position = "{194, 300}";
}
);
layerId = "F7E87FDD-B687-450B-8559-2548A76CA810";
paths = (
{
closed = 1;
nodes = (
"120 -14 OFFCURVE",
"151 0 OFFCURVE",
"198 32 CURVE SMOOTH",
"250 67 OFFCURVE",
"291 108 OFFCURVE",
"320 154 CURVE SMOOTH",
"326 163 OFFCURVE",
"329 170 OFFCURVE",
"329 173 CURVE SMOOTH",
"329 175 OFFCURVE",
"328 176 OFFCURVE",
"326 176 CURVE SMOOTH",
"320 176 OFFCURVE",
"313 171 OFFCURVE",
"306 160 CURVE SMOOTH",
"275 116 OFFCURVE",
"236 78 OFFCURVE",
"190 47 CURVE SMOOTH",
"152 22 OFFCURVE",
"124 9 OFFCURVE",
"105 9 CURVE SMOOTH",
"96 9 OFFCURVE",
"91 16 OFFCURVE",
"91 30 CURVE SMOOTH",
"91 77 OFFCURVE",
"135 164 OFFCURVE",
"223 289 CURVE SMOOTH",
"227 294 OFFCURVE",
"202 302 OFFCURVE",
"182 302 CURVE SMOOTH",
"170 302 OFFCURVE",
"163 299 OFFCURVE",
"160 294 CURVE SMOOTH",
"123 223 OFFCURVE",
"98 174 OFFCURVE",
"84 149 CURVE",
"58 84 OFFCURVE",
"45 47 OFFCURVE",
"45 36 CURVE SMOOTH",
"45 14 OFFCURVE",
"64 -1 OFFCURVE",
"103 -10 CURVE SMOOTH"
);
}
);
width = 228;
}
);
note = dotlessi;
unicode = 0131;
},
{
glyphname = j;
lastChange = "2021-08-03 16:22:02 +0000";
layers = (
{
layerId = "F7E87FDD-B687-450B-8559-2548A76CA810";
paths = (
{
closed = 1;
nodes = (
"-76 -308 OFFCURVE",
"-38 -285 OFFCURVE",
"2 -240 CURVE SMOOTH",
"69 -164 OFFCURVE",
"125 -68 OFFCURVE",
"171 47 CURVE",
"188 56 OFFCURVE",
"204 63 OFFCURVE",
"217 68 CURVE SMOOTH",
"234 74 OFFCURVE",
"242 80 OFFCURVE",
"242 87 CURVE SMOOTH",
"242 90 OFFCURVE",
"239 91 OFFCURVE",
"234 91 CURVE SMOOTH",
"222 91 OFFCURVE",
"205 85 OFFCURVE",
"183 72 CURVE",
"206 135 OFFCURVE",
"222 179 OFFCURVE",
"231 206 CURVE",
"233 209 OFFCURVE",
"234 212 OFFCURVE",
"234 215 CURVE SMOOTH",
"234 227 OFFCURVE",
"226 233 OFFCURVE",
"210 233 CURVE SMOOTH",
"201 233 OFFCURVE",
"195 230 OFFCURVE",
"190 223 CURVE SMOOTH",
"175 203 OFFCURVE",
"168 189 OFFCURVE",
"168 180 CURVE SMOOTH",
"168 176 OFFCURVE",
"171 172 OFFCURVE",
"171 169 CURVE SMOOTH",
"171 168 LINE",
"152 109 OFFCURVE",
"137 66 OFFCURVE",
"125 37 CURVE",
"77 6 OFFCURVE",
"30 -31 OFFCURVE",
"-15 -74 CURVE SMOOTH",
"-64 -119 OFFCURVE",
"-99 -160 OFFCURVE",
"-122 -196 CURVE SMOOTH",
"-140 -225 OFFCURVE",
"-149 -250 OFFCURVE",
"-149 -270 CURVE SMOOTH",
"-149 -295 OFFCURVE",
"-136 -308 OFFCURVE",
"-111 -308 CURVE SMOOTH"
);
},
{
closed = 1;
nodes = (
"-102 -287 OFFCURVE",
"-108 -279 OFFCURVE",
"-108 -262 CURVE SMOOTH",
"-108 -245 OFFCURVE",
"-101 -224 OFFCURVE",
"-86 -200 CURVE SMOOTH",
"-43 -129 OFFCURVE",
"23 -60 OFFCURVE",
"112 6 CURVE",
"68 -101 OFFCURVE",
"16 -189 OFFCURVE",
"-44 -256 CURVE SMOOTH",
"-62 -277 OFFCURVE",
"-77 -287 OFFCURVE",
"-90 -287 CURVE SMOOTH"
);
},
{
closed = 1;
nodes = (
"268 352 OFFCURVE",
"274 360 OFFCURVE",
"283 376 CURVE SMOOTH",
"290 388 OFFCURVE",
"294 397 OFFCURVE",
"294 402 CURVE SMOOTH",
"294 404 OFFCURVE",
"294 405 OFFCURVE",
"293 406 CURVE",
"284 421 OFFCURVE",
"272 428 OFFCURVE",
"258 428 CURVE SMOOTH",
"246 428 OFFCURVE",
"249 424 OFFCURVE",
"226 396 CURVE SMOOTH",
"218 386 OFFCURVE",
"212 377 OFFCURVE",
"212 370 CURVE SMOOTH",
"212 358 OFFCURVE",
"242 348 OFFCURVE",
"264 351 CURVE SMOOTH"
);
}
);
width = 210;
}
);
note = j;
unicode = 006A;
},
{
glyphname = jdotless;
lastChange = "2021-08-03 16:22:02 +0000";
layers = (
{
anchors = (
{
name = bottom;
position = "{105, -300}";
},
{
name = top;
position = "{210, 233}";
}
);
layerId = "F7E87FDD-B687-450B-8559-2548A76CA810";
paths = (
{
closed = 1;
nodes = (
"-76 -308 OFFCURVE",
"-38 -285 OFFCURVE",
"2 -240 CURVE SMOOTH",
"69 -164 OFFCURVE",
"125 -68 OFFCURVE",
"171 47 CURVE",
"188 56 OFFCURVE",
"204 63 OFFCURVE",
"217 68 CURVE SMOOTH",
"234 74 OFFCURVE",
"242 80 OFFCURVE",
"242 87 CURVE SMOOTH",
"242 90 OFFCURVE",
"239 91 OFFCURVE",
"234 91 CURVE SMOOTH",
"222 91 OFFCURVE",
"205 85 OFFCURVE",
"183 72 CURVE",
"206 135 OFFCURVE",
"222 179 OFFCURVE",
"231 206 CURVE",
"233 209 OFFCURVE",
"234 212 OFFCURVE",
"234 215 CURVE SMOOTH",
"234 227 OFFCURVE",
"226 233 OFFCURVE",
"210 233 CURVE SMOOTH",
"201 233 OFFCURVE",
"195 230 OFFCURVE",
"190 223 CURVE SMOOTH",
"175 203 OFFCURVE",
"168 189 OFFCURVE",
"168 180 CURVE SMOOTH",
"168 176 OFFCURVE",
"171 172 OFFCURVE",
"171 169 CURVE SMOOTH",
"171 168 LINE",
"152 109 OFFCURVE",
"137 66 OFFCURVE",
"125 37 CURVE",
"77 6 OFFCURVE",
"30 -31 OFFCURVE",
"-15 -74 CURVE SMOOTH",
"-64 -119 OFFCURVE",
"-99 -160 OFFCURVE",
"-122 -196 CURVE SMOOTH",
"-140 -225 OFFCURVE",
"-149 -250 OFFCURVE",
"-149 -270 CURVE SMOOTH",
"-149 -295 OFFCURVE",
"-136 -308 OFFCURVE",
"-111 -308 CURVE SMOOTH"
);
},
{
closed = 1;
nodes = (
"-102 -287 OFFCURVE",
"-108 -279 OFFCURVE",
"-108 -262 CURVE SMOOTH",
"-108 -245 OFFCURVE",
"-101 -224 OFFCURVE",
"-86 -200 CURVE SMOOTH",
"-43 -129 OFFCURVE",
"23 -60 OFFCURVE",
"112 6 CURVE",
"68 -101 OFFCURVE",
"16 -189 OFFCURVE",
"-44 -256 CURVE SMOOTH",
"-62 -277 OFFCURVE",
"-77 -287 OFFCURVE",
"-90 -287 CURVE SMOOTH"
);
}
);
width = 210;
}
);
unicode = 0237;
},
{
glyphname = k;
lastChange = "2021-08-03 00:54:19 +0000";
layers = (
{
anchors = (
{
name = bottom;
position = "{135, -30}";
},
{
name = top;
position = "{259, 489}";
}
);
layerId = "F7E87FDD-B687-450B-8559-2548A76CA810";
paths = (
{
closed = 1;
nodes = (
"365 -86 OFFCURVE",
"391 -70 OFFCURVE",
"408 -37 CURVE SMOOTH",
"410 -34 OFFCURVE",
"411 -31 OFFCURVE",
"411 -28 CURVE SMOOTH",
"411 -24 OFFCURVE",
"409 -23 OFFCURVE",
"405 -25 CURVE SMOOTH",
"401 -26 OFFCURVE",
"397 -30 OFFCURVE",
"394 -37 CURVE SMOOTH",
"383 -59 OFFCURVE",
"364 -70 OFFCURVE",
"337 -70 CURVE SMOOTH",
"324 -70 OFFCURVE",
"311 -66 OFFCURVE",
"300 -57 CURVE SMOOTH",
"272 -36 OFFCURVE",
"249 4 OFFCURVE",
"232 61 CURVE SMOOTH",
"223 90 OFFCURVE",
"214 136 OFFCURVE",
"203 199 CURVE",
"216 211 LINE",
"226 210 OFFCURVE",
"235 209 OFFCURVE",
"244 209 CURVE SMOOTH",
"257 209 OFFCURVE",
"269 210 OFFCURVE",
"280 212 CURVE SMOOTH",
"341 223 OFFCURVE",
"394 258 OFFCURVE",
"394 297 CURVE SMOOTH",
"394 320 OFFCURVE",
"385 332 OFFCURVE",
"366 332 CURVE SMOOTH",
"353 332 OFFCURVE",
"334 326 OFFCURVE",
"311 314 CURVE SMOOTH",
"284 300 OFFCURVE",
"251 274 OFFCURVE",
"210 236 CURVE",
"195 239 OFFCURVE",
"186 244 OFFCURVE",
"183 249 CURVE SMOOTH",
"180 254 OFFCURVE",
"176 257 OFFCURVE",
"171 257 CURVE SMOOTH",
"159 257 OFFCURVE",
"146 245 OFFCURVE",
"146 232 CURVE SMOOTH",
"146 216 OFFCURVE",
"150 198 OFFCURVE",
"155 180 CURVE",
"93 120 LINE",
"158 295 OFFCURVE",
"238 417 OFFCURVE",
"331 486 CURVE SMOOTH",
"335 489 OFFCURVE",
"337 491 OFFCURVE",
"337 494 CURVE SMOOTH",
"337 503 OFFCURVE",
"325 508 OFFCURVE",
"302 508 CURVE SMOOTH",
"288 508 OFFCURVE",
"277 505 OFFCURVE",
"269 499 CURVE SMOOTH",
"231 471 OFFCURVE",
"175 385 OFFCURVE",
"102 242 CURVE SMOOTH",
"58 156 OFFCURVE",
"23 77 OFFCURVE",
"-4 5 CURVE SMOOTH",
"-7 -4 OFFCURVE",
"8 -7 OFFCURVE",
"36 -7 CURVE SMOOTH",
"42 -7 OFFCURVE",
"46 -6 OFFCURVE",
"47 -5 CURVE",
"82 54 OFFCURVE",
"120 107 OFFCURVE",
"161 154 CURVE",
"188 46 OFFCURVE",
"227 -28 OFFCURVE",
"277 -67 CURVE SMOOTH",
"294 -80 OFFCURVE",
"311 -86 OFFCURVE",
"329 -86 CURVE SMOOTH"
);
},
{
closed = 1;
nodes = (
"244 236 LINE",
"307 283 OFFCURVE",
"345 306 OFFCURVE",
"360 306 CURVE SMOOTH",
"363 306 OFFCURVE",
"363 304 OFFCURVE",
"363 303 CURVE SMOOTH",
"363 296 OFFCURVE",
"351 284 OFFCURVE",
"329 270 CURVE SMOOTH",
"306 255 OFFCURVE",
"284 243 OFFCURVE",
"261 236 CURVE SMOOTH",
"254 234 OFFCURVE",
"248 233 OFFCURVE",
"241 233 CURVE"
);
}
);
width = 289;
}
);
note = k;
unicode = 006B;
},
{
glyphname = kgreenlandic;
lastChange = "2021-08-03 16:22:02 +0000";
layers = (
{
layerId = "F7E87FDD-B687-450B-8559-2548A76CA810";
paths = (
{
closed = 1;
nodes = (
"553 -62 OFFCURVE",
"567 -52 OFFCURVE",
"580 -44 CURVE SMOOTH",
"596 -36 OFFCURVE",
"603 -29 OFFCURVE",
"603 -22 CURVE SMOOTH",
"603 -18 OFFCURVE",
"600 -17 OFFCURVE",
"593 -17 CURVE SMOOTH",
"591 -17 OFFCURVE",
"577 -27 OFFCURVE",
"564 -27 CURVE SMOOTH",
"536 -27 OFFCURVE",
"491 5 OFFCURVE",
"429 68 CURVE SMOOTH",
"395 104 OFFCURVE",
"363 141 OFFCURVE",
"335 180 CURVE SMOOTH",
"307 218 OFFCURVE",
"293 243 OFFCURVE",
"293 254 CURVE SMOOTH",
"293 256 OFFCURVE",
"294 258 OFFCURVE",
"295 259 CURVE SMOOTH",
"464 372 OFFCURVE",
"597 435 OFFCURVE",
"693 448 CURVE SMOOTH",
"701 449 OFFCURVE",
"705 452 OFFCURVE",
"705 456 CURVE SMOOTH",
"705 461 OFFCURVE",
"699 465 OFFCURVE",
"688 465 CURVE SMOOTH",
"684 465 LINE SMOOTH",
"641 464 OFFCURVE",
"583 445 OFFCURVE",
"514 411 CURVE SMOOTH",
"464 386 OFFCURVE",
"414 359 OFFCURVE",
"364 330 CURVE SMOOTH",
"304 296 OFFCURVE",
"269 272 OFFCURVE",
"257 260 CURVE SMOOTH",
"255 258 OFFCURVE",
"254 255 OFFCURVE",
"254 250 CURVE SMOOTH",
"254 222 OFFCURVE",
"292 167 OFFCURVE",
"369 84 CURVE SMOOTH",
"441 7 OFFCURVE",
"491 -40 OFFCURVE",
"521 -56 CURVE SMOOTH",
"528 -60 OFFCURVE",
"535 -62 OFFCURVE",
"541 -62 CURVE SMOOTH"
);
},
{
closed = 1;
nodes = (
"114 -35 OFFCURVE",
"129 -28 OFFCURVE",
"130 -15 CURVE SMOOTH",
"130 -9 OFFCURVE",
"116 4 OFFCURVE",
"116 11 CURVE SMOOTH",
"116 13 LINE",
"157 94 OFFCURVE",
"232 216 OFFCURVE",
"343 380 CURVE SMOOTH",
"378 432 OFFCURVE",
"391 465 OFFCURVE",
"391 480 CURVE SMOOTH",
"391 487 OFFCURVE",
"389 491 OFFCURVE",
"384 491 CURVE SMOOTH",
"374 491 OFFCURVE",
"354 474 OFFCURVE",
"332 441 CURVE SMOOTH",
"321 424 OFFCURVE",
"273 353 OFFCURVE",
"188 229 CURVE SMOOTH",
"159 186 OFFCURVE",
"130 140 OFFCURVE",
"103 91 CURVE SMOOTH",
"72 36 OFFCURVE",
"55 -2 OFFCURVE",
"50 -23 CURVE SMOOTH",
"48 -31 OFFCURVE",
"59 -35 OFFCURVE",
"84 -35 CURVE SMOOTH"
);
}
);
width = 680;
}
);
unicode = 0138;
},
{
glyphname = l;
lastChange = "2021-08-03 21:39:43 +0000";
layers = (
{
anchors = (
{
name = bottom;
position = "{102, -9}";
},
{
name = center;
position = "{102, 250}";
},
{
name = top;
position = "{309, 530}";
},
{
name = topright;
position = "{413, 525}";
}
);
layerId = "F7E87FDD-B687-450B-8559-2548A76CA810";
paths = (
{
closed = 1;
nodes = (
"139 -22 OFFCURVE",
"164 -5 OFFCURVE",
"203 31 CURVE SMOOTH",
"244 68 OFFCURVE",
"277 107 OFFCURVE",
"302 147 CURVE SMOOTH",
"305 152 OFFCURVE",
"307 156 OFFCURVE",
"307 159 CURVE SMOOTH",
"307 162 OFFCURVE",
"306 163 OFFCURVE",
"303 163 CURVE SMOOTH",
"299 163 OFFCURVE",
"295 160 OFFCURVE",
"290 153 CURVE SMOOTH",
"261 110 OFFCURVE",
"225 72 OFFCURVE",
"182 41 CURVE SMOOTH",
"145 14 OFFCURVE",
"122 2 OFFCURVE",
"112 5 CURVE SMOOTH",
"99 9 OFFCURVE",
"93 21 OFFCURVE",
"93 42 CURVE SMOOTH",
"93 73 OFFCURVE",
"107 122 OFFCURVE",
"135 189 CURVE",
"183 224 OFFCURVE",
"226 263 OFFCURVE",
"265 306 CURVE SMOOTH",
"336 384 OFFCURVE",
"371 444 OFFCURVE",
"371 485 CURVE SMOOTH",
"371 516 OFFCURVE",
"355 531 OFFCURVE",
"322 531 CURVE SMOOTH",
"317 531 OFFCURVE",
"313 531 OFFCURVE",
"309 530 CURVE SMOOTH",
"278 525 OFFCURVE",
"233 467 OFFCURVE",
"174 356 CURVE SMOOTH",
"125 265 OFFCURVE",
"92 191 OFFCURVE",
"74 134 CURVE SMOOTH",
"61 95 OFFCURVE",
"55 66 OFFCURVE",
"55 47 CURVE SMOOTH",
"55 13 OFFCURVE",
"79 -9 OFFCURVE",
"126 -19 CURVE SMOOTH"
);
},
{
closed = 1;
nodes = (
"168 263 OFFCURVE",
"181 290 OFFCURVE",
"185 295 CURVE",
"199 324 OFFCURVE",
"216 352 OFFCURVE",
"236 381 CURVE SMOOTH",
"252 402 OFFCURVE",
"268 422 OFFCURVE",
"283 443 CURVE SMOOTH",
"308 476 OFFCURVE",
"326 492 OFFCURVE",
"337 492 CURVE SMOOTH",
"344 492 OFFCURVE",
"347 489 OFFCURVE",
"347 483 CURVE SMOOTH",
"347 453 OFFCURVE",
"320 405 OFFCURVE",
"265 340 CURVE SMOOTH",
"206 270 LINE SMOOTH",
"190 252 OFFCURVE",
"170 234 OFFCURVE",
"146 216 CURVE"
);
}
);
width = 203;
}
);
note = l;
rightKerningGroup = n;
unicode = 006C;
},
{
glyphname = m;
lastChange = "2021-08-03 21:39:47 +0000";
layers = (
{
background = {
paths = (
{
closed = 1;
nodes = (
"437 -13 OFFCURVE",
"458 -6 OFFCURVE",
"485 11 CURVE SMOOTH",
"517 31 OFFCURVE",
"550 62 OFFCURVE",
"584 105 CURVE SMOOTH",
"588 110 OFFCURVE",
"590 114 OFFCURVE",
"590 117 CURVE SMOOTH",
"590 119 OFFCURVE",
"589 120 OFFCURVE",
"586 120 CURVE SMOOTH",
"582 120 OFFCURVE",
"578 118 OFFCURVE",
"574 113 CURVE SMOOTH",
"544 75 OFFCURVE",
"511 46 OFFCURVE",
"476 26 CURVE SMOOTH",
"448 10 OFFCURVE",
"429 4 OFFCURVE",
"419 8 CURVE SMOOTH",
"414 10 OFFCURVE",
"412 15 OFFCURVE",
"412 22 CURVE SMOOTH",
"412 57 OFFCURVE",
"448 124 OFFCURVE",
"520 225 CURVE SMOOTH",
"533 243 OFFCURVE",
"539 258 OFFCURVE",
"539 270 CURVE SMOOTH",
"539 290 OFFCURVE",
"525 300 OFFCURVE",
"498 300 CURVE SMOOTH",
"486 300 OFFCURVE",
"475 298 OFFCURVE",
"466 294 CURVE SMOOTH",
"424 275 OFFCURVE",
"388 247 OFFCURVE",
"358 212 CURVE",
"369 231 OFFCURVE",
"375 248 OFFCURVE",
"375 262 CURVE SMOOTH",
"375 287 OFFCURVE",
"361 299 OFFCURVE",
"332 299 CURVE SMOOTH",
"323 299 OFFCURVE",
"314 297 OFFCURVE",
"307 294 CURVE SMOOTH",
"268 276 OFFCURVE",
"232 249 OFFCURVE",
"199 212 CURVE SMOOTH",
"158 168 OFFCURVE",
"127 135 OFFCURVE",
"104 112 CURVE",
"110 121 OFFCURVE",
"126 152 OFFCURVE",
"154 206 CURVE SMOOTH",
"183 261 OFFCURVE",
"197 290 OFFCURVE",
"196 292 CURVE SMOOTH",
"194 295 OFFCURVE",
"190 297 OFFCURVE",
"183 297 CURVE SMOOTH",
"162 297 OFFCURVE",
"142 277 OFFCURVE",
"122 238 CURVE SMOOTH",
"63 121 OFFCURVE",
"26 43 OFFCURVE",
"12 5 CURVE SMOOTH",
"9 -3 OFFCURVE",
"22 -7 OFFCURVE",
"51 -7 CURVE SMOOTH",
"58 -7 OFFCURVE",
"61 -6 OFFCURVE",
"62 -5 CURVE SMOOTH",
"113 88 OFFCURVE",
"167 161 OFFCURVE",
"225 215 CURVE SMOOTH",
"266 253 OFFCURVE",
"296 272 OFFCURVE",
"315 273 CURVE",
"321 272 OFFCURVE",
"324 269 OFFCURVE",
"324 263 CURVE SMOOTH",
"324 252 OFFCURVE",
"302 215 OFFCURVE",
"259 151 CURVE SMOOTH",
"220 93 OFFCURVE",
"200 53 OFFCURVE",
"200 32 CURVE SMOOTH",
"200 20 OFFCURVE",
"208 14 OFFCURVE",
"222 14 CURVE SMOOTH",
"235 14 OFFCURVE",
"243 16 OFFCURVE",
"245 19 CURVE SMOOTH",
"296 112 OFFCURVE",
"346 181 OFFCURVE",
"396 227 CURVE SMOOTH",
"429 257 OFFCURVE",
"455 272 OFFCURVE",
"474 273 CURVE",
"480 272 OFFCURVE",
"483 269 OFFCURVE",
"483 263 CURVE SMOOTH",
"483 252 OFFCURVE",
"461 215 OFFCURVE",
"418 151 CURVE SMOOTH",
"379 93 OFFCURVE",
"359 53 OFFCURVE",
"359 32 CURVE SMOOTH",
"359 9 OFFCURVE",
"392 -13 OFFCURVE",
"421 -10 CURVE"
);
}
);
};
layerId = "F7E87FDD-B687-450B-8559-2548A76CA810";
paths = (
{
closed = 1;
nodes = (
"437 -13 OFFCURVE",
"458 -6 OFFCURVE",
"485 11 CURVE SMOOTH",
"517 31 OFFCURVE",
"550 62 OFFCURVE",
"584 105 CURVE SMOOTH",
"588 110 OFFCURVE",
"590 114 OFFCURVE",
"590 117 CURVE SMOOTH",
"590 119 OFFCURVE",
"589 120 OFFCURVE",
"586 120 CURVE SMOOTH",
"582 120 OFFCURVE",
"578 118 OFFCURVE",
"574 113 CURVE SMOOTH",
"544 75 OFFCURVE",
"511 46 OFFCURVE",
"476 26 CURVE SMOOTH",
"448 10 OFFCURVE",
"429 4 OFFCURVE",
"419 8 CURVE SMOOTH",
"414 10 OFFCURVE",
"412 15 OFFCURVE",
"412 22 CURVE SMOOTH",
"412 57 OFFCURVE",
"448 124 OFFCURVE",
"520 225 CURVE SMOOTH",
"533 243 OFFCURVE",
"539 258 OFFCURVE",
"539 270 CURVE SMOOTH",
"539 290 OFFCURVE",
"525 300 OFFCURVE",
"498 300 CURVE SMOOTH",
"486 300 OFFCURVE",
"475 298 OFFCURVE",
"466 294 CURVE SMOOTH",
"424 275 OFFCURVE",
"388 247 OFFCURVE",
"358 212 CURVE",
"369 231 OFFCURVE",
"375 248 OFFCURVE",
"375 262 CURVE SMOOTH",
"375 287 OFFCURVE",
"361 299 OFFCURVE",
"332 299 CURVE SMOOTH",
"323 299 OFFCURVE",
"314 297 OFFCURVE",
"307 294 CURVE SMOOTH",
"268 276 OFFCURVE",
"232 249 OFFCURVE",
"199 212 CURVE SMOOTH",
"158 168 OFFCURVE",
"127 135 OFFCURVE",
"104 112 CURVE",
"110 121 OFFCURVE",
"126 152 OFFCURVE",
"154 206 CURVE SMOOTH",
"183 261 OFFCURVE",
"197 290 OFFCURVE",
"196 292 CURVE SMOOTH",
"194 295 OFFCURVE",
"190 297 OFFCURVE",
"183 297 CURVE SMOOTH",
"162 297 OFFCURVE",
"142 277 OFFCURVE",
"122 238 CURVE SMOOTH",
"63 121 OFFCURVE",
"26 43 OFFCURVE",
"12 5 CURVE SMOOTH",
"9 -3 OFFCURVE",
"22 -7 OFFCURVE",
"46 -7 CURVE SMOOTH",
"58 -7 OFFCURVE",
"61 -6 OFFCURVE",
"63 -3 CURVE SMOOTH",
"112 87 OFFCURVE",
"167 161 OFFCURVE",
"225 215 CURVE SMOOTH",
"266 253 OFFCURVE",
"296 272 OFFCURVE",
"315 273 CURVE",
"321 272 OFFCURVE",
"324 269 OFFCURVE",
"324 263 CURVE SMOOTH",
"324 252 OFFCURVE",
"302 215 OFFCURVE",
"259 151 CURVE SMOOTH",
"220 93 OFFCURVE",
"200 53 OFFCURVE",
"200 32 CURVE SMOOTH",
"200 20 OFFCURVE",
"208 14 OFFCURVE",
"222 14 CURVE SMOOTH",
"235 14 OFFCURVE",
"243 16 OFFCURVE",
"245 19 CURVE SMOOTH",
"296 112 OFFCURVE",
"346 181 OFFCURVE",
"396 227 CURVE SMOOTH",
"429 257 OFFCURVE",
"455 272 OFFCURVE",
"474 273 CURVE",
"480 272 OFFCURVE",
"483 269 OFFCURVE",
"483 263 CURVE SMOOTH",
"483 252 OFFCURVE",
"461 215 OFFCURVE",
"418 151 CURVE SMOOTH",
"379 93 OFFCURVE",
"359 53 OFFCURVE",
"359 32 CURVE SMOOTH",
"359 9 OFFCURVE",
"392 -13 OFFCURVE",
"421 -10 CURVE"
);
}
);
width = 527;
}
);
note = m;
rightKerningGroup = n;
unicode = 006D;
},
{
glyphname = n;
lastChange = "2021-08-03 21:39:50 +0000";
layers = (
{
anchors = (
{
name = bottom;
position = "{138, 0}";
},
{
name = top;
position = "{335, 300}";
}
);
guideLines = (
{
angle = 244.0826;
position = "{208, 353}";
}
);
layerId = "F7E87FDD-B687-450B-8559-2548A76CA810";
paths = (
{
closed = 1;
nodes = (
"287 -13 OFFCURVE",
"318 1 OFFCURVE",
"365 32 CURVE SMOOTH",
"417 67 OFFCURVE",
"458 108 OFFCURVE",
"487 154 CURVE SMOOTH",
"493 163 OFFCURVE",
"496 170 OFFCURVE",
"496 173 CURVE SMOOTH",
"496 174 OFFCURVE",
"495 175 OFFCURVE",
"493 175 CURVE SMOOTH",
"487 175 OFFCURVE",
"480 170 OFFCURVE",
"473 160 CURVE SMOOTH",
"439 113 OFFCURVE",
"397 73 OFFCURVE",
"347 41 CURVE SMOOTH",
"305 14 OFFCURVE",
"279 3 OFFCURVE",
"268 8 CURVE SMOOTH",
"263 10 OFFCURVE",
"261 15 OFFCURVE",
"261 22 CURVE SMOOTH",
"261 57 OFFCURVE",
"297 124 OFFCURVE",
"369 225 CURVE SMOOTH",
"382 243 OFFCURVE",
"388 258 OFFCURVE",
"388 270 CURVE SMOOTH",
"388 290 OFFCURVE",
"374 300 OFFCURVE",
"347 300 CURVE SMOOTH",
"335 300 OFFCURVE",
"324 298 OFFCURVE",
"315 294 CURVE SMOOTH",
"276 276 OFFCURVE",
"240 249 OFFCURVE",
"207 212 CURVE SMOOTH",
"166 168 OFFCURVE",
"135 135 OFFCURVE",
"112 112 CURVE",
"118 121 OFFCURVE",
"134 152 OFFCURVE",
"162 206 CURVE SMOOTH",
"191 261 OFFCURVE",
"205 290 OFFCURVE",
"204 292 CURVE SMOOTH",
"202 295 OFFCURVE",
"198 297 OFFCURVE",
"191 297 CURVE SMOOTH",
"170 297 OFFCURVE",
"150 277 OFFCURVE",
"130 238 CURVE SMOOTH",
"71 121 OFFCURVE",
"34 43 OFFCURVE",
"20 5 CURVE SMOOTH",
"17 -3 OFFCURVE",
"30 -7 OFFCURVE",
"59 -7 CURVE SMOOTH",
"66 -7 OFFCURVE",
"69 -6 OFFCURVE",
"70 -5 CURVE",
"121 88 OFFCURVE",
"175 161 OFFCURVE",
"233 215 CURVE SMOOTH",
"274 253 OFFCURVE",
"304 272 OFFCURVE",
"323 273 CURVE",
"329 272 OFFCURVE",
"332 269 OFFCURVE",
"332 263 CURVE SMOOTH",
"332 252 OFFCURVE",
"310 215 OFFCURVE",
"267 151 CURVE SMOOTH",
"228 93 OFFCURVE",
"208 53 OFFCURVE",
"208 32 CURVE SMOOTH",
"208 9 OFFCURVE",
"241 -13 OFFCURVE",
"270 -10 CURVE"
);
}
);
width = 378;
}
);
note = n;
rightKerningGroup = n;
unicode = 006E;
},
{
glyphname = eng;
lastChange = "2021-08-03 16:22:02 +0000";
layers = (
{
layerId = "F7E87FDD-B687-450B-8559-2548A76CA810";
paths = (
{
closed = 1;
nodes = (
"102 -274 OFFCURVE",
"240 -119 OFFCURVE",
"365 197 CURVE",
"378 215 OFFCURVE",
"388 258 OFFCURVE",
"388 270 CURVE SMOOTH",
"388 290 OFFCURVE",
"374 300 OFFCURVE",
"347 300 CURVE SMOOTH",
"335 300 OFFCURVE",
"324 298 OFFCURVE",
"315 294 CURVE SMOOTH",
"276 276 OFFCURVE",
"240 249 OFFCURVE",
"207 212 CURVE SMOOTH",
"166 168 OFFCURVE",
"135 135 OFFCURVE",
"112 112 CURVE",
"118 121 OFFCURVE",
"134 152 OFFCURVE",
"162 206 CURVE SMOOTH",
"191 261 OFFCURVE",
"205 290 OFFCURVE",
"204 292 CURVE SMOOTH",
"202 295 OFFCURVE",
"198 297 OFFCURVE",
"191 297 CURVE SMOOTH",
"170 297 OFFCURVE",
"150 277 OFFCURVE",
"130 238 CURVE SMOOTH",
"71 121 OFFCURVE",
"34 43 OFFCURVE",
"20 5 CURVE SMOOTH",
"17 -3 OFFCURVE",
"30 -7 OFFCURVE",
"59 -7 CURVE SMOOTH",
"66 -7 OFFCURVE",
"69 -6 OFFCURVE",
"70 -5 CURVE",
"121 88 OFFCURVE",
"175 161 OFFCURVE",
"233 215 CURVE SMOOTH",
"274 253 OFFCURVE",
"304 272 OFFCURVE",
"323 273 CURVE",
"329 272 OFFCURVE",
"332 269 OFFCURVE",
"332 263 CURVE SMOOTH",
"332 184 OFFCURVE",
"203 -50 OFFCURVE",
"127 -138 CURVE SMOOTH",
"66 -209 OFFCURVE",
"26 -247 OFFCURVE",
"-23 -247 CURVE SMOOTH",
"-51 -247 OFFCURVE",
"-71 -225 OFFCURVE",
"-68 -211 CURVE SMOOTH",
"-62 -181 OFFCURVE",
"-48 -153 OFFCURVE",
"-12 -117 CURVE SMOOTH",
"-9 -114 OFFCURVE",
"-6 -110 OFFCURVE",
"-6 -108 CURVE SMOOTH",
"-6 -107 LINE SMOOTH",
"-7 -104 OFFCURVE",
"-6 -104 OFFCURVE",
"-8 -104 CURVE SMOOTH",
"-12 -104 OFFCURVE",
"-18 -107 OFFCURVE",
"-25 -111 CURVE SMOOTH",
"-66 -135 OFFCURVE",
"-96 -161 OFFCURVE",
"-96 -192 CURVE SMOOTH",
"-96 -214 OFFCURVE",
"-88 -217 OFFCURVE",
"-67 -237 CURVE SMOOTH",
"-48 -255 OFFCURVE",
"-38 -274 OFFCURVE",
"-16 -274 CURVE SMOOTH"
);
}
);
width = 368;
}
);
unicode = 014B;
},
{
glyphname = o;
lastChange = "2021-08-03 16:22:02 +0000";
layers = (
{
anchors = (
{
name = bottom;
position = "{106, 0}";
},
{
name = center;
position = "{157, 150}";
},
{
name = ogonek;
position = "{174, 0}";
},
{
name = top;
position = "{250, 300}";
},
{
name = topright;
position = "{304, 268}";
}
);
layerId = "F7E87FDD-B687-450B-8559-2548A76CA810";
paths = (
{
closed = 1;
nodes = (
"168 -11 OFFCURVE",
"208 9 OFFCURVE",
"250 50 CURVE SMOOTH",
"293 91 OFFCURVE",
"319 138 OFFCURVE",
"329 192 CURVE SMOOTH",
"330 195 OFFCURVE",
"330 198 OFFCURVE",
"330 202 CURVE SMOOTH",
"330 207 OFFCURVE",
"329 213 OFFCURVE",
"327 218 CURVE",
"360 222 OFFCURVE",
"383 226 OFFCURVE",
"398 229 CURVE SMOOTH",
"401 230 OFFCURVE",
"402 231 OFFCURVE",
"402 232 CURVE SMOOTH",
"402 237 OFFCURVE",
"399 239 OFFCURVE",
"393 239 CURVE SMOOTH",
"389 239 LINE SMOOTH",
"377 238 OFFCURVE",
"354 236 OFFCURVE",
"321 235 CURVE",
"311 252 OFFCURVE",
"293 268 OFFCURVE",
"268 283 CURVE SMOOTH",
"257 289 OFFCURVE",
"245 295 OFFCURVE",
"232 300 CURVE",
"227 303 OFFCURVE",
"220 305 OFFCURVE",
"211 305 CURVE SMOOTH",
"180 305 OFFCURVE",
"153 296 OFFCURVE",
"129 277 CURVE SMOOTH",
"126 275 OFFCURVE",
"125 272 OFFCURVE",
"125 268 CURVE SMOOTH",
"125 264 OFFCURVE",
"129 252 OFFCURVE",
"128 251 CURVE SMOOTH",
"80 196 OFFCURVE",
"56 139 OFFCURVE",
"56 79 CURVE SMOOTH",
"56 19 OFFCURVE",
"80 -11 OFFCURVE",
"129 -11 CURVE SMOOTH"
);
},
{
closed = 1;
nodes = (
"107 5 OFFCURVE",
"95 23 OFFCURVE",
"95 59 CURVE SMOOTH",
"95 82 OFFCURVE",
"99 105 OFFCURVE",
"107 130 CURVE SMOOTH",
"114 153 OFFCURVE",
"131 182 OFFCURVE",
"157 217 CURVE",
"174 216 OFFCURVE",
"196 216 OFFCURVE",
"223 216 CURVE SMOOTH",
"250 216 OFFCURVE",
"276 216 OFFCURVE",
"302 217 CURVE",
"303 214 OFFCURVE",
"304 210 OFFCURVE",
"304 205 CURVE SMOOTH",
"304 201 OFFCURVE",
"303 196 OFFCURVE",
"302 190 CURVE SMOOTH",
"295 151 OFFCURVE",
"272 110 OFFCURVE",
"233 68 CURVE SMOOTH",
"195 26 OFFCURVE",
"161 5 OFFCURVE",
"132 5 CURVE SMOOTH"
);
},
{
closed = 1;
nodes = (
"252 234 OFFCURVE",
"211 236 OFFCURVE",
"174 241 CURVE",
"179 246 OFFCURVE",
"183 250 OFFCURVE",
"187 252 CURVE SMOOTH",
"194 257 OFFCURVE",
"209 260 OFFCURVE",
"234 260 CURVE SMOOTH",
"265 260 OFFCURVE",
"286 252 OFFCURVE",
"297 235 CURVE"
);
}
);
width = 313;
}
);
note = o;
unicode = 006F;
},
{
glyphname = odieresis;
lastChange = "2021-08-03 16:22:02 +0000";
layers = (
{
layerId = "F7E87FDD-B687-450B-8559-2548A76CA810";
paths = (
{
closed = 1;
nodes = (
"168 -11 OFFCURVE",
"208 9 OFFCURVE",
"250 50 CURVE SMOOTH",
"293 91 OFFCURVE",
"319 138 OFFCURVE",
"329 192 CURVE SMOOTH",
"330 195 OFFCURVE",
"330 198 OFFCURVE",
"330 202 CURVE SMOOTH",
"330 207 OFFCURVE",
"329 213 OFFCURVE",
"327 218 CURVE",
"360 222 OFFCURVE",
"383 226 OFFCURVE",
"398 229 CURVE SMOOTH",
"401 230 OFFCURVE",
"402 231 OFFCURVE",
"402 232 CURVE SMOOTH",
"402 237 OFFCURVE",
"399 239 OFFCURVE",
"393 239 CURVE SMOOTH",
"389 239 LINE SMOOTH",
"377 238 OFFCURVE",
"354 236 OFFCURVE",
"321 235 CURVE",
"311 252 OFFCURVE",
"293 268 OFFCURVE",
"268 283 CURVE SMOOTH",
"257 289 OFFCURVE",
"245 295 OFFCURVE",
"232 300 CURVE",
"227 303 OFFCURVE",
"220 305 OFFCURVE",
"211 305 CURVE SMOOTH",
"180 305 OFFCURVE",
"153 296 OFFCURVE",
"129 277 CURVE SMOOTH",
"126 275 OFFCURVE",
"125 272 OFFCURVE",
"125 268 CURVE SMOOTH",
"125 264 OFFCURVE",
"129 252 OFFCURVE",
"128 251 CURVE SMOOTH",
"80 196 OFFCURVE",
"56 139 OFFCURVE",
"56 79 CURVE SMOOTH",
"56 19 OFFCURVE",
"80 -11 OFFCURVE",
"129 -11 CURVE SMOOTH"
);
},
{
closed = 1;
nodes = (
"107 5 OFFCURVE",
"95 23 OFFCURVE",
"95 59 CURVE SMOOTH",
"95 82 OFFCURVE",
"99 105 OFFCURVE",
"107 130 CURVE SMOOTH",
"114 153 OFFCURVE",
"131 182 OFFCURVE",
"157 217 CURVE",
"174 216 OFFCURVE",
"196 216 OFFCURVE",
"223 216 CURVE SMOOTH",
"250 216 OFFCURVE",
"276 216 OFFCURVE",
"302 217 CURVE",
"303 214 OFFCURVE",
"304 210 OFFCURVE",
"304 205 CURVE SMOOTH",
"304 201 OFFCURVE",
"303 196 OFFCURVE",
"302 190 CURVE SMOOTH",
"295 151 OFFCURVE",
"272 110 OFFCURVE",
"233 68 CURVE SMOOTH",
"195 26 OFFCURVE",
"161 5 OFFCURVE",
"132 5 CURVE SMOOTH"
);
},
{
closed = 1;
nodes = (
"252 234 OFFCURVE",
"211 236 OFFCURVE",
"174 241 CURVE",
"179 246 OFFCURVE",
"183 250 OFFCURVE",
"187 252 CURVE SMOOTH",
"194 257 OFFCURVE",
"209 260 OFFCURVE",
"234 260 CURVE SMOOTH",
"265 260 OFFCURVE",
"286 252 OFFCURVE",
"297 235 CURVE"
);
},
{
closed = 1;
nodes = (
"194 360 OFFCURVE",
"196 361 OFFCURVE",
"198 363 CURVE SMOOTH",
"221 390 LINE",
"232 397 OFFCURVE",
"241 402 OFFCURVE",
"248 405 CURVE",
"249 406 OFFCURVE",
"249 406 OFFCURVE",
"249 407 CURVE SMOOTH",
"249 412 OFFCURVE",
"240 414 OFFCURVE",
"221 414 CURVE SMOOTH",
"186 414 OFFCURVE",
"169 408 OFFCURVE",
"169 396 CURVE SMOOTH",
"169 392 OFFCURVE",
"169 395 OFFCURVE",
"180 372 CURVE SMOOTH",
"184 364 OFFCURVE",
"188 360 OFFCURVE",
"192 360 CURVE SMOOTH"
);
},
{
closed = 1;
nodes = (
"313 360 OFFCURVE",
"315 361 OFFCURVE",
"317 363 CURVE SMOOTH",
"340 390 LINE",
"351 397 OFFCURVE",
"360 402 OFFCURVE",
"367 405 CURVE",
"368 406 OFFCURVE",
"368 406 OFFCURVE",
"368 407 CURVE SMOOTH",
"368 412 OFFCURVE",
"359 414 OFFCURVE",
"340 414 CURVE SMOOTH",
"305 414 OFFCURVE",
"288 408 OFFCURVE",
"288 396 CURVE SMOOTH",
"288 392 OFFCURVE",
"288 395 OFFCURVE",
"299 372 CURVE SMOOTH",
"303 364 OFFCURVE",
"307 360 OFFCURVE",
"311 360 CURVE SMOOTH"
);
}
);
width = 307;
}
);
note = odieresis;
unicode = 00F6;
},
{
glyphname = oslash;
lastChange = "2021-08-03 16:22:02 +0000";
layers = (
{
anchors = (
{
name = top;
position = "{232, 300}";
}
);
layerId = "F7E87FDD-B687-450B-8559-2548A76CA810";
paths = (
{
closed = 1;
nodes = (
"-6 -118 OFFCURVE",
"21 -104 OFFCURVE",
"22 -96 CURVE SMOOTH",
"23 -84 OFFCURVE",
"31 -65 OFFCURVE",
"48 -40 CURVE SMOOTH",
"58 -25 OFFCURVE",
"69 -9 OFFCURVE",
"81 7 CURVE",
"94 -5 OFFCURVE",
"110 -11 OFFCURVE",
"129 -11 CURVE SMOOTH",
"168 -11 OFFCURVE",
"208 9 OFFCURVE",
"250 50 CURVE SMOOTH",
"293 91 OFFCURVE",
"319 138 OFFCURVE",
"329 192 CURVE SMOOTH",
"330 195 OFFCURVE",
"330 198 OFFCURVE",
"330 202 CURVE SMOOTH",
"330 207 OFFCURVE",
"329 213 OFFCURVE",
"327 218 CURVE",
"360 222 OFFCURVE",
"383 226 OFFCURVE",
"398 229 CURVE SMOOTH",
"401 230 OFFCURVE",
"402 231 OFFCURVE",
"402 232 CURVE SMOOTH",
"402 237 OFFCURVE",
"399 239 OFFCURVE",
"393 239 CURVE SMOOTH",
"389 239 LINE SMOOTH",
"377 238 OFFCURVE",
"354 236 OFFCURVE",
"321 235 CURVE",
"317 242 OFFCURVE",
"312 248 OFFCURVE",
"305 254 CURVE",
"349 299 OFFCURVE",
"383 335 OFFCURVE",
"408 364 CURVE",
"409 371 OFFCURVE",
"408 374 OFFCURVE",
"404 374 CURVE SMOOTH",
"393 374 OFFCURVE",
"376 361 OFFCURVE",
"353 334 CURVE SMOOTH",
"337 315 OFFCURVE",
"317 293 OFFCURVE",
"292 266 CURVE",
"263 285 OFFCURVE",
"243 296 OFFCURVE",
"232 300 CURVE",
"227 303 OFFCURVE",
"220 305 OFFCURVE",
"211 305 CURVE SMOOTH",
"180 305 OFFCURVE",
"153 296 OFFCURVE",
"129 277 CURVE SMOOTH",
"126 275 OFFCURVE",
"125 272 OFFCURVE",
"125 268 CURVE SMOOTH",
"125 264 OFFCURVE",
"129 252 OFFCURVE",
"128 251 CURVE SMOOTH",
"80 196 OFFCURVE",
"56 139 OFFCURVE",
"56 79 CURVE SMOOTH",
"56 59 OFFCURVE",
"59 42 OFFCURVE",
"66 28 CURVE",
"39 -3 OFFCURVE",
"18 -31 OFFCURVE",
"3 -54 CURVE SMOOTH",
"-14 -79 OFFCURVE",
"-23 -100 OFFCURVE",
"-24 -115 CURVE SMOOTH",
"-24 -117 OFFCURVE",
"-22 -118 OFFCURVE",
"-19 -118 CURVE SMOOTH"
);
},
{
closed = 1;
nodes = (
"96 105 OFFCURVE",
"105 146 OFFCURVE",
"157 217 CURVE",
"179 216 OFFCURVE",
"208 215 OFFCURVE",
"243 216 CURVE",
"168 139 OFFCURVE",
"119 88 OFFCURVE",
"95 61 CURVE"
);
},
{
closed = 1;
nodes = (
"115 5 OFFCURVE",
"104 13 OFFCURVE",
"99 30 CURVE",
"134 75 OFFCURVE",
"191 137 OFFCURVE",
"268 216 CURVE",
"279 216 OFFCURVE",
"291 216 OFFCURVE",
"302 217 CURVE",
"303 214 OFFCURVE",
"304 210 OFFCURVE",
"304 205 CURVE SMOOTH",
"304 201 OFFCURVE",
"303 196 OFFCURVE",
"302 190 CURVE SMOOTH",
"295 151 OFFCURVE",
"272 110 OFFCURVE",
"233 68 CURVE SMOOTH",
"195 26 OFFCURVE",
"161 5 OFFCURVE",
"132 5 CURVE SMOOTH"
);
},
{
closed = 1;
nodes = (
"229 236 OFFCURVE",
"199 238 OFFCURVE",
"174 241 CURVE",
"179 246 OFFCURVE",
"183 250 OFFCURVE",
"187 252 CURVE SMOOTH",
"194 257 OFFCURVE",
"209 260 OFFCURVE",
"234 260 CURVE SMOOTH",
"251 260 OFFCURVE",
"266 257 OFFCURVE",
"278 252 CURVE",
"262 235 LINE"
);
}
);
width = 313;
}
);
note = oslash;
unicode = 00F8;
},
{
glyphname = oe;
lastChange = "2021-08-03 00:54:19 +0000";
layers = (
{
layerId = "F7E87FDD-B687-450B-8559-2548A76CA810";
paths = (
{
closed = 1;
nodes = (
"168 -11 OFFCURVE",
"209 9 OFFCURVE",
"250 50 CURVE",
"257 11 OFFCURVE",
"289 -8 OFFCURVE",
"330 -8 CURVE SMOOTH",
"335 -8 OFFCURVE",
"340 -8 OFFCURVE",
"345 -7 CURVE SMOOTH",
"425 2 OFFCURVE",
"498 55 OFFCURVE",
"564 153 CURVE SMOOTH",
"569 160 OFFCURVE",
"571 165 OFFCURVE",
"571 168 CURVE SMOOTH",
"571 171 OFFCURVE",
"570 172 OFFCURVE",
"568 172 CURVE SMOOTH",
"563 172 OFFCURVE",
"558 168 OFFCURVE",
"553 160 CURVE SMOOTH",
"519 111 OFFCURVE",
"478 73 OFFCURVE",
"430 46 CURVE SMOOTH",
"394 25 OFFCURVE",
"365 15 OFFCURVE",
"341 15 CURVE SMOOTH",
"309 15 OFFCURVE",
"293 28 OFFCURVE",
"293 55 CURVE SMOOTH",
"293 74 OFFCURVE",
"301 98 OFFCURVE",
"318 127 CURVE",
"361 136 LINE SMOOTH",
"394 145 OFFCURVE",
"425 159 OFFCURVE",
"452 178 CURVE SMOOTH",
"497 211 OFFCURVE",
"519 241 OFFCURVE",
"519 270 CURVE SMOOTH",
"519 279 OFFCURVE",
"517 288 OFFCURVE",
"512 295 CURVE SMOOTH",
"503 308 OFFCURVE",
"488 314 OFFCURVE",
"468 314 CURVE SMOOTH",
"453 314 OFFCURVE",
"438 309 OFFCURVE",
"423 299 CURVE SMOOTH",
"385 274 OFFCURVE",
"354 249 OFFCURVE",
"330 223 CURVE",
"325 250 OFFCURVE",
"308 271 OFFCURVE",
"277 286 CURVE SMOOTH",
"264 292 OFFCURVE",
"249 297 OFFCURVE",
"232 300 CURVE",
"228 303 OFFCURVE",
"221 305 OFFCURVE",
"211 305 CURVE SMOOTH",
"180 305 OFFCURVE",
"153 296 OFFCURVE",
"129 277 CURVE SMOOTH",
"126 275 OFFCURVE",
"125 272 OFFCURVE",
"125 268 CURVE SMOOTH",
"125 264 OFFCURVE",
"129 252 OFFCURVE",
"128 251 CURVE SMOOTH",
"80 196 OFFCURVE",
"56 139 OFFCURVE",
"56 79 CURVE SMOOTH",
"56 19 OFFCURVE",
"80 -11 OFFCURVE",
"129 -11 CURVE SMOOTH"
);
},
{
closed = 1;
nodes = (
"107 5 OFFCURVE",
"95 23 OFFCURVE",
"95 59 CURVE SMOOTH",
"95 104 OFFCURVE",
"106 150 OFFCURVE",
"157 217 CURVE SMOOTH",
"174 238 OFFCURVE",
"184 250 OFFCURVE",
"187 252 CURVE",
"194 259 OFFCURVE",
"208 262 OFFCURVE",
"229 262 CURVE SMOOTH",
"278 262 OFFCURVE",
"303 243 OFFCURVE",
"303 204 CURVE SMOOTH",
"303 200 OFFCURVE",
"303 195 OFFCURVE",
"302 190 CURVE",
"279 150 LINE SMOOTH",
"264 123 OFFCURVE",
"255 102 OFFCURVE",
"252 89 CURVE",
"208 33 OFFCURVE",
"168 5 OFFCURVE",
"132 5 CURVE SMOOTH"
);
},
{
closed = 1;
nodes = (
"326 144 OFFCURVE",
"326 144 OFFCURVE",
"327 145 CURVE SMOOTH",
"360 188 OFFCURVE",
"396 226 OFFCURVE",
"435 259 CURVE SMOOTH",
"461 280 OFFCURVE",
"479 291 OFFCURVE",
"488 291 CURVE SMOOTH",
"493 291 OFFCURVE",
"495 288 OFFCURVE",
"495 282 CURVE SMOOTH",
"495 277 OFFCURVE",
"493 269 OFFCURVE",
"489 259 CURVE SMOOTH",
"472 222 OFFCURVE",
"443 192 OFFCURVE",
"402 169 CURVE SMOOTH",
"371 152 OFFCURVE",
"347 144 OFFCURVE",
"329 144 CURVE SMOOTH"
);
}
);
width = 475;
}
);
note = oe;
unicode = 0153;
},
{
glyphname = p;
lastChange = "2021-08-03 00:54:19 +0000";
layers = (
{
layerId = "F7E87FDD-B687-450B-8559-2548A76CA810";
paths = (
{
closed = 1;
nodes = (
"6 -275 OFFCURVE",
"11 -273 OFFCURVE",
"14 -268 CURVE SMOOTH",
"16 -265 OFFCURVE",
"12 -261 OFFCURVE",
"3 -258 CURVE SMOOTH",
"-6 -255 OFFCURVE",
"-11 -250 OFFCURVE",
"-11 -242 CURVE SMOOTH",
"-8 -155 OFFCURVE",
"15 -68 OFFCURVE",
"58 20 CURVE",
"71 -4 OFFCURVE",
"91 -16 OFFCURVE",
"118 -16 CURVE SMOOTH",
"147 -16 OFFCURVE",
"180 -3 OFFCURVE",
"219 24 CURVE SMOOTH",
"252 48 OFFCURVE",
"280 75 OFFCURVE",
"302 105 CURVE SMOOTH",
"343 161 OFFCURVE",
"363 211 OFFCURVE",
"363 256 CURVE SMOOTH",
"363 277 OFFCURVE",
"356 288 OFFCURVE",
"343 288 CURVE SMOOTH",
"320 290 OFFCURVE",
"304 292 OFFCURVE",
"295 295 CURVE",
"272 295 OFFCURVE",
"237 270 OFFCURVE",
"190 220 CURVE SMOOTH",
"153 179 OFFCURVE",
"131 157 OFFCURVE",
"127 150 CURVE SMOOTH",
"171 240 OFFCURVE",
"213 298 OFFCURVE",
"253 325 CURVE SMOOTH",
"257 328 OFFCURVE",
"259 332 OFFCURVE",
"259 338 CURVE SMOOTH",
"259 345 OFFCURVE",
"255 348 OFFCURVE",
"247 349 CURVE SMOOTH",
"218 352 OFFCURVE",
"198 347 OFFCURVE",
"188 333 CURVE SMOOTH",
"137 262 OFFCURVE",
"92 185 OFFCURVE",
"53 101 CURVE SMOOTH",
"-4 -20 OFFCURVE",
"-38 -132 OFFCURVE",
"-47 -234 CURVE SMOOTH",
"-48 -245 OFFCURVE",
"-43 -255 OFFCURVE",
"-32 -264 CURVE SMOOTH",
"-23 -271 OFFCURVE",
"-13 -275 OFFCURVE",
"-2 -275 CURVE SMOOTH"
);
},
{
closed = 1;
nodes = (
"87 15 OFFCURVE",
"81 21 OFFCURVE",
"81 33 CURVE SMOOTH",
"81 60 OFFCURVE",
"110 106 OFFCURVE",
"168 169 CURVE SMOOTH",
"229 237 OFFCURVE",
"273 272 OFFCURVE",
"300 272 CURVE SMOOTH",
"310 272 OFFCURVE",
"315 266 OFFCURVE",
"315 253 CURVE SMOOTH",
"315 225 OFFCURVE",
"297 184 OFFCURVE",
"262 129 CURVE SMOOTH",
"243 100 OFFCURVE",
"217 73 OFFCURVE",
"182 50 CURVE SMOOTH",
"147 27 OFFCURVE",
"120 15 OFFCURVE",
"100 15 CURVE SMOOTH"
);
}
);
width = 309;
}
);
note = p;
unicode = 0070;
},
{
glyphname = thorn;
lastChange = "2021-08-03 00:54:19 +0000";
layers = (
{
background = {
paths = (
{
closed = 1;
nodes = (
"372 313 OFFCURVE",
"372 356 OFFCURVE",
"329 356 CURVE SMOOTH",
"299 356 OFFCURVE",
"261 323 OFFCURVE",
"224 281 CURVE",
"295 410 OFFCURVE",
"361 526 OFFCURVE",
"374 545 CURVE",
"375 570 OFFCURVE",
"366 578 OFFCURVE",
"340 578 CURVE SMOOTH",
"336 578 OFFCURVE",
"332 578 OFFCURVE",
"329 574 CURVE",
"268 492 OFFCURVE",
"99 173 OFFCURVE",
"9 -40 CURVE SMOOTH",
"-20 -108 OFFCURVE",
"-41 -165 OFFCURVE",
"-48 -201 CURVE SMOOTH",
"-56 -243 OFFCURVE",
"-38 -264 OFFCURVE",
"-15 -264 CURVE SMOOTH",
"7 -264 OFFCURVE",
"33 -248 OFFCURVE",
"49 -216 CURVE",
"43 -216 LINE",
"38 -221 OFFCURVE",
"22 -226 OFFCURVE",
"12 -226 CURVE SMOOTH",
"-20 -226 OFFCURVE",
"3 -154 OFFCURVE",
"31 -95 CURVE SMOOTH",
"37 -82 OFFCURVE",
"42 -70 OFFCURVE",
"47 -58 CURVE SMOOTH",
"55 -39 OFFCURVE",
"68 -14 OFFCURVE",
"81 13 CURVE",
"88 3 OFFCURVE",
"103 0 OFFCURVE",
"119 0 CURVE SMOOTH",
"130 0 OFFCURVE",
"142 2 OFFCURVE",
"151 4 CURVE SMOOTH",
"238 23 OFFCURVE",
"309 139 OFFCURVE",
"341 222 CURVE SMOOTH",
"346 235 OFFCURVE",
"350 247 OFFCURVE",
"354 259 CURVE SMOOTH"
);
},
{
closed = 1;
nodes = (
"227 120 OFFCURVE",
"189 55 OFFCURVE",
"144 31 CURVE SMOOTH",
"135 26 OFFCURVE",
"124 22 OFFCURVE",
"115 22 CURVE SMOOTH",
"107 22 OFFCURVE",
"100 26 OFFCURVE",
"94 32 CURVE SMOOTH",
"93 33 OFFCURVE",
"93 34 OFFCURVE",
"92 34 CURVE",
"118 86 OFFCURVE",
"151 146 OFFCURVE",
"184 206 CURVE",
"206 238 OFFCURVE",
"255 302 OFFCURVE",
"281 302 CURVE SMOOTH",
"306 302 OFFCURVE",
"290 254 OFFCURVE",
"272 213 CURVE SMOOTH",
"265 198 OFFCURVE",
"259 183 OFFCURVE",
"254 173 CURVE SMOOTH"
);
}
);
};
layerId = "F7E87FDD-B687-450B-8559-2548A76CA810";
paths = (
{
closed = 1;
nodes = (
"6 -275 OFFCURVE",
"11 -273 OFFCURVE",
"14 -268 CURVE SMOOTH",
"16 -265 OFFCURVE",
"12 -261 OFFCURVE",
"3 -258 CURVE SMOOTH",
"-6 -255 OFFCURVE",
"-11 -250 OFFCURVE",
"-11 -242 CURVE SMOOTH",
"-8 -155 OFFCURVE",
"15 -68 OFFCURVE",
"58 20 CURVE",
"71 -4 OFFCURVE",
"91 -16 OFFCURVE",
"118 -16 CURVE SMOOTH",
"147 -16 OFFCURVE",
"180 -3 OFFCURVE",
"219 24 CURVE SMOOTH",
"252 48 OFFCURVE",
"280 75 OFFCURVE",
"302 105 CURVE SMOOTH",
"343 161 OFFCURVE",
"363 211 OFFCURVE",
"363 256 CURVE SMOOTH",
"363 277 OFFCURVE",
"356 288 OFFCURVE",
"343 288 CURVE SMOOTH",
"320 290 OFFCURVE",
"304 292 OFFCURVE",
"295 295 CURVE",
"272 295 OFFCURVE",
"237 270 OFFCURVE",
"190 220 CURVE SMOOTH",
"153 179 OFFCURVE",
"122 148 OFFCURVE",
"118 141 CURVE SMOOTH",
"162 231 OFFCURVE",
"237 422 OFFCURVE",
"325 509 CURVE SMOOTH",
"329 513 OFFCURVE",
"331 516 OFFCURVE",
"331 522 CURVE SMOOTH",
"331 529 OFFCURVE",
"327 532 OFFCURVE",
"319 533 CURVE SMOOTH",
"290 536 OFFCURVE",
"278 531 OFFCURVE",
"268 517 CURVE SMOOTH",
"217 446 OFFCURVE",
"139 269 OFFCURVE",
"100 185 CURVE SMOOTH",
"43 64 OFFCURVE",
"-38 -132 OFFCURVE",
"-47 -234 CURVE SMOOTH",
"-48 -245 OFFCURVE",
"-43 -255 OFFCURVE",
"-32 -264 CURVE SMOOTH",
"-23 -271 OFFCURVE",
"-13 -275 OFFCURVE",
"-2 -275 CURVE SMOOTH"
);
},
{
closed = 1;
nodes = (
"87 15 OFFCURVE",
"81 21 OFFCURVE",
"81 33 CURVE SMOOTH",
"81 60 OFFCURVE",
"110 106 OFFCURVE",
"168 169 CURVE SMOOTH",
"229 237 OFFCURVE",
"273 272 OFFCURVE",
"300 272 CURVE SMOOTH",
"310 272 OFFCURVE",
"315 266 OFFCURVE",
"315 253 CURVE SMOOTH",
"315 225 OFFCURVE",
"297 184 OFFCURVE",
"262 129 CURVE SMOOTH",
"243 100 OFFCURVE",
"217 73 OFFCURVE",
"182 50 CURVE SMOOTH",
"147 27 OFFCURVE",
"120 15 OFFCURVE",
"100 15 CURVE SMOOTH"
);
}
);
width = 309;
}
);
unicode = 00FE;
},
{
glyphname = q;
lastChange = "2021-08-03 16:22:02 +0000";
layers = (
{
layerId = "F7E87FDD-B687-450B-8559-2548A76CA810";
paths = (
{
closed = 1;
nodes = (
"237 -278 OFFCURVE",
"248 -275 OFFCURVE",
"248 -268 CURVE SMOOTH",
"248 -266 OFFCURVE",
"241 -263 OFFCURVE",
"227 -258 CURVE",
"219 -245 OFFCURVE",
"215 -223 OFFCURVE",
"215 -194 CURVE SMOOTH",
"215 -134 OFFCURVE",
"229 -66 OFFCURVE",
"256 9 CURVE SMOOTH",
"273 58 OFFCURVE",
"293 103 OFFCURVE",
"314 145 CURVE SMOOTH",
"334 184 OFFCURVE",
"348 207 OFFCURVE",
"357 212 CURVE SMOOTH",
"359 213 OFFCURVE",
"360 215 OFFCURVE",
"360 216 CURVE SMOOTH",
"360 224 OFFCURVE",
"342 233 OFFCURVE",
"326 233 CURVE SMOOTH",
"316 233 OFFCURVE",
"309 230 OFFCURVE",
"306 223 CURVE SMOOTH",
"289 193 OFFCURVE",
"260 152 OFFCURVE",
"218 100 CURVE SMOOTH",
"166 34 OFFCURVE",
"132 4 OFFCURVE",
"116 11 CURVE SMOOTH",
"103 16 OFFCURVE",
"97 28 OFFCURVE",
"97 45 CURVE SMOOTH",
"97 76 OFFCURVE",
"115 117 OFFCURVE",
"151 167 CURVE SMOOTH",
"202 236 OFFCURVE",
"271 281 OFFCURVE",
"326 281 CURVE SMOOTH",
"349 281 OFFCURVE",
"368 273 OFFCURVE",
"382 258 CURVE SMOOTH",
"383 257 OFFCURVE",
"383 257 OFFCURVE",
"384 257 CURVE SMOOTH",
"387 257 OFFCURVE",
"388 259 OFFCURVE",
"388 264 CURVE SMOOTH",
"388 271 OFFCURVE",
"384 276 OFFCURVE",
"377 281 CURVE SMOOTH",
"355 294 OFFCURVE",
"331 301 OFFCURVE",
"305 301 CURVE SMOOTH",
"264 301 OFFCURVE",
"221 285 OFFCURVE",
"176 252 CURVE SMOOTH",
"141 226 OFFCURVE",
"114 200 OFFCURVE",
"97 173 CURVE SMOOTH",
"70 129 OFFCURVE",
"56 92 OFFCURVE",
"56 63 CURVE SMOOTH",
"56 27 OFFCURVE",
"76 4 OFFCURVE",
"116 -5 CURVE SMOOTH",
"133 -9 OFFCURVE",
"154 1 OFFCURVE",
"179 25 CURVE SMOOTH",
"196 41 OFFCURVE",
"215 64 OFFCURVE",
"236 94 CURVE SMOOTH",
"263 131 LINE",
"245 80 OFFCURVE",
"227 30 OFFCURVE",
"208 -21 CURVE SMOOTH",
"181 -104 OFFCURVE",
"167 -168 OFFCURVE",
"167 -214 CURVE SMOOTH",
"167 -227 OFFCURVE",
"168 -239 OFFCURVE",
"170 -249 CURVE SMOOTH",
"174 -268 OFFCURVE",
"189 -278 OFFCURVE",
"215 -278 CURVE SMOOTH"
);
}
);
width = 314;
}
);
note = q;
unicode = 0071;
},
{
glyphname = r;
lastChange = "2021-08-03 00:54:14 +0000";
layers = (
{
anchors = (
{
name = bottom;
position = "{25, 0}";
},
{
name = top;
position = "{259, 300}";
}
);
layerId = "F7E87FDD-B687-450B-8559-2548A76CA810";
paths = (
{
closed = 1;
nodes = (
"45 -12 OFFCURVE",
"55 -7 OFFCURVE",
"59 2 CURVE SMOOTH",
"120 135 OFFCURVE",
"193 221 OFFCURVE",
"278 259 CURVE SMOOTH",
"291 265 OFFCURVE",
"303 268 OFFCURVE",
"313 268 CURVE SMOOTH",
"332 268 OFFCURVE",
"351 251 OFFCURVE",
"356 251 CURVE SMOOTH",
"367 251 OFFCURVE",
"379 267 OFFCURVE",
"379 278 CURVE SMOOTH",
"379 295 OFFCURVE",
"358 311 OFFCURVE",
"331 311 CURVE SMOOTH",
"320 311 OFFCURVE",
"310 309 OFFCURVE",
"300 304 CURVE SMOOTH",
"281 295 OFFCURVE",
"254 275 OFFCURVE",
"217 244 CURVE SMOOTH",
"180 213 OFFCURVE",
"153 186 OFFCURVE",
"134 161 CURVE",
"159 220 OFFCURVE",
"178 264 OFFCURVE",
"191 292 CURVE",
"192 301 OFFCURVE",
"189 306 OFFCURVE",
"180 306 CURVE SMOOTH",
"164 306 OFFCURVE",
"136 285 OFFCURVE",
"127 261 CURVE SMOOTH",
"85 151 OFFCURVE",
"48 65 OFFCURVE",
"16 4 CURVE",
"15 1 OFFCURVE",
"14 -1 OFFCURVE",
"14 -3 CURVE SMOOTH",
"14 -9 OFFCURVE",
"19 -12 OFFCURVE",
"28 -12 CURVE SMOOTH"
);
}
);
width = 269;
}
);
note = r;
unicode = 0072;
},
{
glyphname = s;
lastChange = "2021-08-03 00:54:19 +0000";
layers = (
{
anchors = (
{
name = bottom;
position = "{159, 0}";
},
{
name = top;
position = "{201, 297}";
}
);
layerId = "F7E87FDD-B687-450B-8559-2548A76CA810";
paths = (
{
closed = 1;
nodes = (
"64 -41 OFFCURVE",
"70 -40 OFFCURVE",
"78 -37 CURVE SMOOTH",
"130 -20 OFFCURVE",
"175 0 OFFCURVE",
"212 23 CURVE SMOOTH",
"270 58 OFFCURVE",
"299 94 OFFCURVE",
"299 129 CURVE SMOOTH",
"299 162 OFFCURVE",
"265 178 OFFCURVE",
"198 178 CURVE SMOOTH",
"148 178 OFFCURVE",
"123 185 OFFCURVE",
"122 198 CURVE SMOOTH",
"120 221 OFFCURVE",
"135 241 OFFCURVE",
"168 258 CURVE SMOOTH",
"194 272 OFFCURVE",
"219 280 OFFCURVE",
"242 280 CURVE SMOOTH",
"277 280 OFFCURVE",
"280 280 OFFCURVE",
"280 255 CURVE SMOOTH",
"281 237 OFFCURVE",
"289 228 OFFCURVE",
"302 228 CURVE SMOOTH",
"317 228 OFFCURVE",
"331 245 OFFCURVE",
"331 264 CURVE SMOOTH",
"331 273 OFFCURVE",
"328 280 OFFCURVE",
"322 286 CURVE SMOOTH",
"308 299 OFFCURVE",
"288 305 OFFCURVE",
"263 305 CURVE SMOOTH",
"234 305 OFFCURVE",
"201 297 OFFCURVE",
"166 281 CURVE SMOOTH",
"133 266 OFFCURVE",
"110 251 OFFCURVE",
"96 235 CURVE SMOOTH",
"84 222 OFFCURVE",
"78 208 OFFCURVE",
"78 195 CURVE SMOOTH",
"78 162 OFFCURVE",
"116 146 OFFCURVE",
"192 145 CURVE SMOOTH",
"225 145 OFFCURVE",
"241 137 OFFCURVE",
"241 120 CURVE SMOOTH",
"241 98 OFFCURVE",
"221 72 OFFCURVE",
"180 42 CURVE SMOOTH",
"166 32 OFFCURVE",
"148 21 OFFCURVE",
"125 10 CURVE SMOOTH",
"80 -13 OFFCURVE",
"57 -30 OFFCURVE",
"57 -38 CURVE SMOOTH",
"57 -40 OFFCURVE",
"58 -41 OFFCURVE",
"61 -41 CURVE SMOOTH"
);
}
);
width = 318;
}
);
note = s;
unicode = 0073;
},
{
glyphname = germandbls;
lastChange = "2021-08-03 00:54:14 +0000";
layers = (
{
layerId = "F7E87FDD-B687-450B-8559-2548A76CA810";
paths = (
{
closed = 1;
nodes = (
"-70 -168 OFFCURVE",
"-15 -123 OFFCURVE",
"46 -33 CURVE",
"46 -36 OFFCURVE",
"48 -38 OFFCURVE",
"52 -41 CURVE",
"60 -45 OFFCURVE",
"76 -47 OFFCURVE",
"100 -47 CURVE SMOOTH",
"114 -47 LINE SMOOTH",
"186 -46 OFFCURVE",
"252 -37 OFFCURVE",
"312 -18 CURVE SMOOTH",
"387 5 OFFCURVE",
"442 39 OFFCURVE",
"479 85 CURVE SMOOTH",
"503 114 OFFCURVE",
"515 144 OFFCURVE",
"515 174 CURVE SMOOTH",
"515 210 OFFCURVE",
"499 239 OFFCURVE",
"466 262 CURVE SMOOTH",
"439 281 OFFCURVE",
"406 293 OFFCURVE",
"366 300 CURVE",
"420 301 OFFCURVE",
"465 320 OFFCURVE",
"500 355 CURVE SMOOTH",
"535 391 OFFCURVE",
"553 436 OFFCURVE",
"553 490 CURVE SMOOTH",
"553 573 OFFCURVE",
"503 636 OFFCURVE",
"422 636 CURVE SMOOTH",
"341 636 OFFCURVE",
"260 530 OFFCURVE",
"179 317 CURVE SMOOTH",
"128 184 OFFCURVE",
"89 92 OFFCURVE",
"62 41 CURVE SMOOTH",
"-5 -86 OFFCURVE",
"-68 -149 OFFCURVE",
"-129 -149 CURVE SMOOTH",
"-135 -149 OFFCURVE",
"-139 -152 OFFCURVE",
"-141 -157 CURVE",
"-138 -164 OFFCURVE",
"-131 -168 OFFCURVE",
"-120 -168 CURVE SMOOTH"
);
},
{
closed = 1;
nodes = (
"110 -24 OFFCURVE",
"89 -22 OFFCURVE",
"62 -18 CURVE",
"53 -21 LINE",
"103 56 OFFCURVE",
"160 171 OFFCURVE",
"224 324 CURVE SMOOTH",
"262 416 OFFCURVE",
"281 462 OFFCURVE",
"282 463 CURVE",
"323 553 OFFCURVE",
"372 598 OFFCURVE",
"430 598 CURVE SMOOTH",
"493 598 OFFCURVE",
"531 548 OFFCURVE",
"531 485 CURVE SMOOTH",
"531 458 OFFCURVE",
"524 432 OFFCURVE",
"511 407 CURVE SMOOTH",
"474 339 OFFCURVE",
"406 305 OFFCURVE",
"307 305 CURVE SMOOTH",
"294 305 OFFCURVE",
"283 306 OFFCURVE",
"272 309 CURVE",
"269 303 OFFCURVE",
"268 298 OFFCURVE",
"268 293 CURVE SMOOTH",
"268 284 OFFCURVE",
"279 279 OFFCURVE",
"302 279 CURVE SMOOTH",
"421 279 OFFCURVE",
"480 246 OFFCURVE",
"480 179 CURVE SMOOTH",
"480 153 OFFCURVE",
"469 126 OFFCURVE",
"447 99 CURVE SMOOTH",
"414 58 OFFCURVE",
"365 26 OFFCURVE",
"300 4 CURVE SMOOTH",
"245 -15 OFFCURVE",
"187 -24 OFFCURVE",
"125 -24 CURVE SMOOTH"
);
}
);
width = 581;
}
);
note = germandbls;
unicode = 00DF;
},
{
glyphname = t;
lastChange = "2021-08-03 16:22:02 +0000";
layers = (
{
anchors = (
{
name = bottom;
position = "{121, -11}";
},
{
name = center;
position = "{169, 243}";
},
{
name = top;
position = "{270, 504}";
},
{
name = topright;
position = "{343, 559}";
}
);
layerId = "F7E87FDD-B687-450B-8559-2548A76CA810";
paths = (
{
closed = 1;
nodes = (
"146 -20 OFFCURVE",
"172 -3 OFFCURVE",
"212 32 CURVE SMOOTH",
"255 69 OFFCURVE",
"288 107 OFFCURVE",
"313 147 CURVE SMOOTH",
"316 152 OFFCURVE",
"318 156 OFFCURVE",
"318 159 CURVE SMOOTH",
"318 162 OFFCURVE",
"317 163 OFFCURVE",
"314 163 CURVE SMOOTH",
"310 163 OFFCURVE",
"306 160 OFFCURVE",
"301 153 CURVE SMOOTH",
"272 110 OFFCURVE",
"236 72 OFFCURVE",
"192 40 CURVE SMOOTH",
"155 13 OFFCURVE",
"131 0 OFFCURVE",
"121 3 CURVE SMOOTH",
"109 7 OFFCURVE",
"103 19 OFFCURVE",
"103 40 CURVE SMOOTH",
"103 96 OFFCURVE",
"139 193 OFFCURVE",
"212 331 CURVE",
"297 344 OFFCURVE",
"343 353 OFFCURVE",
"348 358 CURVE",
"350 362 OFFCURVE",
"336 362 OFFCURVE",
"308 362 CURVE SMOOTH",
"295 362 OFFCURVE",
"280 361 OFFCURVE",
"264 360 CURVE SMOOTH",
"242 359 OFFCURVE",
"229 357 OFFCURVE",
"225 356 CURVE",
"254 403 OFFCURVE",
"284 450 OFFCURVE",
"314 497 CURVE SMOOTH",
"316 500 OFFCURVE",
"310 502 OFFCURVE",
"295 502 CURVE SMOOTH",
"263 502 OFFCURVE",
"245 496 OFFCURVE",
"239 484 CURVE SMOOTH",
"174 352 LINE",
"90 340 LINE",
"87 339 OFFCURVE",
"85 332 OFFCURVE",
"85 324 CURVE SMOOTH",
"85 319 OFFCURVE",
"87 317 OFFCURVE",
"89 317 CURVE SMOOTH",
"118 319 OFFCURVE",
"142 322 OFFCURVE",
"162 325 CURVE",
"77 134 LINE SMOOTH",
"62 100 OFFCURVE",
"56 73 OFFCURVE",
"56 53 CURVE SMOOTH",
"56 17 OFFCURVE",
"82 -6 OFFCURVE",
"133 -17 CURVE SMOOTH"
);
}
);
width = 225;
}
);
note = t;
unicode = 0074;
},
{
glyphname = u;
lastChange = "2021-08-03 19:48:46 +0000";
layers = (
{
anchors = (
{
name = bottom;
position = "{138, 0}";
},
{
name = ogonek;
position = "{300, 10}";
},
{
name = top;
position = "{227, 274}";
},
{
name = topright;
position = "{319, 241}";
}
);
layerId = "F7E87FDD-B687-450B-8559-2548A76CA810";
paths = (
{
closed = 1;
nodes = (
"269 -10 OFFCURVE",
"294 3 OFFCURVE",
"330 33 CURVE SMOOTH",
"370 67 OFFCURVE",
"405 107 OFFCURVE",
"435 154 CURVE SMOOTH",
"438 159 OFFCURVE",
"439 162 OFFCURVE",
"439 165 CURVE SMOOTH",
"439 168 OFFCURVE",
"437 170 OFFCURVE",
"433 169 CURVE SMOOTH",
"429 168 OFFCURVE",
"425 164 OFFCURVE",
"422 159 CURVE SMOOTH",
"360 69 OFFCURVE",
"302 21 OFFCURVE",
"248 16 CURVE SMOOTH",
"243 15 OFFCURVE",
"240 19 OFFCURVE",
"240 26 CURVE SMOOTH",
"240 45 OFFCURVE",
"272 122 OFFCURVE",
"337 257 CURVE SMOOTH",
"340 262 OFFCURVE",
"323 278 OFFCURVE",
"310 278 CURVE SMOOTH",
"302 278 OFFCURVE",
"296 274 OFFCURVE",
"292 266 CURVE SMOOTH",
"253 197 OFFCURVE",
"214 138 OFFCURVE",
"173 90 CURVE SMOOTH",
"134 45 OFFCURVE",
"106 23 OFFCURVE",
"89 23 CURVE SMOOTH",
"78 23 OFFCURVE",
"73 31 OFFCURVE",
"73 47 CURVE SMOOTH",
"73 70 OFFCURVE",
"89 111 OFFCURVE",
"118 169 CURVE SMOOTH",
"160 252 LINE",
"151 266 OFFCURVE",
"142 273 OFFCURVE",
"133 273 CURVE SMOOTH",
"120 273 OFFCURVE",
"109 262 OFFCURVE",
"99 241 CURVE SMOOTH",
"56 150 OFFCURVE",
"34 87 OFFCURVE",
"34 54 CURVE SMOOTH",
"34 45 OFFCURVE",
"35 36 OFFCURVE",
"38 29 CURVE",
"42 9 OFFCURVE",
"56 -1 OFFCURVE",
"81 -1 CURVE SMOOTH",
"87 -1 OFFCURVE",
"93 0 OFFCURVE",
"99 2 CURVE SMOOTH",
"116 8 OFFCURVE",
"138 26 OFFCURVE",
"164 56 CURVE SMOOTH",
"176 69 OFFCURVE",
"200 100 OFFCURVE",
"237 148 CURVE",
"213 100 OFFCURVE",
"201 63 OFFCURVE",
"201 36 CURVE SMOOTH",
"201 29 OFFCURVE",
"203 24 OFFCURVE",
"206 21 CURVE SMOOTH",
"222 6 OFFCURVE",
"238 -3 OFFCURVE",
"255 -7 CURVE SMOOTH"
);
}
);
width = 341;
}
);
note = u;
unicode = 0075;
},
{
glyphname = v;
lastChange = "2021-08-03 00:54:14 +0000";
layers = (
{
layerId = "F7E87FDD-B687-450B-8559-2548A76CA810";
paths = (
{
closed = 1;
nodes = (
"123 -15 OFFCURVE",
"160 21 OFFCURVE",
"230 97 CURVE SMOOTH",
"293 167 OFFCURVE",
"350 232 OFFCURVE",
"399 291 CURVE SMOOTH",
"410 304 OFFCURVE",
"415 315 OFFCURVE",
"415 325 CURVE SMOOTH",
"415 336 OFFCURVE",
"411 341 OFFCURVE",
"402 341 CURVE SMOOTH",
"391 341 OFFCURVE",
"382 332 OFFCURVE",
"373 315 CURVE SMOOTH",
"353 276 OFFCURVE",
"310 219 OFFCURVE",
"244 143 CURVE SMOOTH",
"182 72 OFFCURVE",
"141 29 OFFCURVE",
"120 16 CURVE SMOOTH",
"117 14 OFFCURVE",
"115 13 OFFCURVE",
"112 13 CURVE SMOOTH",
"106 13 OFFCURVE",
"103 18 OFFCURVE",
"103 27 CURVE SMOOTH",
"103 48 OFFCURVE",
"114 88 OFFCURVE",
"137 147 CURVE SMOOTH",
"155 195 OFFCURVE",
"172 234 OFFCURVE",
"187 265 CURVE SMOOTH",
"191 273 OFFCURVE",
"175 292 OFFCURVE",
"159 292 CURVE SMOOTH",
"143 292 OFFCURVE",
"130 279 OFFCURVE",
"121 253 CURVE SMOOTH",
"83 150 OFFCURVE",
"64 76 OFFCURVE",
"64 33 CURVE SMOOTH",
"64 23 OFFCURVE",
"66 17 OFFCURVE",
"69 14 CURVE",
"98 -5 OFFCURVE",
"115 -13 OFFCURVE",
"118 -12 CURVE"
);
}
);
width = 314;
}
);
note = v;
unicode = 0076;
},
{
glyphname = w;
lastChange = "2021-08-03 16:22:02 +0000";
layers = (
{
anchors = (
{
name = bottom;
position = "{172, 0}";
},
{
name = top;
position = "{330, 275}";
}
);
layerId = "F7E87FDD-B687-450B-8559-2548A76CA810";
paths = (
{
closed = 1;
nodes = (
"60 -19 OFFCURVE",
"64 -16 OFFCURVE",
"67 -11 CURVE SMOOTH",
"113 64 OFFCURVE",
"178 133 OFFCURVE",
"262 198 CURVE",
"236 152 OFFCURVE",
"223 110 OFFCURVE",
"223 72 CURVE SMOOTH",
"223 19 OFFCURVE",
"245 -8 OFFCURVE",
"288 -8 CURVE SMOOTH",
"339 -8 OFFCURVE",
"393 26 OFFCURVE",
"451 95 CURVE SMOOTH",
"508 162 OFFCURVE",
"536 221 OFFCURVE",
"537 274 CURVE",
"534 290 LINE",
"531 297 OFFCURVE",
"526 300 OFFCURVE",
"518 300 CURVE SMOOTH",
"515 300 LINE SMOOTH",
"502 298 OFFCURVE",
"495 285 OFFCURVE",
"492 261 CURVE SMOOTH",
"483 180 OFFCURVE",
"453 116 OFFCURVE",
"402 69 CURVE SMOOTH",
"363 33 OFFCURVE",
"326 15 OFFCURVE",
"290 15 CURVE SMOOTH",
"273 15 OFFCURVE",
"264 26 OFFCURVE",
"264 49 CURVE SMOOTH",
"264 78 OFFCURVE",
"275 116 OFFCURVE",
"296 164 CURVE SMOOTH",
"317 210 OFFCURVE",
"337 241 OFFCURVE",
"356 258 CURVE",
"359 262 OFFCURVE",
"361 266 OFFCURVE",
"361 269 CURVE SMOOTH",
"361 274 OFFCURVE",
"357 277 OFFCURVE",
"348 277 CURVE SMOOTH",
"325 277 OFFCURVE",
"307 267 OFFCURVE",
"293 247 CURVE",
"293 246 LINE",
"292 246 OFFCURVE",
"292 246 OFFCURVE",
"292 245 CURVE",
"259 221 OFFCURVE",
"222 190 OFFCURVE",
"181 151 CURVE SMOOTH",
"128 102 OFFCURVE",
"91 60 OFFCURVE",
"70 27 CURVE",
"83 80 OFFCURVE",
"102 125 OFFCURVE",
"125 164 CURVE",
"148 196 OFFCURVE",
"165 217 OFFCURVE",
"175 226 CURVE SMOOTH",
"176 227 OFFCURVE",
"176 229 OFFCURVE",
"176 230 CURVE SMOOTH",
"176 242 OFFCURVE",
"162 256 OFFCURVE",
"146 256 CURVE SMOOTH",
"129 256 OFFCURVE",
"114 243 OFFCURVE",
"99 218 CURVE SMOOTH",
"80 186 OFFCURVE",
"65 149 OFFCURVE",
"52 106 CURVE SMOOTH",
"41 68 OFFCURVE",
"36 37 OFFCURVE",
"36 14 CURVE SMOOTH",
"36 1 OFFCURVE",
"38 -6 OFFCURVE",
"41 -9 CURVE SMOOTH",
"48 -16 OFFCURVE",
"53 -19 OFFCURVE",
"56 -19 CURVE SMOOTH"
);
}
);
width = 483;
}
);
note = w;
unicode = 0077;
},
{
glyphname = x;
lastChange = "2021-08-03 00:54:19 +0000";
layers = (
{
layerId = "F7E87FDD-B687-450B-8559-2548A76CA810";
paths = (
{
closed = 1;
nodes = (
"34 -72 OFFCURVE",
"39 -64 OFFCURVE",
"43 -50 CURVE SMOOTH",
"49 -27 OFFCURVE",
"56 -9 OFFCURVE",
"63 4 CURVE SMOOTH",
"76 30 OFFCURVE",
"97 55 OFFCURVE",
"124 79 CURVE SMOOTH",
"152 103 OFFCURVE",
"174 119 OFFCURVE",
"189 128 CURVE",
"199 42 OFFCURVE",
"211 -2 OFFCURVE",
"225 -3 CURVE SMOOTH",
"238 -4 OFFCURVE",
"255 3 OFFCURVE",
"276 18 CURVE SMOOTH",
"294 31 OFFCURVE",
"309 45 OFFCURVE",
"321 60 CURVE SMOOTH",
"329 69 OFFCURVE",
"333 75 OFFCURVE",
"333 78 CURVE",
"331 80 LINE",
"328 80 OFFCURVE",
"322 77 OFFCURVE",
"315 71 CURVE SMOOTH",
"294 54 OFFCURVE",
"278 45 OFFCURVE",
"269 45 CURVE SMOOTH",
"263 45 OFFCURVE",
"259 48 OFFCURVE",
"258 54 CURVE SMOOTH",
"249 88 OFFCURVE",
"242 124 OFFCURVE",
"236 163 CURVE",
"265 178 OFFCURVE",
"297 201 OFFCURVE",
"332 231 CURVE SMOOTH",
"377 269 OFFCURVE",
"399 303 OFFCURVE",
"399 333 CURVE SMOOTH",
"399 339 OFFCURVE",
"397 341 OFFCURVE",
"394 339 CURVE",
"372 313 OFFCURVE",
"355 290 OFFCURVE",
"342 269 CURVE",
"317 237 OFFCURVE",
"280 208 OFFCURVE",
"233 182 CURVE",
"224 231 OFFCURVE",
"218 262 OFFCURVE",
"215 273 CURVE SMOOTH",
"210 293 OFFCURVE",
"203 302 OFFCURVE",
"195 300 CURVE SMOOTH",
"174 295 OFFCURVE",
"154 288 OFFCURVE",
"133 277 CURVE SMOOTH",
"115 268 OFFCURVE",
"105 261 OFFCURVE",
"105 255 CURVE SMOOTH",
"105 251 OFFCURVE",
"109 249 OFFCURVE",
"113 249 CURVE SMOOTH",
"118 249 OFFCURVE",
"140 263 OFFCURVE",
"149 263 CURVE SMOOTH",
"156 262 OFFCURVE",
"162 253 OFFCURVE",
"167 236 CURVE SMOOTH",
"170 227 OFFCURVE",
"174 208 OFFCURVE",
"180 179 CURVE SMOOTH",
"184 148 LINE",
"169 135 LINE SMOOTH",
"63 52 OFFCURVE",
"10 -8 OFFCURVE",
"10 -43 CURVE SMOOTH",
"10 -59 OFFCURVE",
"20 -74 OFFCURVE",
"28 -73 CURVE SMOOTH"
);
}
);
width = 300;
}
);
note = x;
unicode = 0078;
},
{
glyphname = y;
lastChange = "2021-08-03 16:22:02 +0000";
layers = (
{
anchors = (
{
name = bottom;
position = "{331, 0}";
},
{
name = top;
position = "{240, 273}";
}
);
layerId = "F7E87FDD-B687-450B-8559-2548A76CA810";
paths = (
{
closed = 1;
nodes = (
"44 -308 OFFCURVE",
"82 -285 OFFCURVE",
"122 -240 CURVE SMOOTH",
"189 -164 OFFCURVE",
"245 -68 OFFCURVE",
"291 47 CURVE",
"308 56 OFFCURVE",
"324 63 OFFCURVE",
"337 68 CURVE SMOOTH",
"354 74 OFFCURVE",
"362 80 OFFCURVE",
"362 87 CURVE SMOOTH",
"362 90 OFFCURVE",
"359 91 OFFCURVE",
"354 91 CURVE SMOOTH",
"342 91 OFFCURVE",
"325 85 OFFCURVE",
"303 72 CURVE",
"328 145 OFFCURVE",
"346 199 OFFCURVE",
"357 236 CURVE",
"359 239 OFFCURVE",
"360 242 OFFCURVE",
"360 245 CURVE SMOOTH",
"360 257 OFFCURVE",
"352 263 OFFCURVE",
"336 263 CURVE SMOOTH",
"327 263 OFFCURVE",
"321 260 OFFCURVE",
"316 253 CURVE SMOOTH",
"289 212 OFFCURVE",
"256 169 OFFCURVE",
"218 122 CURVE SMOOTH",
"159 49 OFFCURVE",
"119 13 OFFCURVE",
"98 13 CURVE SMOOTH",
"87 13 OFFCURVE",
"82 21 OFFCURVE",
"82 37 CURVE SMOOTH",
"82 61 OFFCURVE",
"98 104 OFFCURVE",
"129 165 CURVE SMOOTH",
"173 252 LINE",
"164 266 OFFCURVE",
"155 273 OFFCURVE",
"146 273 CURVE SMOOTH",
"133 273 OFFCURVE",
"122 262 OFFCURVE",
"112 241 CURVE SMOOTH",
"67 145 OFFCURVE",
"46 78 OFFCURVE",
"46 42 CURVE SMOOTH",
"46 31 OFFCURVE",
"47 21 OFFCURVE",
"66 11 CURVE SMOOTH",
"96 -5 LINE SMOOTH",
"98 -6 OFFCURVE",
"100 -6 OFFCURVE",
"102 -6 CURVE SMOOTH",
"123 -6 OFFCURVE",
"162 27 OFFCURVE",
"219 94 CURVE SMOOTH",
"266 149 OFFCURVE",
"292 181 OFFCURVE",
"296 188 CURVE",
"284 144 OFFCURVE",
"268 93 OFFCURVE",
"245 37 CURVE",
"197 6 OFFCURVE",
"150 -31 OFFCURVE",
"105 -74 CURVE SMOOTH",
"56 -119 OFFCURVE",
"21 -160 OFFCURVE",
"-2 -196 CURVE SMOOTH",
"-20 -225 OFFCURVE",
"-29 -250 OFFCURVE",
"-29 -270 CURVE SMOOTH",
"-29 -295 OFFCURVE",
"-16 -308 OFFCURVE",
"9 -308 CURVE SMOOTH"
);
},
{
closed = 1;
nodes = (
"18 -287 OFFCURVE",
"12 -279 OFFCURVE",
"12 -262 CURVE SMOOTH",
"12 -245 OFFCURVE",
"19 -224 OFFCURVE",
"34 -200 CURVE SMOOTH",
"77 -129 OFFCURVE",
"143 -60 OFFCURVE",
"232 6 CURVE",
"188 -101 OFFCURVE",
"136 -189 OFFCURVE",
"76 -256 CURVE SMOOTH",
"58 -277 OFFCURVE",
"43 -287 OFFCURVE",
"30 -287 CURVE SMOOTH"
);
}
);
width = 348;
}
);
note = y;
unicode = 0079;
},
{
glyphname = z;
lastChange = "2021-08-03 16:22:07 +0000";
layers = (
{
anchors = (
{
name = bottom;
position = "{187, 0}";
},
{
name = center;
position = "{187, 150}";
},
{
name = top;
position = "{264, 300}";
}
);
layerId = "F7E87FDD-B687-450B-8559-2548A76CA810";
paths = (
{
closed = 1;
nodes = (
"314 -5 OFFCURVE",
"354 4 OFFCURVE",
"371 22 CURVE SMOOTH",
"380 31 OFFCURVE",
"385 42 OFFCURVE",
"385 54 CURVE SMOOTH",
"385 73 OFFCURVE",
"380 83 OFFCURVE",
"370 83 CURVE SMOOTH",
"367 83 OFFCURVE",
"365 81 OFFCURVE",
"364 77 CURVE SMOOTH",
"358 54 OFFCURVE",
"332 37 OFFCURVE",
"286 24 CURVE SMOOTH",
"263 17 OFFCURVE",
"234 14 OFFCURVE",
"199 14 CURVE SMOOTH",
"172 14 OFFCURVE",
"145 16 OFFCURVE",
"118 20 CURVE SMOOTH",
"94 23 OFFCURVE",
"83 26 OFFCURVE",
"84 28 CURVE",
"125 65 OFFCURVE",
"177 105 OFFCURVE",
"242 150 CURVE SMOOTH",
"272 171 OFFCURVE",
"319 202 OFFCURVE",
"383 244 CURVE SMOOTH",
"384 245 OFFCURVE",
"385 247 OFFCURVE",
"385 250 CURVE SMOOTH",
"385 257 OFFCURVE",
"381 266 OFFCURVE",
"373 277 CURVE SMOOTH",
"366 288 OFFCURVE",
"359 294 OFFCURVE",
"354 295 CURVE SMOOTH",
"341 297 OFFCURVE",
"324 298 OFFCURVE",
"301 298 CURVE SMOOTH",
"288 298 OFFCURVE",
"273 297 OFFCURVE",
"257 297 CURVE SMOOTH",
"210 296 OFFCURVE",
"177 293 OFFCURVE",
"157 288 CURVE SMOOTH",
"144 285 OFFCURVE",
"128 262 OFFCURVE",
"128 249 CURVE SMOOTH",
"128 242 OFFCURVE",
"133 236 OFFCURVE",
"140 236 CURVE SMOOTH",
"147 236 OFFCURVE",
"160 242 OFFCURVE",
"179 252 CURVE SMOOTH",
"203 265 OFFCURVE",
"236 271 OFFCURVE",
"278 271 CURVE SMOOTH",
"291 271 OFFCURVE",
"305 270 OFFCURVE",
"320 269 CURVE SMOOTH",
"329 268 OFFCURVE",
"294 240 OFFCURVE",
"215 184 CURVE SMOOTH",
"119 117 OFFCURVE",
"59 67 OFFCURVE",
"34 35 CURVE",
"34 32 OFFCURVE",
"36 26 OFFCURVE",
"40 19 CURVE SMOOTH",
"45 8 OFFCURVE",
"52 2 OFFCURVE",
"59 1 CURVE SMOOTH",
"125 -3 OFFCURVE",
"179 -5 OFFCURVE",
"222 -4 CURVE SMOOTH",
"233 -4 OFFCURVE",
"243 -5 OFFCURVE",
"252 -5 CURVE SMOOTH"
);
}
);
width = 374;
}
);
note = z;
unicode = 007A;
},
{
glyphname = ordfeminine;
lastChange = "2021-08-03 00:54:14 +0000";
layers = (
{
layerId = "F7E87FDD-B687-450B-8559-2548A76CA810";
paths = (
{
closed = 1;
nodes = (
"286 379 OFFCURVE",
"292 380 OFFCURVE",
"297 382 CURVE SMOOTH",
"315 388 OFFCURVE",
"339 403 OFFCURVE",
"369 428 CURVE SMOOTH",
"410 461 OFFCURVE",
"444 500 OFFCURVE",
"472 544 CURVE SMOOTH",
"478 553 OFFCURVE",
"481 560 OFFCURVE",
"481 563 CURVE SMOOTH",
"481 564 OFFCURVE",
"480 565 OFFCURVE",
"478 565 CURVE SMOOTH",
"472 565 OFFCURVE",
"465 560 OFFCURVE",
"458 550 CURVE SMOOTH",
"423 501 OFFCURVE",
"386 462 OFFCURVE",
"347 433 CURVE SMOOTH",
"314 408 OFFCURVE",
"290 398 OFFCURVE",
"277 402 CURVE SMOOTH",
"272 403 OFFCURVE",
"270 408 OFFCURVE",
"270 415 CURVE SMOOTH",
"270 448 OFFCURVE",
"299 510 OFFCURVE",
"357 602 CURVE",
"358 603 OFFCURVE",
"358 605 OFFCURVE",
"358 606 CURVE SMOOTH",
"358 618 OFFCURVE",
"348 624 OFFCURVE",
"328 624 CURVE SMOOTH",
"317 624 OFFCURVE",
"310 620 OFFCURVE",
"306 613 CURVE SMOOTH",
"289 583 OFFCURVE",
"260 542 OFFCURVE",
"218 490 CURVE SMOOTH",
"166 424 OFFCURVE",
"132 394 OFFCURVE",
"116 401 CURVE SMOOTH",
"103 406 OFFCURVE",
"97 418 OFFCURVE",
"97 435 CURVE SMOOTH",
"97 466 OFFCURVE",
"115 507 OFFCURVE",
"151 557 CURVE SMOOTH",
"202 626 OFFCURVE",
"271 671 OFFCURVE",
"326 671 CURVE SMOOTH",
"349 671 OFFCURVE",
"368 663 OFFCURVE",
"382 648 CURVE SMOOTH",
"383 647 OFFCURVE",
"383 647 OFFCURVE",
"384 647 CURVE SMOOTH",
"387 647 OFFCURVE",
"388 649 OFFCURVE",
"388 654 CURVE SMOOTH",
"388 661 OFFCURVE",
"384 666 OFFCURVE",
"377 671 CURVE SMOOTH",
"355 684 OFFCURVE",
"331 691 OFFCURVE",
"305 691 CURVE SMOOTH",
"264 691 OFFCURVE",
"221 675 OFFCURVE",
"176 642 CURVE SMOOTH",
"141 616 OFFCURVE",
"114 590 OFFCURVE",
"97 563 CURVE SMOOTH",
"70 519 OFFCURVE",
"56 482 OFFCURVE",
"56 453 CURVE SMOOTH",
"56 417 OFFCURVE",
"76 394 OFFCURVE",
"116 385 CURVE SMOOTH",
"133 381 OFFCURVE",
"155 391 OFFCURVE",
"180 415 CURVE SMOOTH",
"197 432 OFFCURVE",
"217 455 OFFCURVE",
"238 484 CURVE SMOOTH",
"261 517 LINE",
"234 459 OFFCURVE",
"222 426 OFFCURVE",
"224 417 CURVE SMOOTH",
"228 401 OFFCURVE",
"253 379 OFFCURVE",
"280 379 CURVE SMOOTH"
);
}
);
width = 240;
}
);
note = ordfeminine;
unicode = 00AA;
},
{
glyphname = ordmasculine;
lastChange = "2021-08-03 16:22:02 +0000";
layers = (
{
layerId = "F7E87FDD-B687-450B-8559-2548A76CA810";
paths = (
{
closed = 1;
nodes = (
"168 391 OFFCURVE",
"208 411 OFFCURVE",
"250 452 CURVE SMOOTH",
"293 493 OFFCURVE",
"319 540 OFFCURVE",
"329 594 CURVE SMOOTH",
"330 597 OFFCURVE",
"330 600 OFFCURVE",
"330 604 CURVE SMOOTH",
"330 609 OFFCURVE",
"329 615 OFFCURVE",
"327 620 CURVE",
"360 624 OFFCURVE",
"383 628 OFFCURVE",
"398 631 CURVE SMOOTH",
"401 632 OFFCURVE",
"402 633 OFFCURVE",
"402 634 CURVE SMOOTH",
"402 639 OFFCURVE",
"399 641 OFFCURVE",
"393 641 CURVE SMOOTH",
"389 641 LINE SMOOTH",
"377 640 OFFCURVE",
"354 638 OFFCURVE",
"321 637 CURVE",
"311 654 OFFCURVE",
"293 670 OFFCURVE",
"268 685 CURVE SMOOTH",
"257 691 OFFCURVE",
"245 697 OFFCURVE",
"232 702 CURVE",
"227 705 OFFCURVE",
"220 707 OFFCURVE",
"211 707 CURVE SMOOTH",
"180 707 OFFCURVE",
"153 698 OFFCURVE",
"129 679 CURVE SMOOTH",
"126 677 OFFCURVE",
"125 674 OFFCURVE",
"125 670 CURVE SMOOTH",
"125 666 OFFCURVE",
"129 654 OFFCURVE",
"128 653 CURVE SMOOTH",
"80 598 OFFCURVE",
"56 541 OFFCURVE",
"56 481 CURVE SMOOTH",
"56 421 OFFCURVE",
"80 391 OFFCURVE",
"129 391 CURVE SMOOTH"
);
},
{
closed = 1;
nodes = (
"107 407 OFFCURVE",
"95 425 OFFCURVE",
"95 461 CURVE SMOOTH",
"95 484 OFFCURVE",
"99 507 OFFCURVE",
"107 532 CURVE SMOOTH",
"114 555 OFFCURVE",
"131 584 OFFCURVE",
"157 619 CURVE",
"174 618 OFFCURVE",
"196 618 OFFCURVE",
"223 618 CURVE SMOOTH",
"250 618 OFFCURVE",
"276 618 OFFCURVE",
"302 619 CURVE",
"303 616 OFFCURVE",
"304 612 OFFCURVE",
"304 607 CURVE SMOOTH",
"304 603 OFFCURVE",
"303 598 OFFCURVE",
"302 592 CURVE SMOOTH",
"295 553 OFFCURVE",
"272 512 OFFCURVE",
"233 470 CURVE SMOOTH",
"195 428 OFFCURVE",
"161 407 OFFCURVE",
"132 407 CURVE SMOOTH"
);
},
{
closed = 1;
nodes = (
"252 636 OFFCURVE",
"211 638 OFFCURVE",
"174 643 CURVE",
"179 648 OFFCURVE",
"183 652 OFFCURVE",
"187 654 CURVE SMOOTH",
"194 659 OFFCURVE",
"209 662 OFFCURVE",
"234 662 CURVE SMOOTH",
"265 662 OFFCURVE",
"286 654 OFFCURVE",
"297 637 CURVE"
);
}
);
width = 191;
}
);
note = ordmasculine;
unicode = 00BA;
},
{
glyphname = pi;
lastChange = "2021-08-03 00:54:14 +0000";
layers = (
{
layerId = "F7E87FDD-B687-450B-8559-2548A76CA810";
paths = (
{
closed = 1;
nodes = (
"198 -15 OFFCURVE",
"204 -14 OFFCURVE",
"210 -12 CURVE SMOOTH",
"221 -9 OFFCURVE",
"235 4 OFFCURVE",
"253 27 CURVE SMOOTH",
"271 51 OFFCURVE",
"280 68 OFFCURVE",
"280 78 CURVE SMOOTH",
"280 79 OFFCURVE",
"279 79 OFFCURVE",
"278 80 CURVE",
"276 80 OFFCURVE",
"274 78 OFFCURVE",
"272 73 CURVE",
"253 39 OFFCURVE",
"239 18 OFFCURVE",
"229 10 CURVE SMOOTH",
"216 1 OFFCURVE",
"206 -4 OFFCURVE",
"199 -4 CURVE SMOOTH",
"186 -4 OFFCURVE",
"180 9 OFFCURVE",
"180 34 CURVE SMOOTH",
"180 54 OFFCURVE",
"183 77 OFFCURVE",
"190 104 CURVE SMOOTH",
"197 127 OFFCURVE",
"203 149 OFFCURVE",
"209 172 CURVE",
"238 170 OFFCURVE",
"263 178 OFFCURVE",
"283 197 CURVE SMOOTH",
"288 202 OFFCURVE",
"291 206 OFFCURVE",
"291 211 CURVE SMOOTH",
"291 214 OFFCURVE",
"290 215 OFFCURVE",
"288 215 CURVE",
"265 200 OFFCURVE",
"246 192 OFFCURVE",
"231 192 CURVE SMOOTH",
"216 192 OFFCURVE",
"194 196 OFFCURVE",
"166 205 CURVE SMOOTH",
"138 214 OFFCURVE",
"116 219 OFFCURVE",
"101 219 CURVE SMOOTH",
"72 219 OFFCURVE",
"44 206 OFFCURVE",
"18 181 CURVE SMOOTH",
"13 177 OFFCURVE",
"11 172 OFFCURVE",
"11 167 CURVE SMOOTH",
"11 165 OFFCURVE",
"12 164 OFFCURVE",
"14 164 CURVE SMOOTH",
"15 164 OFFCURVE",
"17 165 OFFCURVE",
"19 166 CURVE",
"40 184 OFFCURVE",
"64 193 OFFCURVE",
"93 193 CURVE SMOOTH",
"95 193 LINE",
"95 133 OFFCURVE",
"91 87 OFFCURVE",
"84 54 CURVE SMOOTH",
"83 51 OFFCURVE",
"81 44 OFFCURVE",
"76 32 CURVE SMOOTH",
"72 21 OFFCURVE",
"70 13 OFFCURVE",
"70 10 CURVE SMOOTH",
"70 9 OFFCURVE",
"72 8 OFFCURVE",
"76 7 CURVE SMOOTH",
"78 7 OFFCURVE",
"80 8 OFFCURVE",
"81 10 CURVE SMOOTH",
"105 55 OFFCURVE",
"118 116 OFFCURVE",
"119 191 CURVE",
"147 185 OFFCURVE",
"168 180 OFFCURVE",
"182 176 CURVE",
"168 136 OFFCURVE",
"161 88 OFFCURVE",
"161 32 CURVE SMOOTH",
"161 1 OFFCURVE",
"172 -15 OFFCURVE",
"193 -15 CURVE SMOOTH"
);
}
);
width = 330;
}
);
note = pi;
unicode = 03C0;
},
{
glyphname = zero;
lastChange = "2021-08-03 21:42:56 +0000";
layers = (
{
layerId = "F7E87FDD-B687-450B-8559-2548A76CA810";
paths = (
{
closed = 1;
nodes = (
"278 -3 OFFCURVE",
"383 49 OFFCURVE",
"481 152 CURVE SMOOTH",
"554 230 OFFCURVE",
"591 316 OFFCURVE",
"591 411 CURVE SMOOTH",
"591 488 OFFCURVE",
"564 548 OFFCURVE",
"509 591 CURVE SMOOTH",
"484 610 OFFCURVE",
"459 623 OFFCURVE",
"433 630 CURVE",
"441 631 OFFCURVE",
"449 631 OFFCURVE",
"458 631 CURVE SMOOTH",
"485 630 OFFCURVE",
"519 616 OFFCURVE",
"522 616 CURVE SMOOTH",
"525 616 OFFCURVE",
"527 618 OFFCURVE",
"527 623 CURVE",
"524 640 OFFCURVE",
"499 649 OFFCURVE",
"453 649 CURVE SMOOTH",
"420 649 OFFCURVE",
"394 646 OFFCURVE",
"375 639 CURVE",
"365 640 OFFCURVE",
"356 640 OFFCURVE",
"349 640 CURVE SMOOTH",
"330 640 OFFCURVE",
"321 637 OFFCURVE",
"321 631 CURVE SMOOTH",
"321 628 OFFCURVE",
"324 625 OFFCURVE",
"329 622 CURVE",
"275 595 OFFCURVE",
"223 557 OFFCURVE",
"174 507 CURVE SMOOTH",
"123 456 OFFCURVE",
"86 403 OFFCURVE",
"63 349 CURVE SMOOTH",
"36 285 OFFCURVE",
"22 224 OFFCURVE",
"22 167 CURVE SMOOTH",
"22 74 OFFCURVE",
"60 9 OFFCURVE",
"127 0 CURVE SMOOTH",
"140 -2 OFFCURVE",
"153 -3 OFFCURVE",
"166 -3 CURVE SMOOTH"
);
},
{
closed = 1;
nodes = (
"149 16 OFFCURVE",
"142 16 OFFCURVE",
"135 17 CURVE SMOOTH",
"88 21 OFFCURVE",
"65 64 OFFCURVE",
"65 147 CURVE SMOOTH",
"65 211 OFFCURVE",
"80 275 OFFCURVE",
"110 339 CURVE SMOOTH",
"135 392 OFFCURVE",
"169 442 OFFCURVE",
"210 491 CURVE SMOOTH",
"267 558 OFFCURVE",
"325 601 OFFCURVE",
"384 620 CURVE",
"413 615 OFFCURVE",
"447 600 OFFCURVE",
"486 573 CURVE SMOOTH",
"501 563 OFFCURVE",
"513 544 OFFCURVE",
"524 517 CURVE SMOOTH",
"536 486 OFFCURVE",
"542 453 OFFCURVE",
"542 416 CURVE SMOOTH",
"542 325 OFFCURVE",
"506 242 OFFCURVE",
"434 166 CURVE SMOOTH",
"391 121 OFFCURVE",
"346 85 OFFCURVE",
"299 58 CURVE SMOOTH",
"249 30 OFFCURVE",
"201 16 OFFCURVE",
"155 16 CURVE SMOOTH"
);
}
);
width = 576;
}
);
note = zero;
unicode = 0030;
},
{
glyphname = one;
lastChange = "2021-08-03 21:40:40 +0000";
layers = (
{
layerId = "F7E87FDD-B687-450B-8559-2548A76CA810";
paths = (
{
closed = 1;
nodes = (
"87 7 OFFCURVE",
"130 24 OFFCURVE",
"150 31 CURVE SMOOTH",
"197 47 OFFCURVE",
"243 55 OFFCURVE",
"288 55 CURVE SMOOTH",
"295 55 OFFCURVE",
"298 58 OFFCURVE",
"298 65 CURVE SMOOTH",
"298 72 OFFCURVE",
"295 75 OFFCURVE",
"288 75 CURVE SMOOTH",
"235 75 OFFCURVE",
"186 70 OFFCURVE",
"142 61 CURVE",
"371 603 LINE",
"372 604 OFFCURVE",
"373 606 OFFCURVE",
"373 608 CURVE SMOOTH",
"373 617 OFFCURVE",
"363 622 OFFCURVE",
"344 622 CURVE SMOOTH",
"322 622 OFFCURVE",
"309 616 OFFCURVE",
"305 604 CURVE SMOOTH",
"301 594 LINE",
"230 530 OFFCURVE",
"173 489 OFFCURVE",
"132 472 CURVE SMOOTH",
"127 470 OFFCURVE",
"125 467 OFFCURVE",
"125 463 CURVE SMOOTH",
"125 455 OFFCURVE",
"128 452 OFFCURVE",
"133 452 CURVE SMOOTH",
"135 452 OFFCURVE",
"137 452 OFFCURVE",
"139 453 CURVE SMOOTH",
"192 475 OFFCURVE",
"237 499 OFFCURVE",
"275 525 CURVE",
"197 316 OFFCURVE",
"139 159 OFFCURVE",
"101 55 CURVE",
"60 40 OFFCURVE",
"28 27 OFFCURVE",
"6 18 CURVE SMOOTH",
"3 17 OFFCURVE",
"1 13 OFFCURVE",
"1 8 CURVE SMOOTH",
"1 -7 OFFCURVE",
"12 -26 OFFCURVE",
"21 -22 CURVE SMOOTH"
);
}
);
width = 349;
}
);
note = one;
unicode = 0031;
},
{
glyphname = two;
lastChange = "2021-08-03 00:54:19 +0000";
layers = (
{
layerId = "F7E87FDD-B687-450B-8559-2548A76CA810";
paths = (
{
closed = 1;
nodes = (
"570 -49 OFFCURVE",
"603 -40 OFFCURVE",
"629 -21 CURVE SMOOTH",
"653 -3 OFFCURVE",
"665 18 OFFCURVE",
"665 43 CURVE SMOOTH",
"665 84 OFFCURVE",
"633 114 OFFCURVE",
"570 131 CURVE SMOOTH",
"561 134 OFFCURVE",
"556 132 OFFCURVE",
"556 127 CURVE SMOOTH",
"556 124 OFFCURVE",
"558 122 OFFCURVE",
"563 121 CURVE",
"614 103 OFFCURVE",
"639 79 OFFCURVE",
"639 48 CURVE SMOOTH",
"639 12 OFFCURVE",
"596 -16 OFFCURVE",
"531 -16 CURVE SMOOTH",
"485 -16 OFFCURVE",
"424 -4 OFFCURVE",
"349 21 CURVE SMOOTH",
"268 47 OFFCURVE",
"211 61 OFFCURVE",
"178 64 CURVE",
"294 131 OFFCURVE",
"382 193 OFFCURVE",
"443 249 CURVE SMOOTH",
"498 300 OFFCURVE",
"537 340 OFFCURVE",
"560 369 CURVE SMOOTH",
"603 424 OFFCURVE",
"624 474 OFFCURVE",
"624 519 CURVE SMOOTH",
"624 580 OFFCURVE",
"589 611 OFFCURVE",
"520 611 CURVE SMOOTH",
"468 611 OFFCURVE",
"408 595 OFFCURVE",
"339 562 CURVE SMOOTH",
"270 529 OFFCURVE",
"214 491 OFFCURVE",
"171 448 CURVE",
"168 446 OFFCURVE",
"167 443 OFFCURVE",
"167 440 CURVE SMOOTH",
"167 433 OFFCURVE",
"170 429 OFFCURVE",
"177 429 CURVE SMOOTH",
"179 429 OFFCURVE",
"181 430 OFFCURVE",
"183 432 CURVE SMOOTH",
"212 465 OFFCURVE",
"256 495 OFFCURVE",
"315 524 CURVE SMOOTH",
"374 553 OFFCURVE",
"426 567 OFFCURVE",
"469 567 CURVE SMOOTH",
"524 567 OFFCURVE",
"551 542 OFFCURVE",
"551 493 CURVE SMOOTH",
"551 450 OFFCURVE",
"539 409 OFFCURVE",
"515 371 CURVE SMOOTH",
"498 344 OFFCURVE",
"469 312 OFFCURVE",
"430 275 CURVE SMOOTH",
"382 231 OFFCURVE",
"291 164 OFFCURVE",
"158 75 CURVE",
"145 76 OFFCURVE",
"134 76 OFFCURVE",
"123 76 CURVE SMOOTH",
"91 76 OFFCURVE",
"65 73 OFFCURVE",
"45 67 CURVE SMOOTH",
"20 59 OFFCURVE",
"0 35 OFFCURVE",
"0 16 CURVE SMOOTH",
"0 2 OFFCURVE",
"9 -5 OFFCURVE",
"26 -5 CURVE SMOOTH",
"42 -5 OFFCURVE",
"85 12 OFFCURVE",
"155 45 CURVE",
"182 45 OFFCURVE",
"240 29 OFFCURVE",
"327 -2 CURVE SMOOTH",
"414 -33 OFFCURVE",
"482 -49 OFFCURVE",
"531 -49 CURVE SMOOTH"
);
}
);
width = 648;
}
);
note = two;
unicode = 0032;
},
{
glyphname = three;
lastChange = "2021-08-03 21:42:10 +0000";
layers = (
{
layerId = "F7E87FDD-B687-450B-8559-2548A76CA810";
paths = (
{
closed = 1;
nodes = (
"359 -10 OFFCURVE",
"448 11 OFFCURVE",
"527 54 CURVE SMOOTH",
"616 103 OFFCURVE",
"664 167 OFFCURVE",
"670 246 CURVE SMOOTH",
"673 289 OFFCURVE",
"655 322 OFFCURVE",
"616 345 CURVE SMOOTH",
"584 364 OFFCURVE",
"542 376 OFFCURVE",
"489 380 CURVE",
"599 413 OFFCURVE",
"654 457 OFFCURVE",
"654 512 CURVE SMOOTH",
"654 515 OFFCURVE",
"654 519 OFFCURVE",
"653 523 CURVE SMOOTH",
"645 582 OFFCURVE",
"609 612 OFFCURVE",
"545 612 CURVE SMOOTH",
"496 612 OFFCURVE",
"437 595 OFFCURVE",
"366 561 CURVE",
"377 576 OFFCURVE",
"383 585 OFFCURVE",
"383 587 CURVE SMOOTH",
"383 591 OFFCURVE",
"381 593 OFFCURVE",
"378 593 CURVE SMOOTH",
"375 593 OFFCURVE",
"373 592 OFFCURVE",
"371 589 CURVE SMOOTH",
"345 558 OFFCURVE",
"323 540 OFFCURVE",
"306 535 CURVE SMOOTH",
"298 532 OFFCURVE",
"294 524 OFFCURVE",
"294 510 CURVE SMOOTH",
"294 499 OFFCURVE",
"297 493 OFFCURVE",
"302 493 CURVE SMOOTH",
"303 493 OFFCURVE",
"305 494 OFFCURVE",
"307 495 CURVE SMOOTH",
"334 515 OFFCURVE",
"368 533 OFFCURVE",
"409 550 CURVE SMOOTH",
"454 568 OFFCURVE",
"493 577 OFFCURVE",
"525 577 CURVE SMOOTH",
"572 577 OFFCURVE",
"595 557 OFFCURVE",
"595 517 CURVE SMOOTH",
"595 469 OFFCURVE",
"565 432 OFFCURVE",
"505 407 CURVE SMOOTH",
"459 388 OFFCURVE",
"407 378 OFFCURVE",
"349 378 CURVE SMOOTH",
"334 378 OFFCURVE",
"326 370 OFFCURVE",
"326 354 CURVE SMOOTH",
"326 342 OFFCURVE",
"332 336 OFFCURVE",
"344 336 CURVE SMOOTH",
"349 336 OFFCURVE",
"355 337 OFFCURVE",
"362 340 CURVE SMOOTH",
"386 350 OFFCURVE",
"418 355 OFFCURVE",
"458 355 CURVE SMOOTH",
"502 355 OFFCURVE",
"538 348 OFFCURVE",
"566 335 CURVE SMOOTH",
"600 319 OFFCURVE",
"617 295 OFFCURVE",
"617 263 CURVE SMOOTH",
"617 256 OFFCURVE",
"616 248 OFFCURVE",
"615 241 CURVE SMOOTH",
"596 152 OFFCURVE",
"539 87 OFFCURVE",
"444 44 CURVE SMOOTH",
"390 20 OFFCURVE",
"336 8 OFFCURVE",
"284 8 CURVE SMOOTH",
"254 8 OFFCURVE",
"224 12 OFFCURVE",
"195 20 CURVE SMOOTH",
"118 41 OFFCURVE",
"79 83 OFFCURVE",
"79 145 CURVE SMOOTH",
"79 150 OFFCURVE",
"79 155 OFFCURVE",
"80 161 CURVE SMOOTH",
"83 186 OFFCURVE",
"101 210 OFFCURVE",
"135 233 CURVE SMOOTH",
"165 253 OFFCURVE",
"191 263 OFFCURVE",
"213 263 CURVE SMOOTH",
"220 263 OFFCURVE",
"223 265 OFFCURVE",
"223 270 CURVE SMOOTH",
"223 274 OFFCURVE",
"220 276 OFFCURVE",
"213 276 CURVE SMOOTH",
"182 276 OFFCURVE",
"147 267 OFFCURVE",
"109 250 CURVE SMOOTH",
"64 229 OFFCURVE",
"36 204 OFFCURVE",
"25 174 CURVE SMOOTH",
"19 157 OFFCURVE",
"16 142 OFFCURVE",
"16 127 CURVE SMOOTH",
"16 83 OFFCURVE",
"40 49 OFFCURVE",
"88 24 CURVE SMOOTH",
"132 1 OFFCURVE",
"189 -10 OFFCURVE",
"258 -10 CURVE SMOOTH"
);
}
);
width = 671;
}
);
note = three;
unicode = 0033;
},
{
glyphname = four;
lastChange = "2021-08-03 00:54:14 +0000";
layers = (
{
layerId = "F7E87FDD-B687-450B-8559-2548A76CA810";
paths = (
{
closed = 1;
nodes = (
"348 34 OFFCURVE",
"351 37 OFFCURVE",
"351 44 CURVE SMOOTH",
"351 46 OFFCURVE",
"350 48 OFFCURVE",
"349 50 CURVE",
"339 63 OFFCURVE",
"334 76 OFFCURVE",
"334 88 CURVE SMOOTH",
"334 145 OFFCURVE",
"346 202 OFFCURVE",
"369 259 CURVE",
"424 245 OFFCURVE",
"469 238 OFFCURVE",
"504 238 CURVE SMOOTH",
"577 238 OFFCURVE",
"614 255 OFFCURVE",
"614 289 CURVE SMOOTH",
"614 306 OFFCURVE",
"604 326 OFFCURVE",
"585 351 CURVE SMOOTH",
"581 356 OFFCURVE",
"577 359 OFFCURVE",
"572 359 CURVE SMOOTH",
"569 359 OFFCURVE",
"567 357 OFFCURVE",
"567 354 CURVE SMOOTH",
"567 349 OFFCURVE",
"575 328 OFFCURVE",
"575 316 CURVE SMOOTH",
"575 279 OFFCURVE",
"539 258 OFFCURVE",
"504 258 CURVE SMOOTH",
"471 258 OFFCURVE",
"429 266 OFFCURVE",
"379 281 CURVE",
"401 330 OFFCURVE",
"432 387 OFFCURVE",
"471 453 CURVE SMOOTH",
"571 620 LINE SMOOTH",
"575 628 OFFCURVE",
"555 636 OFFCURVE",
"539 636 CURVE SMOOTH",
"531 636 OFFCURVE",
"526 634 OFFCURVE",
"524 631 CURVE SMOOTH",
"517 619 LINE",
"403 515 OFFCURVE",
"252 412 OFFCURVE",
"63 309 CURVE",
"42 305 OFFCURVE",
"24 301 OFFCURVE",
"9 296 CURVE SMOOTH",
"-2 293 OFFCURVE",
"-7 285 OFFCURVE",
"-7 274 CURVE SMOOTH",
"-7 259 OFFCURVE",
"5 243 OFFCURVE",
"18 243 CURVE SMOOTH",
"21 243 OFFCURVE",
"47 250 OFFCURVE",
"94 265 CURVE SMOOTH",
"141 280 OFFCURVE",
"178 288 OFFCURVE",
"203 288 CURVE SMOOTH",
"238 288 OFFCURVE",
"282 281 OFFCURVE",
"336 267 CURVE",
"321 213 OFFCURVE",
"314 153 OFFCURVE",
"314 88 CURVE SMOOTH",
"314 71 OFFCURVE",
"320 55 OFFCURVE",
"333 38 CURVE SMOOTH",
"335 35 OFFCURVE",
"338 34 OFFCURVE",
"341 34 CURVE SMOOTH"
);
},
{
closed = 1;
nodes = (
"283 312 OFFCURVE",
"235 322 OFFCURVE",
"200 322 CURVE SMOOTH",
"175 322 OFFCURVE",
"148 320 OFFCURVE",
"119 317 CURVE",
"281 408 OFFCURVE",
"399 484 OFFCURVE",
"473 545 CURVE",
"446 501 LINE SMOOTH",
"396 417 OFFCURVE",
"362 348 OFFCURVE",
"344 293 CURVE"
);
}
);
width = 568;
}
);
note = four;
unicode = 0034;
},
{
glyphname = five;
lastChange = "2021-08-03 21:43:12 +0000";
layers = (
{
layerId = "F7E87FDD-B687-450B-8559-2548A76CA810";
paths = (
{
closed = 1;
nodes = (
"288 -9 OFFCURVE",
"386 23 OFFCURVE",
"477 85 CURVE SMOOTH",
"574 151 OFFCURVE",
"622 230 OFFCURVE",
"622 321 CURVE SMOOTH",
"622 402 OFFCURVE",
"545 443 OFFCURVE",
"391 443 CURVE SMOOTH",
"354 443 OFFCURVE",
"293 425 OFFCURVE",
"208 388 CURVE",
"308 523 LINE SMOOTH",
"311 527 OFFCURVE",
"306 529 OFFCURVE",
"292 529 CURVE SMOOTH",
"268 529 OFFCURVE",
"254 526 OFFCURVE",
"249 519 CURVE SMOOTH",
"157 368 LINE",
"151 365 OFFCURVE",
"148 360 OFFCURVE",
"148 352 CURVE SMOOTH",
"148 343 OFFCURVE",
"151 339 OFFCURVE",
"156 339 CURVE SMOOTH",
"158 339 OFFCURVE",
"160 339 OFFCURVE",
"162 340 CURVE SMOOTH",
"190 356 OFFCURVE",
"218 372 OFFCURVE",
"245 389 CURVE SMOOTH",
"284 410 OFFCURVE",
"332 421 OFFCURVE",
"388 421 CURVE SMOOTH",
"422 421 OFFCURVE",
"454 415 OFFCURVE",
"485 402 CURVE SMOOTH",
"532 383 OFFCURVE",
"555 353 OFFCURVE",
"555 311 CURVE SMOOTH",
"555 234 OFFCURVE",
"516 165 OFFCURVE",
"439 104 CURVE SMOOTH",
"368 46 OFFCURVE",
"292 17 OFFCURVE",
"213 17 CURVE SMOOTH",
"168 17 OFFCURVE",
"128 28 OFFCURVE",
"93 50 CURVE SMOOTH",
"56 73 OFFCURVE",
"37 100 OFFCURVE",
"37 131 CURVE SMOOTH",
"37 151 OFFCURVE",
"46 171 OFFCURVE",
"63 191 CURVE SMOOTH",
"68 196 OFFCURVE",
"70 201 OFFCURVE",
"70 206 CURVE SMOOTH",
"70 210 OFFCURVE",
"68 212 OFFCURVE",
"64 212 CURVE SMOOTH",
"59 212 OFFCURVE",
"54 209 OFFCURVE",
"48 202 CURVE SMOOTH",
"17 167 OFFCURVE",
"2 135 OFFCURVE",
"2 104 CURVE SMOOTH",
"2 69 OFFCURVE",
"21 40 OFFCURVE",
"60 19 CURVE SMOOTH",
"94 1 OFFCURVE",
"135 -9 OFFCURVE",
"184 -9 CURVE SMOOTH"
);
},
{
closed = 1;
nodes = (
"280 575 OFFCURVE",
"312 584 OFFCURVE",
"357 584 CURVE SMOOTH",
"391 584 OFFCURVE",
"438 580 OFFCURVE",
"497 571 CURVE SMOOTH",
"557 562 OFFCURVE",
"604 558 OFFCURVE",
"637 558 CURVE SMOOTH",
"656 558 OFFCURVE",
"674 562 OFFCURVE",
"693 569 CURVE SMOOTH",
"719 580 OFFCURVE",
"732 595 OFFCURVE",
"732 615 CURVE SMOOTH",
"732 623 OFFCURVE",
"730 632 OFFCURVE",
"725 641 CURVE SMOOTH",
"723 645 OFFCURVE",
"721 647 OFFCURVE",
"718 647 CURVE SMOOTH",
"712 647 OFFCURVE",
"710 644 OFFCURVE",
"710 638 CURVE SMOOTH",
"710 634 LINE",
"713 616 OFFCURVE",
"704 602 OFFCURVE",
"683 591 CURVE SMOOTH",
"667 582 OFFCURVE",
"652 578 OFFCURVE",
"639 578 CURVE SMOOTH",
"606 578 OFFCURVE",
"558 587 OFFCURVE",
"496 604 CURVE SMOOTH",
"435 622 OFFCURVE",
"387 631 OFFCURVE",
"352 631 CURVE SMOOTH",
"325 631 OFFCURVE",
"308 631 OFFCURVE",
"301 630 CURVE SMOOTH",
"280 627 OFFCURVE",
"264 620 OFFCURVE",
"251 609 CURVE SMOOTH",
"248 606 OFFCURVE",
"247 600 OFFCURVE",
"247 591 CURVE SMOOTH",
"247 572 OFFCURVE",
"252 551 OFFCURVE",
"259 556 CURVE"
);
}
);
width = 652;
}
);
note = five;
unicode = 0035;
},
